*
*
G04 PADS 9.4.1 Build Number: 494907 generated Gerber (RS-274-X) file*
G04 PC Version=2.1*
*
%IN "WES0007-02.pcb"*%
*
%MOIN*%
*
%FSLAX35Y35*%
*
*
*
*
G04 PC Standard Apertures*
*
*
G04 Thermal Relief Aperture macro.*
%AMTER*
1,1,$1,0,0*
1,0,$1-$2,0,0*
21,0,$3,$4,0,0,45*
21,0,$3,$4,0,0,135*
%
*
*
G04 Annular Aperture macro.*
%AMANN*
1,1,$1,0,0*
1,0,$2,0,0*
%
*
*
G04 Odd Aperture macro.*
%AMODD*
1,1,$1,0,0*
1,0,$1-0.005,0,0*
%
*
*
G04 PC Custom Aperture Macros*
*
*
*
*
*
*
G04 PC Aperture Table*
*
%ADD010C,0.001*%
%ADD029R,0.024X0.024*%
%ADD038R,0.034X0.034*%
%ADD098C,0.064*%
%ADD099R,0.05518X0.06306*%
%ADD104C,0.094*%
%ADD105C,0.104*%
%ADD106C,0.204*%
%ADD112C,0.059*%
%ADD113C,0.043*%
%ADD115R,0.01384X0.03746*%
%ADD116R,0.084X0.034*%
*
*
*
*
G04 PC Circuitry*
G04 Layer Name WES0007-02.pcb - circuitry*
%LPD*%
*
*
G04 PC Custom Flashes*
G04 Layer Name WES0007-02.pcb - flashes*
%LPD*%
*
*
G04 PC Circuitry*
G04 Layer Name WES0007-02.pcb - circuitry*
%LPD*%
*
G54D10*
G01X500031Y500000D02*
Y675374D01*
X661449*
Y500000*
X500031*
G54D29*
X516275Y617947D03*
Y614347D03*
G54D38*
X585687Y551189D03*
Y548689D03*
Y546189D03*
X583187Y551189D03*
Y546189D03*
X580687Y551189D03*
Y548689D03*
X583187D03*
X580687Y546189D03*
G54D98*
X650487Y506790D03*
X640487D03*
X630487D03*
X620487D03*
X610487D03*
X600487D03*
X590487D03*
X580487D03*
X570487D03*
X560487D03*
X550487D03*
X540487D03*
X530487D03*
X520487D03*
X510487D03*
G54D99*
X513819Y604462D03*
G54D104*
X580709Y655302D03*
G54D105*
X570709Y665302D03*
X590709D03*
Y645302D03*
X570709D03*
G54D106*
X517000Y660600D03*
X643900D03*
G54D112*
X643537Y578214D03*
X518037D03*
G54D113*
X643537Y521214D03*
X518037D03*
G54D115*
X516772Y598852D03*
X514803D03*
X512835D03*
X510866D03*
Y610072D03*
X512835D03*
X514803D03*
X516772D03*
G54D116*
X636537Y572214D03*
X650537D03*
X636537Y567214D03*
X650537D03*
X636537Y562214D03*
X650537D03*
X636537Y557214D03*
X650537D03*
X636537Y552214D03*
X650537D03*
X636537Y547214D03*
X650537D03*
X636537Y542214D03*
X650537D03*
X636537Y537214D03*
X650537D03*
X636537Y532214D03*
X650537D03*
X636537Y527214D03*
X650537D03*
X511037Y572214D03*
X525037D03*
X511037Y567214D03*
X525037D03*
X511037Y562214D03*
X525037D03*
X511037Y557214D03*
X525037D03*
X511037Y552214D03*
X525037D03*
X511037Y547214D03*
X525037D03*
X511037Y542214D03*
X525037D03*
X511037Y537214D03*
X525037D03*
X511037Y532214D03*
X525037D03*
X511037Y527214D03*
X525037D03*
X0Y0D02*
M02*
