*
*
G04 PADS 9.4.1 Build Number: 494907 generated Gerber (RS-274-X) file*
G04 PC Version=2.1*
*
%IN "WES0007-02.pcb"*%
*
%MOIN*%
*
%FSLAX35Y35*%
*
*
*
*
G04 PC Standard Apertures*
*
*
G04 Thermal Relief Aperture macro.*
%AMTER*
1,1,$1,0,0*
1,0,$1-$2,0,0*
21,0,$3,$4,0,0,45*
21,0,$3,$4,0,0,135*
%
*
*
G04 Annular Aperture macro.*
%AMANN*
1,1,$1,0,0*
1,0,$2,0,0*
%
*
*
G04 Odd Aperture macro.*
%AMODD*
1,1,$1,0,0*
1,0,$1-0.005,0,0*
%
*
*
G04 PC Custom Aperture Macros*
*
*
*
*
*
*
G04 PC Aperture Table*
*
%ADD010C,0.001*%
%ADD011C,0.005*%
%ADD012C,0.01*%
%ADD019C,0.006*%
%ADD032C,0.015*%
%ADD034C,0.007*%
%ADD057C,0.008*%
%ADD093C,0.004*%
*
*
*
*
G04 PC Circuitry*
G04 Layer Name WES0007-02.pcb - circuitry*
%LPD*%
*
*
G04 PC Custom Flashes*
G04 Layer Name WES0007-02.pcb - flashes*
%LPD*%
*
*
G04 PC Circuitry*
G04 Layer Name WES0007-02.pcb - circuitry*
%LPD*%
*
G54D10*
G01X500031Y500000D02*
Y675374D01*
X661449*
Y500000*
X500031*
G54D11*
X569569Y549564D02*
G75*
G03X569569I-1919J0D01*
G01X573533Y539194D02*
Y537319D01*
X573624Y536944*
X573806Y536694*
X574079Y536569*
X574261*
X574533Y536694*
X574715Y536944*
X574806Y537319*
Y539194*
X575715Y538569D02*
Y538694D01*
X575806Y538944*
X575897Y539069*
X576079Y539194*
X576442*
X576624Y539069*
X576715Y538944*
X576806Y538694*
Y538444*
X576715Y538194*
X576533Y537819*
X575624Y536569*
X576897*
X555600Y569400D02*
X570300D01*
X572000Y567700*
Y564600*
X572550Y565150*
X571400*
X571875Y564675*
G54D12*
X659237Y499790D02*
X502237D01*
Y511790*
X659237*
Y499790*
X576209Y667802D02*
X585209D01*
X568209Y659802D02*
Y650802D01*
X593209Y659802D02*
Y650802D01*
X576209Y642802D02*
X585209D01*
X587209Y655302D02*
G03X587209I-6500J0D01*
G01X527000Y660600D02*
G03X527000I-10000J0D01*
G01X653900D02*
G03X653900I-10000J0D01*
G01X593100Y663094D02*
Y658500D01*
Y663094D02*
X595464D01*
X593100Y660906D02*
X594555D01*
X593100Y658500D02*
X595464D01*
X599645Y663094D02*
X597100Y658500D01*
Y663094D02*
X599645D01*
X597100Y658500D02*
X599645D01*
X601282Y663094D02*
Y658500D01*
Y663094D02*
X602918D01*
X603464Y662875*
X603645Y662656*
X603827Y662219*
Y661781*
X603645Y661344*
X603464Y661125*
X602918Y660906*
X601282*
X602555D02*
X603827Y658500D01*
X607645Y661563D02*
Y658500D01*
Y660906D02*
X607282Y661344D01*
X606918Y661563*
X606918D02*
X606373D01*
X606373D02*
X606009Y661344D01*
X605645Y660906*
X605464Y660250*
Y659813*
X605464D02*
X605645Y659156D01*
X606009Y658719*
X606373Y658500*
X606918*
X607282Y658719*
X607645Y659156*
X611464Y663094D02*
Y658500D01*
Y660906D02*
X611100Y661344D01*
X610736Y661563*
X610736D02*
X610191D01*
X610191D02*
X609827Y661344D01*
X609464Y660906*
X609282Y660250*
Y659813*
X609282D02*
X609464Y659156D01*
X609827Y658719*
X610191Y658500*
X610736*
X611100Y658719*
X611464Y659156*
X613100Y663094D02*
X613282Y662875D01*
X613464Y663094*
X613282Y663313*
X613282D02*
X613100Y663094D01*
X613282Y661563D02*
Y658500D01*
X616009Y661563D02*
X615645Y661344D01*
X615282Y660906*
X615100Y660250*
Y659813*
X615100D02*
X615282Y659156D01*
X615645Y658719*
X616009Y658500*
X616555*
X616918Y658719*
X617282Y659156*
X617464Y659813*
X617464D02*
Y660250D01*
X617282Y660906*
X616918Y661344*
X616555Y661563*
X616555D02*
X616009D01*
X619100Y663094D02*
Y658500D01*
Y663094D02*
X620736D01*
X621282Y662875*
X621464Y662656*
X621645Y662219*
Y661563*
X621645D02*
X621464Y661125D01*
X621282Y660906*
X620736Y660688*
X620736D02*
X619100D01*
X623282Y663094D02*
Y658500D01*
Y663094D02*
X624918D01*
X625464Y662875*
X625645Y662656*
X625827Y662219*
Y661781*
X625645Y661344*
X625464Y661125*
X624918Y660906*
X623282*
X624555D02*
X625827Y658500D01*
X628555Y663094D02*
X628191Y662875D01*
X627827Y662438*
X627827D02*
X627645Y662000D01*
X627464Y661344*
Y660250*
X627645Y659594*
X627827Y659156*
X628191Y658719*
X628555Y658500*
X629282*
X629645Y658719*
X630009Y659156*
X630191Y659594*
X630373Y660250*
Y661344*
X630191Y662000*
X630009Y662438*
X630009D02*
X629645Y662875D01*
X629282Y663094*
X628555*
X658987Y511790D02*
Y508497D01*
X655694Y511790*
X658987*
X656288Y511196D02*
X658987D01*
X657188Y510296D02*
X658987D01*
X658088Y509396D02*
X658987D01*
G54D19*
X538033Y554726D02*
X537720Y554612D01*
X537408Y554385*
X537252Y554157*
Y553703*
X537408Y553476*
X537720Y553248*
X538033Y553135*
X538502Y553021*
X539283*
X539752Y553135*
X540064Y553248*
X540377Y553476*
X540533Y553703*
Y554157*
X540377Y554385*
X540064Y554612*
X539752Y554726*
X538033Y555862D02*
X537877D01*
X537564Y555976*
X537408Y556089*
X537252Y556316*
Y556771*
X537408Y556998*
X537564Y557112*
X537877Y557226*
X538189*
X538502Y557112*
X538970Y556885*
X540533Y555748*
Y557339*
X541979Y554683D02*
X541667Y554569D01*
X541354Y554342*
X541198Y554115*
Y553660*
X541354Y553433*
X541667Y553205*
X541667D02*
X541979Y553092D01*
X542448Y552978*
X543229*
X543698Y553092*
X544010Y553205*
X544010D02*
X544323Y553433D01*
X544479Y553660*
Y554115*
X544323Y554342*
X544010Y554569*
X543698Y554683*
X541198Y555933D02*
Y557183D01*
X542448Y556501*
Y556842*
X542604Y557069*
X542760Y557183*
X543229Y557296*
X543542*
X544010Y557183*
X544323Y556955*
X544323D02*
X544479Y556615D01*
Y556274*
X544323Y555933*
X544167Y555819*
X543854Y555705*
X590803Y539509D02*
X590575Y539353D01*
X590348Y539040*
X590234Y538728*
X590121Y538259*
Y537478*
X590234Y537009*
X590348Y536697*
X590575Y536384*
X590803Y536228*
X590803D02*
X591257D01*
X591484Y536384*
X591712Y536697*
X591825Y537009*
X591939Y537478*
Y538259*
X591825Y538728*
X591712Y539040*
X591484Y539353*
X591257Y539509*
X590803*
X591143Y536853D02*
X591825Y535915D01*
X592962Y538884D02*
X593189Y539040D01*
X593530Y539509*
Y536228*
X579403Y577846D02*
X579091Y577732D01*
X578778Y577505*
X578622Y577278*
Y576823*
X578778Y576596*
X579091Y576369*
X579403Y576255*
X579872Y576141*
X580653*
X581122Y576255*
X581434Y576369*
X581747Y576596*
X581903Y576823*
Y577278*
X581747Y577505*
X581434Y577732*
X581122Y577846*
X578622Y579550D02*
X578778Y579210D01*
X579247Y578982*
X580028Y578869*
X580497*
X581278Y578982*
X581747Y579210*
X581903Y579550*
Y579778*
X581747Y580119*
X581278Y580346*
X580497Y580460*
X580028*
X579247Y580346*
X578778Y580119*
X578622Y579778*
Y579550*
X566622Y573842D02*
X566509Y574155D01*
X566282Y574467*
X566054Y574623*
X565600*
X565372Y574467*
X565145Y574155*
X565032Y573842*
X564918Y573373*
Y572592*
X565032Y572123*
X565145Y571811*
X565372Y571498*
X565600Y571342*
X566054*
X566282Y571498*
X566509Y571811*
X566622Y572123*
X567645Y574623D02*
Y571342D01*
Y574623D02*
X568554Y571342D01*
X569463Y574623D02*
X568554Y571342D01*
X569463Y574623D02*
Y571342D01*
X563891Y595970D02*
X563778Y596283D01*
X563551Y596595*
X563323Y596751*
X562869*
X562641Y596595*
X562414Y596283*
X562301Y595970*
X562187Y595501*
Y594720*
X562301Y594251*
X562414Y593939*
X562641Y593626*
X562869Y593470*
X563323*
X563551Y593626*
X563778Y593939*
X563891Y594251*
X564914Y596751D02*
Y593470D01*
Y596751D02*
X565823Y593470D01*
X566732Y596751D02*
X565823Y593470D01*
X566732Y596751D02*
Y593470D01*
X567869Y595970D02*
Y596126D01*
X567982Y596439*
X568096Y596595*
X568323Y596751*
X568778*
X569005Y596595*
X569119Y596439*
X569232Y596126*
Y595814*
X569119Y595501*
X568891Y595033*
X567755Y593470*
X569346*
X545789Y554785D02*
X545476Y554671D01*
X545164Y554444*
X545008Y554217*
Y553762*
X545164Y553535*
X545476Y553308*
X545789Y553194*
X546258Y553081*
X547039*
X547508Y553194*
X547820Y553308*
X548133Y553535*
X548289Y553762*
Y554217*
X548133Y554444*
X547820Y554671*
X547508Y554785*
X545008Y556944D02*
X547195Y555808D01*
Y557512*
X545008Y556944D02*
X548289D01*
X562600Y563705D02*
X562288Y563591D01*
X562288D02*
X561975Y563364D01*
X561819Y563136*
Y562682*
X561975Y562455*
X562288Y562227*
X562288D02*
X562600Y562114D01*
X563069Y562000*
X563850*
X564319Y562114*
X564631Y562227*
X564944Y562455*
X565100Y562682*
Y563136*
X564944Y563364*
X564631Y563591*
X564319Y563705*
X562913Y566205D02*
X563381Y566091D01*
X563694Y565864*
X563850Y565523*
Y565409*
X563694Y565068*
X563381Y564841*
X562913Y564727*
X562913D02*
X562756D01*
X562288Y564841*
X562288D02*
X561975Y565068D01*
X561819Y565409*
Y565523*
X561975Y565864*
X562288Y566091*
X562288D02*
X562913Y566205D01*
X562913D02*
X563694D01*
X564475Y566091*
X564944Y565864*
X565100Y565523*
Y565295*
X564944Y564955*
X564631Y564841*
X658636Y518281D02*
Y515781D01*
X658523Y515313*
X658523D02*
X658409Y515156D01*
X658182Y515000*
X657955*
X657727Y515156*
X657614Y515313*
X657614D02*
X657500Y515781D01*
Y516094*
X659659Y517656D02*
X659886Y517813D01*
X659886D02*
X660227Y518281D01*
Y515000*
X564405Y584500D02*
X564291Y584813D01*
X564291D02*
X564064Y585125D01*
X563836Y585281*
X563382*
X563155Y585125*
X562927Y584813*
X562927D02*
X562814Y584500D01*
X562700Y584031*
Y583250*
X562814Y582781*
X562927Y582469*
X563155Y582156*
X563382Y582000*
X563836*
X564064Y582156*
X564291Y582469*
X564405Y582781*
X565427Y585281D02*
Y582000D01*
Y585281D02*
X566336Y582000D01*
X567245Y585281D02*
X566336Y582000D01*
X567245Y585281D02*
Y582000D01*
X568268Y584656D02*
X568495Y584813D01*
X568495D02*
X568836Y585281D01*
Y582000*
X591679Y570613D02*
X591565Y570926D01*
X591338Y571238*
X591111Y571394*
X590656*
X590429Y571238*
X590201Y570926*
X590088Y570613*
X589974Y570144*
Y569363*
X590088Y568894*
X590201Y568582*
X590429Y568269*
X590656Y568113*
X591111*
X591338Y568269*
X591565Y568582*
X591679Y568894*
X592701Y571394D02*
Y568113D01*
Y571394D02*
X593724D01*
X594065Y571238*
X594179Y571082*
X594292Y570769*
Y570457*
X594179Y570144*
X594065Y569988*
X593724Y569832*
X592701*
X593497D02*
X594292Y568113D01*
X595315Y570769D02*
X595542Y570926D01*
X595883Y571394*
Y568113*
X584175Y574559D02*
X583863Y574445D01*
X583550Y574218*
X583394Y573991*
Y573536*
X583550Y573309*
X583863Y573082*
X584175Y572968*
X584644Y572854*
X585425*
X585894Y572968*
X586207Y573082*
X586519Y573309*
X586675Y573536*
Y573991*
X586519Y574218*
X586207Y574445*
X585894Y574559*
X583394Y575582D02*
X586675D01*
X583394D02*
Y576604D01*
X583550Y576945*
X583707Y577059*
X584019Y577172*
X584332*
X584644Y577059*
X584800Y576945*
X584957Y576604*
Y575582*
Y576377D02*
X586675Y577172D01*
X584175Y578309D02*
X584019D01*
X583707Y578422*
X583550Y578536*
X583394Y578763*
Y579218*
X583550Y579445*
X583707Y579559*
X584019Y579672*
X584332*
X584644Y579559*
X585113Y579332*
X586675Y578195*
Y579786*
X579400Y598605D02*
X579087Y598491D01*
X579087D02*
X578775Y598264D01*
X578619Y598036*
Y597582*
X578775Y597355*
X579087Y597127*
X579087D02*
X579400Y597014D01*
X579869Y596900*
X580650*
X581119Y597014*
X581431Y597127*
X581744Y597355*
X581900Y597582*
Y598036*
X581744Y598264*
X581431Y598491*
X581119Y598605*
X579400Y601332D02*
X579087Y601218D01*
X579087D02*
X578775Y600991D01*
X578619Y600764*
Y600309*
X578775Y600082*
X579087Y599855*
X579087D02*
X579400Y599741D01*
X579869Y599627*
X580650*
X581119Y599741*
X581431Y599855*
X581744Y600082*
X581900Y600309*
Y600764*
X581744Y600991*
X581431Y601218*
X581119Y601332*
X579244Y602355D02*
X579087Y602582D01*
X579087D02*
X578619Y602923D01*
X581900*
X554526Y563423D02*
X554299Y563698D01*
X553958Y563836*
X553503*
X553163Y563698*
X552935Y563423*
Y563148*
X553049Y562873*
X553163Y562736*
X553390Y562598*
X554072Y562323*
X554299Y562186*
X554413Y562048*
X554526Y561773*
Y561361*
X554299Y561086*
X553958Y560948*
X553503*
X553163Y561086*
X552935Y561361*
X556685Y563836D02*
Y561636D01*
X556572Y561223*
X556458Y561086*
X556231Y560948*
X556003*
X555776Y561086*
X555663Y561223*
X555549Y561636*
Y561911*
X557708Y563286D02*
X557935Y563423D01*
X558276Y563836*
Y560948*
X573433Y564895D02*
X576715D01*
Y566259*
X573433Y567964D02*
X573590Y567623D01*
X574058Y567395*
X574840Y567282*
X575308*
X576090Y567395*
X576558Y567623*
X576715Y567964*
Y568191*
X576558Y568532*
X576090Y568759*
X575308Y568873*
X574840*
X574058Y568759*
X573590Y568532*
X573433Y568191*
Y567964*
X555800Y573581D02*
Y570300D01*
X557164*
X559891Y572800D02*
X559777Y573112D01*
X559777D02*
X559550Y573425D01*
X559323Y573581*
X558868*
X558641Y573425*
X558414Y573112*
X558414D02*
X558300Y572800D01*
X558186Y572331*
Y571550*
X558300Y571081*
X558414Y570769*
X558641Y570456*
X558868Y570300*
X559323*
X559550Y570456*
X559777Y570769*
X559891Y571081*
X561141Y573581D02*
X562391D01*
X561709Y572331*
X562050*
X562277Y572175*
X562391Y572019*
X562505Y571550*
Y571237*
X562505D02*
X562391Y570769D01*
X562164Y570456*
X561823Y570300*
X561482*
X561141Y570456*
X561027Y570612*
X561027D02*
X560914Y570925D01*
X569419Y575400D02*
X572700D01*
Y576764*
X569419Y577786D02*
X572700D01*
X569419D02*
X572700Y578695D01*
X569419Y579605D02*
X572700Y578695D01*
X569419Y579605D02*
X572700D01*
X570044Y580627D02*
X569888Y580855D01*
X569888D02*
X569419Y581195D01*
X572700*
X578419Y586200D02*
X581700D01*
Y587564*
X578419Y588586D02*
X581700D01*
X578419D02*
X581700Y589495D01*
X578419Y590405D02*
X581700Y589495D01*
X578419Y590405D02*
X581700D01*
X579200Y591541D02*
X579044D01*
X578731Y591655*
X578575Y591768*
X578419Y591995*
Y592450*
X578575Y592677*
X578731Y592791*
X579044Y592905*
X579356*
X579669Y592791*
X580137Y592564*
X580137D02*
X581700Y591427D01*
Y593018*
X590324Y562834D02*
Y559553D01*
X591688*
X592711Y562834D02*
Y559553D01*
Y562834D02*
X593733D01*
X594074Y562678*
X594188Y562521*
X594302Y562209*
Y561896*
X594188Y561584*
X594074Y561428*
X593733Y561271*
X592711*
X593506D02*
X594302Y559553D01*
X595324Y562209D02*
X595552Y562365D01*
X595893Y562834*
Y559553*
X587708Y572927D02*
X590989D01*
Y574290*
X587708Y575313D02*
X590989D01*
X587708D02*
Y576336D01*
X587864Y576677*
X588021Y576790*
X588333Y576904*
X588646*
X588958Y576790*
X589114Y576677*
X589271Y576336*
Y575313*
Y576108D02*
X590989Y576904D01*
X588489Y578040D02*
X588333D01*
X588021Y578154*
X587864Y578267*
X587864D02*
X587708Y578495D01*
Y578949*
X587864Y579177*
X588021Y579290*
X588333Y579404*
X588646*
X588958Y579290*
X589427Y579063*
X590989Y577927*
Y579517*
X599078Y563601D02*
Y560320D01*
X600442*
X601464Y563601D02*
Y560320D01*
Y563601D02*
X602942D01*
X601464Y562039D02*
X602373D01*
X605101Y563601D02*
X603964Y561414D01*
X605669*
X605101Y563601D02*
Y560320D01*
X610096Y558853D02*
Y555571D01*
X611459*
X612482Y558853D02*
Y555571D01*
Y558853D02*
X613959D01*
X612482Y557290D02*
X613391D01*
X615096Y558071D02*
Y558228D01*
X615209Y558540*
X615323Y558696*
X615550Y558853*
X616005*
X616232Y558696*
X616346Y558540*
X616459Y558228*
Y557915*
X616346Y557603*
X616119Y557134*
X614982Y555571*
X616573*
X610088Y554248D02*
Y550967D01*
X611451*
X612474Y554248D02*
Y550967D01*
Y554248D02*
X613951D01*
X612474Y552686D02*
X613383D01*
X615201Y554248D02*
X616451D01*
X615770Y552998*
X616110*
X616338Y552842*
X616451Y552686*
X616565Y552217*
Y551905*
X616451Y551436*
X616224Y551123*
X615883Y550967*
X615542*
X615201Y551123*
X615088Y551280*
X614974Y551592*
X629391Y520275D02*
X629164Y520550D01*
X628823Y520688*
X628823D02*
X628368D01*
X628368D02*
X628027Y520550D01*
X627800Y520275*
Y520000*
X627914Y519725*
X628027Y519588*
X628027D02*
X628255Y519450D01*
X628936Y519175*
X629164Y519038*
X629164D02*
X629277Y518900D01*
X629391Y518625*
Y518213*
X629391D02*
X629164Y517938D01*
X629164D02*
X628823Y517800D01*
X628368*
X628027Y517938*
X628027D02*
X627800Y518213D01*
X630414Y520688D02*
Y517800D01*
Y520688D02*
X631209D01*
X631209D02*
X631550Y520550D01*
X631777Y520275*
X631891Y520000*
X632005Y519588*
X632005D02*
Y518900D01*
X631891Y518488*
X631891D02*
X631777Y518213D01*
X631777D02*
X631550Y517938D01*
X631550D02*
X631209Y517800D01*
X630414*
X633027Y520688D02*
Y517800D01*
Y520688D02*
X634618Y517800D01*
Y520688D02*
Y517800D01*
X619505Y515000D02*
X619391Y515275D01*
X619164Y515550*
X618936Y515688*
X618936D02*
X618482D01*
X618482D02*
X618255Y515550D01*
X618027Y515275*
X617914Y515000*
X617800Y514588*
X617800D02*
Y513900D01*
X617914Y513488*
X617914D02*
X618027Y513213D01*
X618027D02*
X618255Y512938D01*
X618255D02*
X618482Y512800D01*
X618936*
X619164Y512938*
X619164D02*
X619391Y513213D01*
X619391D02*
X619505Y513488D01*
X619505D02*
Y513900D01*
X618936D02*
X619505D01*
X620527Y515688D02*
Y512800D01*
Y515688D02*
X621550D01*
X621550D02*
X621891Y515550D01*
X622005Y515413*
X622005D02*
X622118Y515138D01*
X622118D02*
Y514725D01*
X622005Y514450*
X621891Y514313*
X621891D02*
X621550Y514175D01*
X620527*
X623368Y515688D02*
X624618D01*
X624618D02*
X623936Y514588D01*
X623936D02*
X624277D01*
X624277D02*
X624505Y514450D01*
X624618Y514313*
X624618D02*
X624732Y513900D01*
Y513625*
X624618Y513213*
X624618D02*
X624391Y512938D01*
X624391D02*
X624050Y512800D01*
X623709*
X623368Y512938*
X623368D02*
X623255Y513075D01*
X623141Y513350*
X609505Y520000D02*
X609391Y520275D01*
X609164Y520550*
X608936Y520688*
X608936D02*
X608482D01*
X608482D02*
X608255Y520550D01*
X608027Y520275*
X607914Y520000*
X607800Y519588*
X607800D02*
Y518900D01*
X607914Y518488*
X607914D02*
X608027Y518213D01*
X608027D02*
X608255Y517938D01*
X608255D02*
X608482Y517800D01*
X608936*
X609164Y517938*
X609164D02*
X609391Y518213D01*
X609391D02*
X609505Y518488D01*
X609505D02*
Y518900D01*
X608936D02*
X609505D01*
X610527Y520688D02*
Y517800D01*
Y520688D02*
X611550D01*
X611550D02*
X611891Y520550D01*
X612005Y520413*
X612005D02*
X612118Y520138D01*
X612118D02*
Y519725D01*
X612005Y519450*
X611891Y519313*
X611891D02*
X611550Y519175D01*
X610527*
X613255Y520000D02*
Y520138D01*
X613255D02*
X613368Y520413D01*
X613368D02*
X613482Y520550D01*
X613709Y520688*
X613709D02*
X614164D01*
X614164D02*
X614391Y520550D01*
X614505Y520413*
X614505D02*
X614618Y520138D01*
X614618D02*
Y519863D01*
X614618D02*
X614505Y519588D01*
X614505D02*
X614277Y519175D01*
X613141Y517800*
X614732*
X597800Y515688D02*
Y512800D01*
Y515688D02*
X599391Y512800D01*
Y515688D02*
Y512800D01*
X602005Y515275D02*
X601777Y515550D01*
X601436Y515688*
X601436D02*
X600982D01*
X600982D02*
X600641Y515550D01*
X600414Y515275*
Y515000*
X600527Y514725*
X600641Y514588*
X600641D02*
X600868Y514450D01*
X601550Y514175*
X601777Y514038*
X601777D02*
X601891Y513900D01*
X602005Y513625*
Y513213*
X602005D02*
X601777Y512938D01*
X601777D02*
X601436Y512800D01*
X600982*
X600641Y512938*
X600641D02*
X600414Y513213D01*
X603027Y515688D02*
Y512800D01*
Y515688D02*
X604505D01*
X603027Y514313D02*
X603936D01*
X603027Y512800D02*
X604505D01*
X605527Y515688D02*
Y512800D01*
X606891*
X587800Y520688D02*
Y517800D01*
Y520688D02*
X588709Y517800D01*
X589618Y520688D02*
X588709Y517800D01*
X589618Y520688D02*
Y517800D01*
X591323Y520688D02*
X591095Y520550D01*
X590868Y520275*
X590755Y520000*
X590641Y519588*
X590641D02*
Y518900D01*
X590755Y518488*
X590755D02*
X590868Y518213D01*
X590868D02*
X591095Y517938D01*
X591095D02*
X591323Y517800D01*
X591777*
X592005Y517938*
X592005D02*
X592232Y518213D01*
X592232D02*
X592345Y518488D01*
X592345D02*
X592459Y518900D01*
Y519588*
X592459D02*
X592345Y520000D01*
X592232Y520275*
X592005Y520550*
X591777Y520688*
X591777D02*
X591323D01*
X595073Y520275D02*
X594845Y520550D01*
X594505Y520688*
X594505D02*
X594050D01*
X594050D02*
X593709Y520550D01*
X593482Y520275*
Y520000*
X593595Y519725*
X593709Y519588*
X593709D02*
X593936Y519450D01*
X594618Y519175*
X594845Y519038*
X594845D02*
X594959Y518900D01*
X595073Y518625*
Y518213*
X595073D02*
X594845Y517938D01*
X594845D02*
X594505Y517800D01*
X594050*
X593709Y517938*
X593709D02*
X593482Y518213D01*
X596095Y520688D02*
Y517800D01*
X577800Y515688D02*
Y512800D01*
Y515688D02*
X578709Y512800D01*
X579618Y515688D02*
X578709Y512800D01*
X579618Y515688D02*
Y512800D01*
X580641Y515688D02*
Y512800D01*
X583255Y515275D02*
X583027Y515550D01*
X582686Y515688*
X582686D02*
X582232D01*
X582232D02*
X581891Y515550D01*
X581664Y515275*
Y515000*
X581777Y514725*
X581891Y514588*
X581891D02*
X582118Y514450D01*
X582800Y514175*
X583027Y514038*
X583027D02*
X583141Y513900D01*
X583255Y513625*
Y513213*
X583255D02*
X583027Y512938D01*
X583027D02*
X582686Y512800D01*
X582232*
X581891Y512938*
X581891D02*
X581664Y513213D01*
X584959Y515688D02*
X584732Y515550D01*
X584505Y515275*
X584391Y515000*
X584277Y514588*
X584277D02*
Y513900D01*
X584391Y513488*
X584391D02*
X584505Y513213D01*
X584505D02*
X584732Y512938D01*
X584732D02*
X584959Y512800D01*
X585414*
X585641Y512938*
X585641D02*
X585868Y513213D01*
X585868D02*
X585982Y513488D01*
X585982D02*
X586095Y513900D01*
Y514588*
X586095D02*
X585982Y515000D01*
X585868Y515275*
X585641Y515550*
X585414Y515688*
X585414D02*
X584959D01*
X566891Y520275D02*
X566664Y520550D01*
X566323Y520688*
X566323D02*
X565868D01*
X565868D02*
X565527Y520550D01*
X565300Y520275*
Y520000*
X565414Y519725*
X565527Y519588*
X565527D02*
X565755Y519450D01*
X566436Y519175*
X566664Y519038*
X566664D02*
X566777Y518900D01*
X566891Y518625*
Y518213*
X566891D02*
X566664Y517938D01*
X566664D02*
X566323Y517800D01*
X565868*
X565527Y517938*
X565527D02*
X565300Y518213D01*
X569618Y520000D02*
X569505Y520275D01*
X569277Y520550*
X569050Y520688*
X569050D02*
X568595D01*
X568595D02*
X568368Y520550D01*
X568141Y520275*
X568027Y520000*
X567914Y519588*
X567914D02*
Y518900D01*
X568027Y518488*
X568027D02*
X568141Y518213D01*
X568141D02*
X568368Y517938D01*
X568368D02*
X568595Y517800D01*
X569050*
X569277Y517938*
X569277D02*
X569505Y518213D01*
X569505D02*
X569618Y518488D01*
X570641Y520688D02*
Y517800D01*
X572005*
X573027Y520688D02*
Y517800D01*
X574618Y520688D02*
X573027Y518763D01*
X573595Y519450D02*
X574618Y517800D01*
X557800Y515688D02*
Y512800D01*
Y515688D02*
X559391Y512800D01*
Y515688D02*
Y512800D01*
X560414Y515688D02*
Y512800D01*
X561436Y515688D02*
Y512800D01*
Y515688D02*
X562459D01*
X562459D02*
X562800Y515550D01*
X562914Y515413*
X562914D02*
X563027Y515138D01*
X563027D02*
Y514863D01*
X563027D02*
X562914Y514588D01*
X562914D02*
X562800Y514450D01*
X562459Y514313*
X562459D02*
X561436D01*
X562232D02*
X563027Y512800D01*
X564732Y515688D02*
X564505Y515550D01*
X564277Y515275*
X564164Y515000*
X564050Y514588*
X564050D02*
Y513900D01*
X564164Y513488*
X564164D02*
X564277Y513213D01*
X564277D02*
X564505Y512938D01*
X564505D02*
X564732Y512800D01*
X565186*
X565414Y512938*
X565414D02*
X565641Y513213D01*
X565641D02*
X565755Y513488D01*
X565755D02*
X565868Y513900D01*
Y514588*
X565868D02*
X565755Y515000D01*
X565641Y515275*
X565414Y515550*
X565186Y515688*
X565186D02*
X564732D01*
X565073Y513350D02*
X565755Y512525D01*
X549505Y520000D02*
X549391Y520275D01*
X549164Y520550*
X548936Y520688*
X548936D02*
X548482D01*
X548482D02*
X548255Y520550D01*
X548027Y520275*
X547914Y520000*
X547800Y519588*
X547800D02*
Y518900D01*
X547914Y518488*
X547914D02*
X548027Y518213D01*
X548027D02*
X548255Y517938D01*
X548255D02*
X548482Y517800D01*
X548936*
X549164Y517938*
X549164D02*
X549391Y518213D01*
X549391D02*
X549505Y518488D01*
X549505D02*
Y518900D01*
X548936D02*
X549505D01*
X550527Y520688D02*
Y517800D01*
Y520688D02*
X551550D01*
X551550D02*
X551891Y520550D01*
X552005Y520413*
X552005D02*
X552118Y520138D01*
X552118D02*
Y519725D01*
X552005Y519450*
X551891Y519313*
X551891D02*
X551550Y519175D01*
X550527*
X553141Y520138D02*
X553368Y520275D01*
X553709Y520688*
X553709D02*
Y517800D01*
X539505Y515000D02*
X539391Y515275D01*
X539164Y515550*
X538936Y515688*
X538936D02*
X538482D01*
X538482D02*
X538255Y515550D01*
X538027Y515275*
X537914Y515000*
X537800Y514588*
X537800D02*
Y513900D01*
X537914Y513488*
X537914D02*
X538027Y513213D01*
X538027D02*
X538255Y512938D01*
X538255D02*
X538482Y512800D01*
X538936*
X539164Y512938*
X539164D02*
X539391Y513213D01*
X539391D02*
X539505Y513488D01*
X539505D02*
Y513900D01*
X538936D02*
X539505D01*
X540527Y515688D02*
Y512800D01*
Y515688D02*
X541550D01*
X541550D02*
X541891Y515550D01*
X542005Y515413*
X542005D02*
X542118Y515138D01*
X542118D02*
Y514725D01*
X542005Y514450*
X541891Y514313*
X541891D02*
X541550Y514175D01*
X540527*
X543823Y515688D02*
X543482Y515550D01*
X543255Y515138*
X543255D02*
X543141Y514450D01*
Y514038*
X543141D02*
X543255Y513350D01*
X543482Y512938*
X543482D02*
X543823Y512800D01*
X544050*
X544391Y512938*
X544391D02*
X544618Y513350D01*
X544732Y514038*
X544732D02*
Y514450D01*
X544618Y515138*
X544618D02*
X544391Y515550D01*
X544050Y515688*
X544050D02*
X543823D01*
X525300Y520688D02*
Y517800D01*
Y520688D02*
X526777D01*
X525300Y519313D02*
X526209D01*
X525300Y517800D02*
X526777D01*
X529391Y520275D02*
X529164Y520550D01*
X528823Y520688*
X528823D02*
X528368D01*
X528368D02*
X528027Y520550D01*
X527800Y520275*
Y520000*
X527914Y519725*
X528027Y519588*
X528027D02*
X528255Y519450D01*
X528936Y519175*
X529164Y519038*
X529164D02*
X529277Y518900D01*
X529391Y518625*
Y518213*
X529391D02*
X529164Y517938D01*
X529164D02*
X528823Y517800D01*
X528368*
X528027Y517938*
X528027D02*
X527800Y518213D01*
X530414Y520688D02*
Y517800D01*
Y520688D02*
X531209D01*
X531209D02*
X531550Y520550D01*
X531777Y520275*
X531891Y520000*
X532005Y519588*
X532005D02*
Y518900D01*
X531891Y518488*
X531891D02*
X531777Y518213D01*
X531777D02*
X531550Y517938D01*
X531550D02*
X531209Y517800D01*
X530414*
X533936Y520688D02*
X533027Y517800D01*
X533936Y520688D02*
X534845Y517800D01*
X533368Y518763D02*
X534505D01*
X517800Y515688D02*
Y512800D01*
Y515688D02*
X519277D01*
X517800Y514313D02*
X518709D01*
X517800Y512800D02*
X519277D01*
X521891Y515275D02*
X521664Y515550D01*
X521323Y515688*
X521323D02*
X520868D01*
X520868D02*
X520527Y515550D01*
X520300Y515275*
Y515000*
X520414Y514725*
X520527Y514588*
X520527D02*
X520755Y514450D01*
X521436Y514175*
X521664Y514038*
X521664D02*
X521777Y513900D01*
X521891Y513625*
Y513213*
X521891D02*
X521664Y512938D01*
X521664D02*
X521323Y512800D01*
X520868*
X520527Y512938*
X520527D02*
X520300Y513213D01*
X524618Y515000D02*
X524505Y515275D01*
X524277Y515550*
X524050Y515688*
X524050D02*
X523595D01*
X523595D02*
X523368Y515550D01*
X523141Y515275*
X523027Y515000*
X522914Y514588*
X522914D02*
Y513900D01*
X523027Y513488*
X523027D02*
X523141Y513213D01*
X523141D02*
X523368Y512938D01*
X523368D02*
X523595Y512800D01*
X524050*
X524277Y512938*
X524277D02*
X524505Y513213D01*
X524505D02*
X524618Y513488D01*
X525641Y515688D02*
Y512800D01*
X527005*
X507800Y520688D02*
X508709Y517800D01*
X509618Y520688D02*
X508709Y517800D01*
X510641Y520688D02*
Y517800D01*
Y520688D02*
X511664D01*
X511664D02*
X512005Y520550D01*
X512118Y520413*
X512118D02*
X512232Y520138D01*
X512232D02*
Y519725D01*
X512118Y519450*
X512005Y519313*
X512005D02*
X511664Y519175D01*
X510641*
X513255Y520688D02*
Y517800D01*
Y520688D02*
X514277D01*
X514277D02*
X514618Y520550D01*
X514732Y520413*
X514732D02*
X514845Y520138D01*
X514845D02*
Y519725D01*
X514732Y519450*
X514618Y519313*
X514618D02*
X514277Y519175D01*
X513255*
X639505Y515000D02*
X639391Y515275D01*
X639164Y515550*
X638936Y515688*
X638936D02*
X638482D01*
X638482D02*
X638255Y515550D01*
X638027Y515275*
X637914Y515000*
X637800Y514588*
X637800D02*
Y513900D01*
X637914Y513488*
X637914D02*
X638027Y513213D01*
X638027D02*
X638255Y512938D01*
X638255D02*
X638482Y512800D01*
X638936*
X639164Y512938*
X639164D02*
X639391Y513213D01*
X639391D02*
X639505Y513488D01*
X639505D02*
Y513900D01*
X638936D02*
X639505D01*
X640527Y515688D02*
Y512800D01*
Y515688D02*
X642118Y512800D01*
Y515688D02*
Y512800D01*
X643141Y515688D02*
Y512800D01*
Y515688D02*
X643936D01*
X643936D02*
X644277Y515550D01*
X644505Y515275*
X644618Y515000*
X644732Y514588*
X644732D02*
Y513900D01*
X644618Y513488*
X644618D02*
X644505Y513213D01*
X644505D02*
X644277Y512938D01*
X644277D02*
X643936Y512800D01*
X643141*
X647800Y520688D02*
X648709Y517800D01*
X649618Y520688D02*
X648709Y517800D01*
X650641Y520688D02*
Y517800D01*
Y520688D02*
X651436D01*
X651436D02*
X651777Y520550D01*
X652005Y520275*
X652118Y520000*
X652232Y519588*
X652232D02*
Y518900D01*
X652118Y518488*
X652118D02*
X652005Y518213D01*
X652005D02*
X651777Y517938D01*
X651777D02*
X651436Y517800D01*
X650641*
X653255Y520688D02*
Y517800D01*
Y520688D02*
X654050D01*
X654050D02*
X654391Y520550D01*
X654618Y520275*
X654732Y520000*
X654845Y519588*
X654845D02*
Y518900D01*
X654732Y518488*
X654732D02*
X654618Y518213D01*
X654618D02*
X654391Y517938D01*
X654391D02*
X654050Y517800D01*
X653255*
G54D32*
X592437Y557189D02*
G03X592437I-750J0D01*
G54D34*
G01X565124Y556318D02*
Y558418D01*
X561324*
Y556318*
X565124Y553318D02*
Y551218D01*
X561324*
Y553318*
X568907Y556318D02*
Y558418D01*
X565107*
Y556318*
X568907Y553318D02*
Y551218D01*
X565107*
Y553318*
X603756Y544106D02*
Y542706D01*
X595756Y544106D02*
Y542706D01*
X599956Y548306D02*
X599556D01*
X599956Y538506D02*
X599556D01*
X581281Y572608D02*
Y574708D01*
X577481*
Y572608*
X581281Y569608D02*
Y567508D01*
X577481*
Y569608*
X572436Y574808D02*
X570336D01*
Y571008*
X572436*
X575436Y574808D02*
X577536D01*
Y571008*
X575436*
X572436Y596708D02*
X570336D01*
Y592908*
X572436*
X575436Y596708D02*
X577536D01*
Y592908*
X575436*
X554715Y544015D02*
Y541815D01*
X560515*
Y544015*
X554715Y552015D02*
Y554215D01*
X560515*
Y552015*
X572787Y556321D02*
Y558421D01*
X568987*
Y556321*
X572787Y553321D02*
Y551221D01*
X568987*
Y553321*
X570299Y565407D02*
Y567507D01*
X566499*
Y565407*
X570299Y562407D02*
Y560307D01*
X566499*
Y562407*
X572436Y585708D02*
X570336D01*
Y581908*
X572436*
X575436Y585708D02*
X577536D01*
Y581908*
X575436*
X594481Y563750D02*
X596581D01*
Y567550*
X594481*
X591481Y563750D02*
X589381D01*
Y567550*
X591481*
X585581Y568950D02*
Y571050D01*
X581781*
Y568950*
X585581Y565950D02*
Y563850D01*
X581781*
Y565950*
X577600Y601700D02*
Y603800D01*
X573800*
Y601700*
X577600Y598700D02*
Y596600D01*
X573800*
Y598700*
X581281Y565450D02*
Y567550D01*
X577481*
Y565450*
X581281Y562450D02*
Y560350D01*
X577481*
Y562450*
X575336Y560208D02*
X577436D01*
Y564008*
X575336*
X572336Y560208D02*
X570236D01*
Y564008*
X572336*
X577650Y579864D02*
Y581964D01*
X573850*
Y579864*
X577650Y576864D02*
Y574764D01*
X573850*
Y576864*
X577636Y590808D02*
Y592908D01*
X573836*
Y590808*
X577636Y587808D02*
Y585708D01*
X573836*
Y587808*
X583981Y563850D02*
X581881D01*
Y560050*
X583981*
X586981Y563850D02*
X589081D01*
Y560050*
X586981*
X589381Y568950D02*
Y571050D01*
X585581*
Y568950*
X589381Y565950D02*
Y563850D01*
X585581*
Y565950*
X575487Y554589D02*
Y556389D01*
X577287D02*
X575487D01*
X590787Y540989D02*
X588987D01*
X590887D02*
Y542789D01*
X577287Y540989D02*
X575487D01*
Y542789*
X590787Y556389D02*
X588987D01*
X590887Y554489D02*
Y556289D01*
X595100Y559300D02*
X593000D01*
Y555500*
X595100*
X598100Y559300D02*
X600200D01*
Y555500*
X598100*
X602300Y558600D02*
X600200D01*
Y554800*
X602300*
X605300Y558600D02*
X607400D01*
Y554800*
X605300*
X600000D02*
X597900D01*
Y551000*
X600000*
X603000Y554800D02*
X605100D01*
Y551000*
X603000*
X550900Y605000D02*
X608400D01*
Y535142*
X550900*
Y605000*
G54D57*
X578977Y639860D02*
Y635792D01*
X577863Y639860D02*
X580091D01*
X581522D02*
X583750Y635792D01*
Y639860D02*
X581522Y635792D01*
G54D93*
X553462Y548441D02*
X553371Y548691D01*
X553189Y548941*
X553007Y549066*
X552644*
X552462Y548941*
X552280Y548691*
X552189Y548441*
X552098Y548066*
Y547441*
X552189Y547066*
X552280Y546816*
X552462Y546566*
X552644Y546441*
X553007*
X553189Y546566*
X553371Y546816*
X553462Y547066*
X554280Y548566D02*
X554462Y548691D01*
X554735Y549066*
Y546441*
X552860Y538978D02*
Y536353D01*
X552224Y538978D02*
X553497D01*
X554315D02*
X555588Y536353D01*
Y538978D02*
X554315Y536353D01*
X556406Y538978D02*
Y536353D01*
Y538978D02*
X557224D01*
X557497Y538853*
X557588Y538728*
X557679Y538478*
Y538228*
X557588Y537978*
X557497Y537853*
X557224Y537728*
X556406*
X557042D02*
X557679Y536353D01*
X559224Y538978D02*
X558497Y536353D01*
X559224Y538978D02*
X559951Y536353D01*
X558769Y537228D02*
X559679D01*
X560769Y538978D02*
Y536353D01*
Y538978D02*
X561497Y536353D01*
X562224Y538978D02*
X561497Y536353D01*
X562224Y538978D02*
Y536353D01*
X563042Y538978D02*
Y536353D01*
Y538978D02*
X563860D01*
X564133Y538853*
X564224Y538728*
X564315Y538478*
Y538103*
X564224Y537853*
X564133Y537728*
X563860Y537603*
X563042*
X561890Y539424D02*
X561840Y539374D01*
Y548374*
X562840Y549374*
X564840*
G74*
X0Y0D02*
M02*
