*
*
G04 PADS 9.4.1 Build Number: 494907 generated Gerber (RS-274-X) file*
G04 PC Version=2.1*
*
%IN "WES0007-02.pcb"*%
*
%MOIN*%
*
%FSLAX35Y35*%
*
*
*
*
G04 PC Standard Apertures*
*
*
G04 Thermal Relief Aperture macro.*
%AMTER*
1,1,$1,0,0*
1,0,$1-$2,0,0*
21,0,$3,$4,0,0,45*
21,0,$3,$4,0,0,135*
%
*
*
G04 Annular Aperture macro.*
%AMANN*
1,1,$1,0,0*
1,0,$2,0,0*
%
*
*
G04 Odd Aperture macro.*
%AMODD*
1,1,$1,0,0*
1,0,$1-0.005,0,0*
%
*
*
G04 PC Custom Aperture Macros*
*
*
*
*
*
*
G04 PC Aperture Table*
*
%ADD010C,0.001*%
%ADD012C,0.01*%
%ADD021C,0.02*%
%ADD054R,0.016X0.016*%
%ADD117R,0.034X0.038*%
%ADD118R,0.036X0.036*%
%ADD122R,0.008X0.036*%
%ADD123R,0.036X0.008*%
%ADD138R,0.13655X0.03537*%
%ADD139R,0.12356X0.03537*%
%ADD140R,0.03537X0.13655*%
%ADD141R,0.03537X0.12356*%
%ADD142R,0.03537X0.14561*%
%ADD143R,0.14561X0.03537*%
*
*
*
*
G04 PC Circuitry*
G04 Layer Name WES0007-02.pcb - circuitry*
%LPD*%
*
*
G04 PC Custom Flashes*
G04 Layer Name WES0007-02.pcb - flashes*
%LPD*%
*
*
G04 PC Circuitry*
G04 Layer Name WES0007-02.pcb - circuitry*
%LPD*%
*
G54D10*
G01X500031Y500000D02*
Y675374D01*
X661449*
Y500000*
X500031*
G54D12*
X580687Y551189D02*
Y546189D01*
X585687*
Y550482*
X584980Y551189*
X580687*
Y549788D02*
X585687D01*
X580687Y548888D02*
X585687D01*
X580687Y547988D02*
X585687D01*
X580687Y547088D02*
X585687D01*
X580687Y550688D02*
X585481D01*
G54D21*
X567650Y549564D03*
G54D54*
X563224Y556618D03*
Y553018D03*
X567007Y556618D03*
Y553018D03*
X579381Y572908D03*
Y569308D03*
X572136Y572908D03*
X575736D03*
X572136Y594808D03*
X575736D03*
X570887Y556621D03*
Y553021D03*
X568399Y565707D03*
Y562107D03*
X572136Y583808D03*
X575736D03*
X594781Y565650D03*
X591181D03*
X583681Y569250D03*
Y565650D03*
X575700Y602000D03*
Y598400D03*
X579381Y565750D03*
Y562150D03*
X575636Y562108D03*
X572036D03*
X575750Y580164D03*
Y576564D03*
X575736Y591108D03*
Y587508D03*
X583681Y561950D03*
X587281D03*
X587481Y569250D03*
Y565650D03*
X594800Y557400D03*
X598400D03*
X602000Y556700D03*
X605600D03*
X599700Y552900D03*
X603300D03*
G54D117*
X596956Y547006D03*
Y539806D03*
X602556D03*
Y547006D03*
G54D118*
X557615Y544615D03*
Y551415D03*
G54D122*
X587187Y556989D03*
X585187D03*
X583187D03*
X581187D03*
X579187D03*
Y540389D03*
X581187D03*
X583187D03*
X585187D03*
X587187D03*
G54D123*
X574887Y552689D03*
Y550689D03*
Y548689D03*
Y546689D03*
Y544689D03*
X591487D03*
Y546689D03*
Y548689D03*
Y550689D03*
Y552689D03*
G54D138*
X533978Y525733D03*
X626261Y628134D03*
G54D139*
X626911Y525733D03*
X533328Y628134D03*
G54D140*
X631320Y530792D03*
X528919Y623075D03*
G54D141*
X631320Y623725D03*
X528919Y530142D03*
G54D142*
Y552662D03*
Y576284D03*
Y599906D03*
X631320Y601205D03*
Y577583D03*
Y553961D03*
G54D143*
X555848Y628134D03*
X579470D03*
X603092D03*
X604391Y525733D03*
X580769D03*
X557147D03*
X0Y0D02*
M02*
