%
T1C.012F095S3
X058069Y055119
X058069Y054869
X058069Y054619
X058319Y055119
X058319Y054619
X058319Y054869
X058569Y054869
X058569Y055119
X058569Y054619
T2C.016F095S3
X0505Y05038
X05057Y052221
X05057Y0513
X051544Y051037
X05155Y05038
X051764Y052677
X052544Y051037
X05255Y05038
X05255Y0521
X05355Y05038
X053564Y051037
X054304Y051897
X054324Y052857
X05455Y05038
X054554Y051037
X055104Y051907
X0554Y05286
X055544Y051037
X05555Y05038
X055684Y051907
X05609Y05286
X056334Y051907
X05655Y05038
X057474Y051897
X057544Y051037
X05755Y05038
X058174Y051897
X05855Y05038
X058884Y051897
X059534Y051037
X05955Y05038
X05987Y0519
X060444Y051897
X060534Y051037
X06055Y05038
X06101Y05191
X061534Y051037
X06155Y05038
X06175Y05244
X061884Y051907
X062544Y051037
X06255Y05038
X063324Y051907
X06356Y05038
X06436Y052711
X06455Y05039
X06548Y051891
X06559Y052391
X0656Y05125
X0656Y05038
X0657Y05325
X0657Y05425
X0657Y05525
X06448Y05484
X06448Y05439
X06436Y053221
X06431Y054
X06271Y0545
X06269Y05337
X06269Y05377
X06263Y05531
X06263Y0549
X06246Y05303
X06181Y05323
X06181Y05363
X06167Y05429
X06165Y05471
X061084Y053177
X060914Y053547
X060714Y055257
X060694Y054827
X0605Y053311
X06027Y05495
X060044Y053487
X05963Y05332
X059264Y053977
X05921Y05332
X05879Y05332
X05848Y05302
X05824Y05338
X05812Y05302
X057834Y053317
X057424Y053317
X057014Y053317
X05681Y054
X056604Y053317
X05624Y05446
X056144Y053627
X05576Y053981
X05528Y055141
X05525Y054451
X05495Y05369
X05425Y054171
X054194Y054707
X054194Y053507
X05379Y055141
X05379Y05309
X053374Y054017
X053374Y053307
X05334Y05502
X051804Y053607
X051804Y053197
X0518Y05472
X051794Y054057
X05045Y05425
X05045Y05325
X05045Y05525
X05045Y05625
X05045Y05725
X051784Y057117
X0518Y05545
X051804Y056237
X053314Y056547
X05333Y05755
X05334Y055811
X05406Y055831
X054314Y056547
X054314Y057547
X054614Y055887
X055054Y056147
X05516Y055761
X055314Y057547
X055444Y056581
X055834Y056951
X05604Y05586
X056154Y056597
X056234Y057047
X056314Y057547
X05651Y055861
X056624Y056931
X05685Y05727
X0569Y055861
X05712Y05764
X05719Y05696
X05719Y05658
X05738Y055761
X05813Y0578
X05873Y05741
X05911Y05558
X05923Y05615
X059314Y057547
X05947Y05693
X05968Y05616
X05982Y05654
X060314Y057547
X06033Y0565
X06071Y05591
X06109Y05663
X061314Y057547
X06165Y05549
X061834Y056827
X06192Y05581
X062314Y057547
X06232Y05592
X06234Y0569
X06242Y05632
X06268Y05572
X0638Y057661
X064354Y057217
X064374Y056137
X064374Y056557
X06438Y055721
X0657Y05625
X0657Y05725
X065314Y058547
X065314Y059547
X064314Y058547
X064314Y059547
X06314Y05893
X062314Y059547
X062314Y058547
X061314Y058547
X061314Y059547
X060314Y059547
X060314Y058547
X059314Y059547
X059314Y058547
X05886Y05809
X05883Y05903
X05815Y06012
X05812Y05868
X05812Y05826
X0581Y05968
X0581Y05915
X05711Y05873
X05711Y05913
X0571Y05988
X0571Y05803
X05688Y05949
X05688Y05838
X056314Y058547
X056314Y059551
X055314Y059547
X055314Y058547
X054314Y059547
X054314Y058547
X05333Y05955
X05332Y05855
X05289Y05893
X051924Y058417
X051084Y059517
X051044Y058817
X05056Y0584
X05056Y05955
X05055Y06072
X05082Y061151
X05087Y061921
X05116Y061451
X051314Y062547
X05212Y061581
X05225Y062491
X05288Y06122
X05333Y06055
X05333Y06154
X05336Y06234
X054314Y060547
X054314Y061547
X05433Y06238
X05443Y06284
X055314Y060547
X055314Y061547
X05539Y06237
X05635Y06056
X05637Y06235
X05637Y06152
X05678Y06284
X05713Y06045
X05744Y0609
X05752Y06157
X05752Y06232
X05806Y06077
X05859Y06075
X05859Y06156
X05859Y06234
X05915Y0628
X059314Y060547
X05941Y06154
X05943Y06235
X0603Y06236
X060314Y061547
X060314Y060547
X06131Y06239
X061314Y060547
X061314Y061547
X06152Y06281
X06231Y06236
X062314Y060547
X062314Y061547
X06312Y06124
X064314Y062547
X064314Y061547
X064314Y060547
X065314Y060547
X065314Y061547
X065314Y062547
X065314Y064547
X065314Y063547
X064314Y063547
X064314Y064547
X063314Y064547
X063314Y063547
X062314Y064547
X062314Y063547
X061314Y064547
X061314Y063547
X060314Y064547
X060314Y063547
X059314Y063547
X0586Y06355
X05755Y06355
X05616Y06457
X056064Y063547
X055276Y064567
X055214Y063547
X054314Y063547
X054314Y064547
X053314Y064547
X053314Y063547
X052314Y063547
X052314Y064547
X051314Y064547
X051314Y063547
X053314Y066547
X053314Y065547
X054314Y066547
X054314Y065547
X055314Y065547
X05533Y06657
X05631Y06555
X059314Y065547
X060314Y065547
X060314Y066547
X061314Y065547
X061314Y066547
X062314Y066547
X062314Y065547
T3C.01969F095S3
X051382Y060446
T4C.035F197S55
X051049Y050679
X052049Y050679
X053049Y050679
X054049Y050679
X055049Y050679
X056049Y050679
X057049Y050679
X058049Y050679
X059049Y050679
X060049Y050679
X061049Y050679
X062049Y050679
X063049Y050679
X064049Y050679
X065049Y050679
T5C.039F197S55
X051804Y052121
X064354Y052121
T6C.055F107S55
X058071Y06553
T7C.055F107S55
X051804Y057821
X064354Y057821
T8C.06F089S55
X057071Y06453
X059071Y06453
X059071Y06653
X057071Y06653
T9C.2F0S0
X0517Y06606
X06439Y06606
M30
