*
*
G04 PADS 9.4.1 Build Number: 494907 generated Gerber (RS-274-X) file*
G04 PC Version=2.1*
*
%IN "WES0007-02.pcb"*%
*
%MOIN*%
*
%FSLAX35Y35*%
*
*
*
*
G04 PC Standard Apertures*
*
*
G04 Thermal Relief Aperture macro.*
%AMTER*
1,1,$1,0,0*
1,0,$1-$2,0,0*
21,0,$3,$4,0,0,45*
21,0,$3,$4,0,0,135*
%
*
*
G04 Annular Aperture macro.*
%AMANN*
1,1,$1,0,0*
1,0,$2,0,0*
%
*
*
G04 Odd Aperture macro.*
%AMODD*
1,1,$1,0,0*
1,0,$1-0.005,0,0*
%
*
*
G04 PC Custom Aperture Macros*
*
*
*
*
*
*
G04 PC Aperture Table*
*
%ADD010C,0.001*%
%ADD011C,0.005*%
%ADD012C,0.01*%
%ADD019C,0.006*%
%ADD020C,0.012*%
%ADD021C,0.02*%
%ADD034C,0.007*%
%ADD070C,0.002*%
%ADD093C,0.004*%
%ADD094C,0.00787*%
%ADD095C,0.01181*%
%ADD096C,0.003*%
*
*
*
*
G04 PC Circuitry*
G04 Layer Name WES0007-02.pcb - circuitry*
%LPD*%
*
*
G04 PC Custom Flashes*
G04 Layer Name WES0007-02.pcb - flashes*
%LPD*%
*
*
G04 PC Circuitry*
G04 Layer Name WES0007-02.pcb - circuitry*
%LPD*%
*
G54D10*
G01X500031Y500000D02*
Y675374D01*
X661449*
Y500000*
X500031*
G54D11*
X628809Y557213D02*
X629036Y557525D01*
X629377Y557681*
X629832*
X630173Y557525*
X630400Y557213*
X630400D02*
Y556900D01*
X630286Y556588*
X630286D02*
X630173Y556431D01*
X629945Y556275*
X629264Y555963*
X629264D02*
X629036Y555806D01*
X628923Y555650*
X628809Y555338*
X628809D02*
Y554869D01*
X629036Y554556*
X629377Y554400*
X629832*
X630173Y554556*
X630400Y554869*
X627786Y557056D02*
X627559Y557213D01*
X627559D02*
X627218Y557681D01*
Y554400*
X557900Y636050D02*
G75*
G03X557900I-2750J0D01*
G01X555900Y637681D02*
Y634400D01*
Y637681D02*
X554877D01*
X554536Y637525*
X554423Y637369*
X554309Y637056*
Y636744*
X554423Y636431*
X554536Y636275*
X554877Y636119*
X555900*
X555105D02*
X554309Y634400D01*
G54D12*
X509882Y607612D02*
Y601312D01*
X517756Y607612D02*
Y601312D01*
X649537Y574714D02*
Y575714D01*
X646737*
Y580814*
X640337*
Y575714*
X635337*
Y574714*
X649537Y524714D02*
Y523714D01*
X646737*
Y518614*
X640337*
Y523714*
X637537*
Y524714*
X524037Y574714D02*
Y575714D01*
X521237*
Y580814*
X514837*
Y575714*
X509837*
Y574714*
X524037Y524714D02*
Y523714D01*
X521237*
Y518614*
X514837*
Y523714*
X512037*
Y524714*
X649496Y585968D02*
Y581374D01*
Y585968D02*
X648064D01*
X647587Y585749*
X647428Y585530*
X647269Y585093*
Y584655*
X647428Y584218*
X647587Y583999*
X648064Y583780*
X649496*
X648382D02*
X647269Y581374D01*
X645837Y585968D02*
Y581374D01*
Y585968D02*
X643769D01*
X645837Y583780D02*
X644564D01*
X642337Y585968D02*
Y581374D01*
Y585968D02*
X640905D01*
X640428Y585749*
X640269Y585530*
X640110Y585093*
Y584437*
X640110D02*
X640269Y583999D01*
X640428Y583780*
X640905Y583562*
X640905D02*
X642337D01*
X638678Y585093D02*
X638360Y585312D01*
X638360D02*
X637882Y585968D01*
Y581374*
X524523Y585968D02*
Y581374D01*
Y585968D02*
X523091D01*
X522614Y585749*
X522455Y585530*
X522296Y585093*
Y584655*
X522455Y584218*
X522614Y583999*
X523091Y583780*
X524523*
X523409D02*
X522296Y581374D01*
X520864Y585968D02*
Y581374D01*
Y585968D02*
X518796D01*
X520864Y583780D02*
X519591D01*
X517364Y585968D02*
Y581374D01*
Y585968D02*
X515932D01*
X515455Y585749*
X515296Y585530*
X515137Y585093*
Y584437*
X515137D02*
X515296Y583999D01*
X515455Y583780*
X515932Y583562*
X515932D02*
X517364D01*
X513546Y584874D02*
Y585093D01*
X513387Y585530*
X513228Y585749*
X512909Y585968*
X512273*
X511955Y585749*
X511796Y585530*
X511637Y585093*
Y584655*
X511796Y584218*
X512114Y583562*
X512114D02*
X513705Y581374D01*
X511478*
X549600Y525000D02*
G03X549600I-400J0D01*
G01X551100D02*
G03X551100I-1800J0D01*
G01X563800Y543600D02*
X543100Y522100D01*
X563500Y522000D02*
X542400Y543500D01*
X559300Y539800D02*
X546200D01*
X558000Y539700D02*
X556500Y522900D01*
X556400D02*
X555600D01*
Y524300*
X551000*
X547600Y539700D02*
X548700Y526900D01*
X547500Y536900D02*
X546100D01*
Y538800*
X559100Y540700D02*
X546400D01*
X547800Y541600*
X549200Y542100*
X551000Y542500*
X553000Y542700*
X554700Y542600*
X556300Y542200*
X557700Y541600*
X558700Y540900*
X553800Y542500D02*
Y541700D01*
X551300*
X551200Y542500*
X553800Y536300D02*
X549900D01*
Y535500*
X553800Y535600*
Y536300*
X609693Y614203D02*
G03X606593Y614002I-1504J-804D01*
G01X609201Y612701D02*
G03X609693Y614203I-657J1047D01*
G01X609200Y612700D02*
X607627Y611924D01*
G03X606700Y610900I733J-1596*
G01Y610901D02*
G03X607700Y609200I1187J-447D01*
G01X607699D02*
G03X609398Y609499I601J1567D01*
G01X609400Y609500D02*
X609800Y610000D01*
X604700Y615100D02*
Y609100D01*
X602600Y615100D02*
Y609100D01*
X599800*
X597900Y615100D02*
Y609100D01*
X595700Y613600D02*
G03X592400I-1650J-52D01*
G01X595700D02*
Y610700D01*
X592400D02*
G03X595700I1650J43D01*
G01X589287Y609271D02*
G03X589387Y614970I-3240J2907D01*
X587799Y615000I-818J-1278*
G01X587800D02*
G03X587901Y609199I3075J-2848D01*
G01X587899Y609200D02*
G03X589201Y609217I627J1852D01*
G01X584700Y609100D02*
Y615200D01*
X581500Y609100*
Y615200*
X571500Y609100D02*
X574200D01*
Y615200*
X569500Y609100D02*
X567700Y615200D01*
X565800Y609100*
X568700Y611200D02*
X566700D01*
X563800Y609100D02*
Y615100D01*
X561900*
G03X562100Y612200I193J-1444*
G01X561679Y612089*
G03X561979Y609089I340J-1481*
G01X563800Y609100*
X563700Y612200D02*
X562300D01*
X558393Y614203D02*
G03X555293Y614002I-1504J-804D01*
G01X557900Y612700D02*
G03X558393Y614204I-658J1048D01*
G01X557900Y612700D02*
X556327Y611924D01*
G03X555400Y610899I735J-1597*
G01Y610901D02*
G03X556400Y609200I1187J-447D01*
G01X556399D02*
G03X558098Y609499I601J1567D01*
G01X558100Y609500D02*
X558500Y610000D01*
G54D19*
X521040Y592262D02*
Y589374D01*
Y592262D02*
X520017D01*
X520017D02*
X519676Y592124D01*
X519563Y591987*
X519563D02*
X519449Y591712D01*
X519449D02*
Y591437D01*
X519449D02*
X519563Y591162D01*
X519563D02*
X519676Y591024D01*
X520017Y590887*
X520017D02*
X521040D01*
X520245D02*
X519449Y589374D01*
X518426Y592262D02*
Y589374D01*
Y592262D02*
X516949D01*
X518426Y590887D02*
X517517D01*
X513313Y592262D02*
Y589374D01*
Y592262D02*
X511835D01*
X513313Y590887D02*
X512404D01*
X513313Y589374D02*
X511835D01*
X510813Y592262D02*
Y589374D01*
Y592262D02*
X509790D01*
X509790D02*
X509449Y592124D01*
X509335Y591987*
X509335D02*
X509222Y591712D01*
X509222D02*
Y591437D01*
X509222D02*
X509335Y591162D01*
X509335D02*
X509449Y591024D01*
X509790Y590887*
X510813D02*
X509790D01*
X509790D02*
X509449Y590749D01*
X509335Y590612*
X509335D02*
X509222Y590337D01*
X509222D02*
Y589924D01*
X509335Y589649*
X509449Y589512*
X509449D02*
X509790Y589374D01*
X510813*
X508199Y592262D02*
Y589374D01*
X507176Y592262D02*
Y589374D01*
Y592262D02*
X506381D01*
X506381D02*
X506040Y592124D01*
X505813Y591849*
X505699Y591574*
X505585Y591162*
X505585D02*
Y590474D01*
X505699Y590062*
X505699D02*
X505813Y589787D01*
X505813D02*
X506040Y589512D01*
X506040D02*
X506381Y589374D01*
X507176*
G54D20*
X652800Y643575D02*
X651664Y637800D01*
X650527Y643575D02*
X651664Y637800D01*
X650527Y643575D02*
X649391Y637800D01*
X648255Y643575D02*
X649391Y637800D01*
X646209Y643575D02*
Y637800D01*
Y643575D02*
X643255D01*
X646209Y640825D02*
X644391D01*
X646209Y637800D02*
X643255D01*
X638027Y642750D02*
X638482Y643300D01*
X639164Y643575*
X640073*
X640755Y643300*
X641209Y642750*
Y642200*
X640982Y641650*
X640755Y641375*
X640300Y641100*
X638936Y640550*
X638482Y640275*
X638255Y640000*
X638027Y639450*
Y638625*
X638482Y638075*
X639164Y637800*
X640073*
X640755Y638075*
X641209Y638625*
X634618Y643575D02*
X635300Y643300D01*
X635755Y642475*
X635982Y641100*
Y640275*
X635755Y638900*
X635300Y638075*
X634618Y637800*
X634164*
X633482Y638075*
X633027Y638900*
X632800Y640275*
Y641100*
X633027Y642475*
X633482Y643300*
X634164Y643575*
X634618*
X629391D02*
X630073Y643300D01*
X630527Y642475*
X630755Y641100*
Y640275*
X630527Y638900*
X630073Y638075*
X629391Y637800*
X628936*
X628255Y638075*
X627800Y638900*
X627573Y640275*
Y641100*
X627800Y642475*
X628255Y643300*
X628936Y643575*
X629391*
X624164D02*
X624845Y643300D01*
X625300Y642475*
X625527Y641100*
Y640275*
X625300Y638900*
X624845Y638075*
X624164Y637800*
X623709*
X623027Y638075*
X622573Y638900*
X622345Y640275*
Y641100*
X622573Y642475*
X623027Y643300*
X623709Y643575*
X624164*
X617118D02*
X619391Y637800D01*
X620300Y643575D02*
X617118D01*
X615073Y640275D02*
X610982D01*
X607573Y643575D02*
X608255Y643300D01*
X608709Y642475*
X608936Y641100*
Y640275*
X608709Y638900*
X608255Y638075*
X607573Y637800*
X607118*
X606436Y638075*
X605982Y638900*
X605755Y640275*
Y641100*
X605982Y642475*
X606436Y643300*
X607118Y643575*
X607573*
X603482Y642200D02*
Y642475D01*
X603255Y643025*
X603027Y643300*
X602573Y643575*
X601664*
X601209Y643300*
X600982Y643025*
X600755Y642475*
Y641925*
X600982Y641375*
X601436Y640550*
X603709Y637800*
X600527*
G54D21*
X520393Y595801D02*
G03X520393I-668J0D01*
G01X634537Y579714D02*
G03X634537I-1000J0D01*
G01X509037D02*
G03X509037I-1000J0D01*
G54D34*
G01X514375Y617647D02*
Y619747D01*
X518175*
Y617647*
X514375Y614647D02*
Y612547D01*
X518175*
Y614647*
X506336Y622290D02*
X521490D01*
Y593474*
X506336*
Y622290*
G54D70*
X543500Y516400D02*
X563100D01*
X543500Y516200D02*
X563100D01*
X543500Y516000D02*
X563100D01*
X543500Y515800D02*
X563100D01*
X543500Y515600D02*
X563100D01*
X543500Y515400D02*
X563100D01*
X543500Y515200D02*
X563100D01*
X543500Y515000D02*
X563100D01*
X543500Y514800D02*
X563100D01*
X543500Y514600D02*
X563100D01*
X543500Y514400D02*
X563100D01*
X543500Y514200D02*
X563100D01*
X543500Y514000D02*
X563100D01*
X543500Y513800D02*
X563100D01*
X543500Y513600D02*
X563100D01*
X543500Y513400D02*
X563100D01*
X543500Y513200D02*
X563100D01*
X543500Y513000D02*
X563100D01*
X543500Y512800D02*
X563100D01*
X543500Y512600D02*
X563100D01*
X543500Y512200D02*
X563100D01*
Y516400D02*
Y512200D01*
X543500Y516400D02*
Y512200D01*
Y512400D02*
X563100D01*
X606800Y519000D02*
X605900D01*
X608000Y519200D02*
X604700D01*
X608600Y519400D02*
X603900D01*
X609200Y519600D02*
X603500D01*
X609600Y519800D02*
X602900D01*
X610000Y520000D02*
X602700D01*
X610400Y520200D02*
X602300D01*
X610600Y520400D02*
X601900D01*
X611000Y520600D02*
X601700D01*
X611200Y520800D02*
X601500D01*
X611400Y521000D02*
X601100D01*
X611600Y521200D02*
X600900D01*
X612000Y521400D02*
X600700D01*
X612200Y521600D02*
X607500D01*
X605400D02*
X600500D01*
X612400Y521800D02*
X608100D01*
X604600D02*
X600500D01*
X612600Y522000D02*
X608500D01*
X604200D02*
X600300D01*
X612600Y522200D02*
X608900D01*
X603800D02*
X600100D01*
X612800Y522400D02*
X609300D01*
X603400D02*
X599900D01*
X613000Y522600D02*
X609700D01*
X603000D02*
X599900D01*
X613200Y522800D02*
X609900D01*
X602800D02*
X599700D01*
X613200Y523000D02*
X610100D01*
X602600D02*
X599500D01*
X613400Y523200D02*
X610300D01*
X602400D02*
X599500D01*
X613600Y523400D02*
X610500D01*
X607400D02*
X605300D01*
X602200D02*
X599300D01*
X613600Y523600D02*
X610700D01*
X608000D02*
X604700D01*
X602000D02*
X599300D01*
X613800Y523800D02*
X610900D01*
X608400D02*
X604300D01*
X602000D02*
X599100D01*
X613800Y524000D02*
X613300D01*
X612800D02*
X611100D01*
X608800D02*
X604100D01*
X601800D02*
X599100D01*
X614000Y524200D02*
X613500D01*
X612600D02*
X611100D01*
X609000D02*
X603900D01*
X601600D02*
X598900D01*
X614000Y524400D02*
X613700D01*
X612400D02*
X611300D01*
X609200D02*
X603700D01*
X601600D02*
X598900D01*
X613200Y524600D02*
X612900D01*
X612200D02*
X611300D01*
X609400D02*
X606700D01*
X605600D02*
X603500D01*
X601400D02*
X598900D01*
X613400Y524800D02*
X612700D01*
X612000D02*
X611500D01*
X609600D02*
X607300D01*
X604600D02*
X603300D01*
X601400D02*
X598700D01*
X613600Y525000D02*
X612500D01*
X611800D02*
X611500D01*
X609600D02*
X607700D01*
X604000D02*
X603100D01*
X601200D02*
X598700D01*
X613800Y525200D02*
X612300D01*
X609800D02*
X607900D01*
X603800D02*
X603100D01*
X601200D02*
X598700D01*
X614000Y525400D02*
X612100D01*
X610000D02*
X608100D01*
X603600D02*
X602900D01*
X601200D02*
X598700D01*
X614200Y525600D02*
X611900D01*
X610000D02*
X608100D01*
X603400D02*
X602900D01*
X601000D02*
X598500D01*
X614400Y525800D02*
X611700D01*
X610000D02*
X608100D01*
X601000D02*
X598500D01*
X614600Y526000D02*
X611500D01*
X610200D02*
X608300D01*
X601000D02*
X598500D01*
X614800Y526200D02*
X611300D01*
X610200D02*
X608300D01*
X601000D02*
X598500D01*
X615000Y526400D02*
X611100D01*
X610200D02*
X608300D01*
X601000D02*
X598500D01*
X615200Y526600D02*
X610900D01*
X610200D02*
X602500D01*
X600800D02*
X598500D01*
X615400Y526800D02*
X610700D01*
X610200D02*
X602500D01*
X600800D02*
X598500D01*
X615400Y527000D02*
X610500D01*
X610200D02*
X602500D01*
X600800D02*
X598500D01*
X614200Y527200D02*
X611900D01*
X610200D02*
X602500D01*
X602200D02*
X597300D01*
X614200Y527400D02*
X611900D01*
X610200D02*
X602500D01*
X602000D02*
X597500D01*
X614200Y527600D02*
X611900D01*
X610200D02*
X602500D01*
X601800D02*
X597500D01*
X614200Y527800D02*
X611900D01*
X610200D02*
X608300D01*
X604400D02*
X602700D01*
X601600D02*
X597700D01*
X614200Y528000D02*
X611700D01*
X610200D02*
X608300D01*
X604400D02*
X602700D01*
X601400D02*
X597900D01*
X614200Y528200D02*
X611700D01*
X610000D02*
X608100D01*
X604400D02*
X602700D01*
X601200D02*
X598100D01*
X614200Y528400D02*
X611700D01*
X610000D02*
X608100D01*
X604600D02*
X602700D01*
X601000D02*
X598300D01*
X614200Y528600D02*
X611700D01*
X609800D02*
X607900D01*
X604800D02*
X602900D01*
X600800D02*
X598500D01*
X614000Y528800D02*
X611500D01*
X609800D02*
X607700D01*
X605000D02*
X602900D01*
X600600D02*
X598700D01*
X614000Y529000D02*
X611500D01*
X609600D02*
X607500D01*
X605200D02*
X602900D01*
X600400D02*
X598900D01*
X614000Y529200D02*
X611500D01*
X609600D02*
X606900D01*
X605800D02*
X603100D01*
X601200D02*
X600900D01*
X600200D02*
X599100D01*
X614000Y529400D02*
X611300D01*
X609400D02*
X603300D01*
X601200D02*
X600700D01*
X600000D02*
X599300D01*
X613800Y529600D02*
X611300D01*
X609200D02*
X603300D01*
X601400D02*
X600500D01*
X599800D02*
X599500D01*
X613800Y529800D02*
X611100D01*
X609000D02*
X603500D01*
X601400D02*
X600300D01*
X599000D02*
X598700D01*
X613800Y530000D02*
X611100D01*
X608800D02*
X603900D01*
X601600D02*
X600100D01*
X599200D02*
X598900D01*
X613600Y530200D02*
X610900D01*
X608600D02*
X604100D01*
X601800D02*
X599900D01*
X599400D02*
X598900D01*
X613600Y530400D02*
X610700D01*
X608400D02*
X604300D01*
X602000D02*
X598900D01*
X613400Y530600D02*
X610700D01*
X608000D02*
X604700D01*
X602000D02*
X599100D01*
X613400Y530800D02*
X610500D01*
X607400D02*
X605300D01*
X602200D02*
X599300D01*
X613200Y531000D02*
X610300D01*
X602400D02*
X599300D01*
X613200Y531200D02*
X610100D01*
X602600D02*
X599500D01*
X613000Y531400D02*
X609900D01*
X603000D02*
X599700D01*
X612800Y531600D02*
X609500D01*
X603200D02*
X599700D01*
X612800Y531800D02*
X609300D01*
X603400D02*
X599900D01*
X612600Y532000D02*
X608900D01*
X603800D02*
X600100D01*
X612400Y532200D02*
X608500D01*
X604200D02*
X600300D01*
X612200Y532400D02*
X608100D01*
X604800D02*
X600500D01*
X612200Y532600D02*
X607100D01*
X605600D02*
X600700D01*
X612000Y532800D02*
X600900D01*
X611800Y533000D02*
X601100D01*
X611400Y533200D02*
X601300D01*
X611200Y533400D02*
X601500D01*
X611000Y533600D02*
X601900D01*
X610800Y533800D02*
X602100D01*
X610400Y534000D02*
X602500D01*
X610000Y534200D02*
X602900D01*
X609600Y534400D02*
X603100D01*
X609200Y534600D02*
X603700D01*
X608600Y534800D02*
X604100D01*
X608000Y535000D02*
X604900D01*
G54D93*
X512887Y616435D02*
X513137Y616345D01*
X513387Y616163*
X513512Y615981*
Y615617*
X513387Y615435*
X513137Y615254*
X512887Y615163*
X512512Y615072*
X511887*
X511512Y615163*
X511262Y615254*
X511012Y615435*
X510887Y615617*
Y615981*
X511012Y616163*
X511262Y616345*
X511512Y616435*
X513012Y617254D02*
X513137Y617435D01*
X513512Y617708*
X510887*
X513012Y618526D02*
X513137Y618708D01*
X513512Y618981*
X510887*
X516938Y596449D02*
Y594574D01*
X516847Y594199*
X516665Y593949*
X516393Y593824*
X516211*
X515938Y593949*
X515756Y594199*
X515665Y594574*
Y596449*
X514665D02*
X513665D01*
X514211Y595449*
X513938*
X513756Y595324*
X513665Y595199*
X513574Y594824*
Y594574*
X513665Y594199*
X513847Y593949*
X514120Y593824*
X514393*
X514665Y593949*
X514756Y594074*
X514847Y594324*
G54D94*
X630400Y554400D02*
Y557550D01*
Y561487D02*
Y564636D01*
Y568573D02*
Y571723D01*
Y575660D02*
Y578809D01*
Y582746D02*
Y585896D01*
Y589833D02*
Y592983D01*
Y596920D02*
Y600069D01*
Y604006D02*
Y605581D01*
X627250*
X623482D02*
X620333D01*
X616564D02*
X613415D01*
X609646D02*
X606497D01*
X602728D02*
X599579D01*
X595811D02*
X592661D01*
X588893D02*
X585743D01*
X581975D02*
X578825D01*
X575057D02*
X571907D01*
X568139D02*
X564989D01*
X561221D02*
X558072D01*
X554303D02*
X551154D01*
X547385D02*
X544236D01*
X540467D02*
X537318D01*
X533550D02*
X531975D01*
Y554400D02*
Y557550D01*
Y561487D02*
Y564636D01*
Y568573D02*
Y571723D01*
Y575660D02*
Y578809D01*
Y582746D02*
Y585896D01*
Y589833D02*
Y592983D01*
Y596920D02*
Y600069D01*
Y604006D02*
Y605581D01*
X630400Y554400D02*
X627250D01*
X623482D02*
X620333D01*
X616564D02*
X613415D01*
X609646D02*
X606497D01*
X602728D02*
X599579D01*
X595811D02*
X592661D01*
X588893D02*
X585743D01*
X581975D02*
X578825D01*
X575057D02*
X571907D01*
X568139D02*
X564989D01*
X561221D02*
X558072D01*
X554303D02*
X551154D01*
X547385D02*
X544236D01*
X540467D02*
X537318D01*
X533550D02*
X531975D01*
G54D95*
X607605Y583859D02*
Y578691D01*
Y583859D02*
X605994D01*
X605457Y583613*
X605278Y583367*
X605099Y582874*
Y582136*
X605278Y581644*
X605457Y581398*
X605994Y581152*
X607605*
X603489Y582136D02*
Y579676D01*
X603310Y578937*
X602952Y578691*
X602415*
X602057Y578937*
X601520Y579676*
Y582136D02*
Y578691D01*
X599373Y583859D02*
Y579676D01*
X599194Y578937*
X598836Y578691*
X598478*
X599910Y582136D02*
X598657D01*
X590783Y581398D02*
X590962Y581890D01*
X591499Y582136*
X592036*
X592573Y581890*
X592751Y581398*
X592573Y580906*
X592215Y580660*
X591320Y580414*
X590962Y580168*
X590783Y579676*
Y579430*
X590962Y578937*
X591499Y578691*
X592036*
X592573Y578937*
X592751Y579430*
X588636Y583859D02*
Y579676D01*
X588457Y578937*
X588099Y578691*
X587741*
X589172Y582136D02*
X587920D01*
X586130Y583859D02*
X585951Y583613D01*
X585772Y583859*
X585951Y584105*
X586130Y583859*
X585951Y582136D02*
Y578691D01*
X582014Y581398D02*
X582372Y581890D01*
X582730Y582136*
X583267*
X583625Y581890*
X583983Y581398*
X584162Y580660*
Y580168*
X583983Y579430*
X583625Y578937*
X583267Y578691*
X582730*
X582372Y578937*
X582014Y579430*
X580404Y583859D02*
Y578691D01*
X578614Y582136D02*
X580404Y579676D01*
X579688Y580660D02*
X578435Y578691D01*
X576824Y580660D02*
X574677D01*
Y581152*
X574856Y581644*
X575035Y581890*
X575393Y582136*
X575930*
X576288Y581890*
X576646Y581398*
X576824Y580660*
Y580168*
X576646Y579430*
X576288Y578937*
X575930Y578691*
X575393*
X575035Y578937*
X574677Y579430*
X573066Y582136D02*
Y578691D01*
Y580660D02*
X572887Y581398D01*
X572530Y581890*
X572172Y582136*
X571635*
X565908Y583859D02*
Y578691D01*
Y581152D02*
X565371Y581890D01*
X565013Y582136*
X564477*
X564119Y581890*
X563940Y581152*
Y578691*
X562329Y580660D02*
X560182D01*
Y581152*
X560361Y581644*
X560540Y581890*
X560897Y582136*
X561434*
X561792Y581890*
X562150Y581398*
X562329Y580660*
Y580168*
X562150Y579430*
X561792Y578937*
X561434Y578691*
X560897*
X560540Y578937*
X560182Y579430*
X558571Y582136D02*
Y578691D01*
Y580660D02*
X558392Y581398D01*
X558034Y581890*
X557676Y582136*
X557139*
X555529Y580660D02*
X553381D01*
Y581152*
X553560Y581644*
X553739Y581890*
X554097Y582136*
X554634*
X554992Y581890*
X555350Y581398*
X555529Y580660*
Y580168*
X555350Y579430*
X554992Y578937*
X554634Y578691*
X554097*
X553739Y578937*
X553381Y579430*
X551592Y583859D02*
Y580414D01*
Y579183D02*
X551771Y578937D01*
X551592Y578691*
X551413Y578937*
X551592Y579183*
G54D96*
X583250Y637750D02*
X582850D01*
X583750Y637700D02*
X583150D01*
X584200Y637650D02*
X583450D01*
X584600Y637600D02*
X583700D01*
X585000Y637550D02*
X584000D01*
X585350Y637500D02*
X584300D01*
X585700Y637450D02*
X584550D01*
X586050Y637400D02*
X584850D01*
X586350Y637350D02*
X585100D01*
X563950Y637300D02*
X563850D01*
X586650D02*
X585350D01*
X563850Y637250D02*
X563700D01*
X586950D02*
X585650D01*
X563750Y637200D02*
X563550D01*
X587250D02*
X585900D01*
X563650Y637150D02*
X563400D01*
X587550D02*
X586150D01*
X563550Y637100D02*
X563200D01*
X587800D02*
X586400D01*
X563450Y637050D02*
X563050D01*
X588100D02*
X586600D01*
X563350Y637000D02*
X562900D01*
X588350D02*
X586850D01*
X563250Y636950D02*
X562750D01*
X588600D02*
X587100D01*
X563150Y636900D02*
X562600D01*
X588900D02*
X587300D01*
X563100Y636850D02*
X562450D01*
X589150D02*
X587550D01*
X563000Y636800D02*
X562300D01*
X589400D02*
X587750D01*
X562900Y636750D02*
X562150D01*
X589650D02*
X588000D01*
X562850Y636700D02*
X562050D01*
X589900D02*
X588200D01*
X562750Y636650D02*
X561900D01*
X590100D02*
X588400D01*
X562700Y636600D02*
X561750D01*
X590350D02*
X588600D01*
X562650Y636550D02*
X561650D01*
X578400D02*
X576350D01*
X590600D02*
X588800D01*
X562550Y636500D02*
X561500D01*
X579200D02*
X575550D01*
X590850D02*
X589000D01*
X562500Y636450D02*
X561400D01*
X579750D02*
X575000D01*
X591050D02*
X589200D01*
X562450Y636400D02*
X561250D01*
X580200D02*
X574550D01*
X591300D02*
X589400D01*
X562400Y636350D02*
X561150D01*
X580550D02*
X574200D01*
X591550D02*
X589600D01*
X562350Y636300D02*
X561050D01*
X580900D02*
X573850D01*
X591750D02*
X589800D01*
X562300Y636250D02*
X560950D01*
X581250D02*
X573550D01*
X592000D02*
X590000D01*
X562250Y636200D02*
X560800D01*
X581500D02*
X573300D01*
X592250D02*
X590150D01*
X562200Y636150D02*
X560700D01*
X581800D02*
X573050D01*
X592450D02*
X590350D01*
X562150Y636100D02*
X560600D01*
X582050D02*
X572800D01*
X592650D02*
X590500D01*
X562100Y636050D02*
X560500D01*
X582250D02*
X572550D01*
X592850D02*
X590700D01*
X562050Y636000D02*
X560400D01*
X582500D02*
X572350D01*
X593050D02*
X590850D01*
X562000Y635950D02*
X560300D01*
X582700D02*
X572150D01*
X593200D02*
X591050D01*
X561950Y635900D02*
X560200D01*
X582900D02*
X571950D01*
X593400D02*
X591200D01*
X561900Y635850D02*
X560150D01*
X583100D02*
X571750D01*
X593550D02*
X591350D01*
X561900Y635800D02*
X560050D01*
X583300D02*
X571600D01*
X593750D02*
X591550D01*
X561850Y635750D02*
X559950D01*
X583500D02*
X571400D01*
X593950D02*
X591700D01*
X561800Y635700D02*
X559850D01*
X583650D02*
X571250D01*
X594100D02*
X591850D01*
X561750Y635650D02*
X559800D01*
X583850D02*
X571100D01*
X594300D02*
X592000D01*
X561750Y635600D02*
X559700D01*
X584000D02*
X570950D01*
X594450D02*
X592150D01*
X561700Y635550D02*
X559650D01*
X584150D02*
X570850D01*
X594650D02*
X592300D01*
X561700Y635500D02*
X559550D01*
X584350D02*
X570700D01*
X594800D02*
X592450D01*
X561650Y635450D02*
X559500D01*
X584500D02*
X570600D01*
X595000D02*
X592600D01*
X561650Y635400D02*
X559400D01*
X584650D02*
X570500D01*
X595150D02*
X592750D01*
X561600Y635350D02*
X559350D01*
X584800D02*
X570450D01*
X595350D02*
X592900D01*
X561600Y635300D02*
X559250D01*
X584900D02*
X570350D01*
X595500D02*
X593050D01*
X561600Y635250D02*
X559200D01*
X585050D02*
X570250D01*
X595700D02*
X593200D01*
X561550Y635200D02*
X559150D01*
X585200D02*
X570200D01*
X595850D02*
X593350D01*
X561550Y635150D02*
X559050D01*
X585350D02*
X570150D01*
X596050D02*
X593450D01*
X561550Y635100D02*
X559000D01*
X585450D02*
X570050D01*
X596200D02*
X593600D01*
X561500Y635050D02*
X558950D01*
X585600D02*
X570000D01*
X596350D02*
X593750D01*
X561500Y635000D02*
X558900D01*
X585700D02*
X569950D01*
X596550D02*
X593900D01*
X561500Y634950D02*
X558850D01*
X585850D02*
X569900D01*
X596700D02*
X594000D01*
X561500Y634900D02*
X558750D01*
X585950D02*
X569850D01*
X596850D02*
X594150D01*
X561500Y634850D02*
X558700D01*
X586100D02*
X569800D01*
X597050D02*
X594250D01*
X561500Y634800D02*
X558650D01*
X586200D02*
X569750D01*
X597200D02*
X594400D01*
X561500Y634750D02*
X558600D01*
X586300D02*
X569750D01*
X597350D02*
X594500D01*
X561500Y634700D02*
X558550D01*
X586450D02*
X569700D01*
X597500D02*
X594650D01*
X561500Y634650D02*
X558500D01*
X586550D02*
X569650D01*
X597650D02*
X594750D01*
X561550Y634600D02*
X558450D01*
X586650D02*
X569650D01*
X597800D02*
X594900D01*
X561550Y634550D02*
X558400D01*
X586750D02*
X569600D01*
X598000D02*
X595000D01*
X561550Y634500D02*
X558350D01*
X586850D02*
X569550D01*
X598150D02*
X595150D01*
X561600Y634450D02*
X558300D01*
X586950D02*
X569550D01*
X598300D02*
X595250D01*
X561600Y634400D02*
X558300D01*
X587050D02*
X569500D01*
X598450D02*
X595350D01*
X561650Y634350D02*
X558250D01*
X587150D02*
X569500D01*
X598600D02*
X595500D01*
X561650Y634300D02*
X558200D01*
X587250D02*
X569450D01*
X598750D02*
X595600D01*
X561700Y634250D02*
X558150D01*
X587350D02*
X569450D01*
X598850D02*
X595700D01*
X561750Y634200D02*
X558100D01*
X587450D02*
X569450D01*
X599000D02*
X595800D01*
X561750Y634150D02*
X558100D01*
X587550D02*
X569450D01*
X599150D02*
X595950D01*
X561800Y634100D02*
X558050D01*
X587650D02*
X569450D01*
X599300D02*
X596050D01*
X561850Y634050D02*
X558000D01*
X587750D02*
X569450D01*
X599450D02*
X596150D01*
X561900Y634000D02*
X557950D01*
X587850D02*
X569450D01*
X599600D02*
X596250D01*
X561950Y633950D02*
X557950D01*
X587900D02*
X569450D01*
X599700D02*
X596350D01*
X561950Y633900D02*
X557900D01*
X588000D02*
X569450D01*
X599850D02*
X596450D01*
X562000Y633850D02*
X557850D01*
X588100D02*
X569450D01*
X600000D02*
X596550D01*
X562050Y633800D02*
X557850D01*
X588200D02*
X569450D01*
X600100D02*
X596700D01*
X562100Y633750D02*
X557800D01*
X588250D02*
X569450D01*
X600250D02*
X596800D01*
X562150Y633700D02*
X557800D01*
X588350D02*
X569450D01*
X600400D02*
X596900D01*
X562200Y633650D02*
X557750D01*
X588400D02*
X569500D01*
X600500D02*
X597000D01*
X562250Y633600D02*
X557700D01*
X588500D02*
X569500D01*
X600650D02*
X597100D01*
X562300Y633550D02*
X557700D01*
X588600D02*
X569550D01*
X600750D02*
X597200D01*
X562350Y633500D02*
X557650D01*
X588650D02*
X569550D01*
X600900D02*
X597300D01*
X562400Y633450D02*
X557650D01*
X588750D02*
X569600D01*
X601000D02*
X597400D01*
X562450Y633400D02*
X557600D01*
X588800D02*
X569600D01*
X601150D02*
X597450D01*
X562500Y633350D02*
X557600D01*
X588900D02*
X569650D01*
X601250D02*
X597550D01*
X562600Y633300D02*
X557550D01*
X588950D02*
X569700D01*
X601400D02*
X597650D01*
X562650Y633250D02*
X557550D01*
X589050D02*
X569750D01*
X601500D02*
X597750D01*
X562700Y633200D02*
X557550D01*
X589100D02*
X569750D01*
X601600D02*
X597850D01*
X562750Y633150D02*
X557500D01*
X589150D02*
X569800D01*
X601750D02*
X597950D01*
X562850Y633100D02*
X557500D01*
X589250D02*
X569850D01*
X601850D02*
X598050D01*
X562900Y633050D02*
X557450D01*
X589300D02*
X569950D01*
X601950D02*
X598150D01*
X563000Y633000D02*
X557450D01*
X589350D02*
X570000D01*
X602050D02*
X598200D01*
X563050Y632950D02*
X557450D01*
X589450D02*
X570050D01*
X602200D02*
X598300D01*
X563150Y632900D02*
X557400D01*
X589500D02*
X570150D01*
X602300D02*
X598400D01*
X563200Y632850D02*
X557400D01*
X589550D02*
X570200D01*
X602400D02*
X598500D01*
X563300Y632800D02*
X557400D01*
X589650D02*
X570300D01*
X602500D02*
X598550D01*
X563400Y632750D02*
X557350D01*
X589700D02*
X570350D01*
X602600D02*
X598650D01*
X563450Y632700D02*
X557350D01*
X589750D02*
X570450D01*
X602700D02*
X598750D01*
X563550Y632650D02*
X557350D01*
X589800D02*
X570500D01*
X602850D02*
X598800D01*
X563650Y632600D02*
X557350D01*
X589850D02*
X570600D01*
X602950D02*
X598900D01*
X563750Y632550D02*
X557300D01*
X589900D02*
X570700D01*
X603050D02*
X598950D01*
X563850Y632500D02*
X557300D01*
X589950D02*
X570800D01*
X603150D02*
X599050D01*
X563950Y632450D02*
X557300D01*
X590050D02*
X570850D01*
X603250D02*
X599100D01*
X564050Y632400D02*
X557300D01*
X590100D02*
X570950D01*
X603350D02*
X599150D01*
X564150Y632350D02*
X557250D01*
X590150D02*
X571050D01*
X603450D02*
X599250D01*
X564300Y632300D02*
X557250D01*
X590150D02*
X571150D01*
X603550D02*
X599300D01*
X564400Y632250D02*
X557250D01*
X590200D02*
X571200D01*
X603650D02*
X599350D01*
X564500Y632200D02*
X557250D01*
X590250D02*
X571150D01*
X603700D02*
X599450D01*
X564650Y632150D02*
X557250D01*
X590300D02*
X570800D01*
X603800D02*
X599500D01*
X564750Y632100D02*
X557250D01*
X590350D02*
X570500D01*
X603900D02*
X599550D01*
X564900Y632050D02*
X557250D01*
X590400D02*
X570150D01*
X604000D02*
X599650D01*
X565050Y632000D02*
X557250D01*
X590450D02*
X569850D01*
X604100D02*
X599700D01*
X565150Y631950D02*
X557250D01*
X590450D02*
X569550D01*
X604200D02*
X599750D01*
X565300Y631900D02*
X557250D01*
X590500D02*
X569200D01*
X604250D02*
X599800D01*
X565450Y631850D02*
X557250D01*
X590550D02*
X568900D01*
X604350D02*
X599850D01*
X565550Y631800D02*
X557250D01*
X590600D02*
X568550D01*
X604450D02*
X599950D01*
X565700Y631750D02*
X557250D01*
X590600D02*
X568250D01*
X604550D02*
X600000D01*
X565850Y631700D02*
X557250D01*
X590650D02*
X567900D01*
X604600D02*
X600050D01*
X566000Y631650D02*
X557250D01*
X590700D02*
X567600D01*
X604700D02*
X600100D01*
X566100Y631600D02*
X557250D01*
X590700D02*
X567250D01*
X604800D02*
X600150D01*
X566250Y631550D02*
X557250D01*
X590750D02*
X566950D01*
X604900D02*
X600200D01*
X566400Y631500D02*
X557250D01*
X590750D02*
X566650D01*
X604950D02*
X600250D01*
X590800Y631450D02*
X557300D01*
X605050D02*
X600300D01*
X590800Y631400D02*
X557300D01*
X605150D02*
X600350D01*
X590850Y631350D02*
X557300D01*
X605200D02*
X600400D01*
X590850Y631300D02*
X557300D01*
X605300D02*
X600450D01*
X590900Y631250D02*
X557300D01*
X605350D02*
X600500D01*
X590900Y631200D02*
X557300D01*
X605450D02*
X600550D01*
X590900Y631150D02*
X557350D01*
X605550D02*
X600600D01*
X590950Y631100D02*
X557350D01*
X605600D02*
X600650D01*
X590950Y631050D02*
X557350D01*
X605700D02*
X600650D01*
X590950Y631000D02*
X557350D01*
X605750D02*
X600700D01*
X591000Y630950D02*
X557350D01*
X605850D02*
X600750D01*
X591000Y630900D02*
X557400D01*
X605900D02*
X600800D01*
X591000Y630850D02*
X557400D01*
X606000D02*
X600850D01*
X591000Y630800D02*
X557400D01*
X606050D02*
X600850D01*
X575100Y630750D02*
X557450D01*
X591050D02*
X578950D01*
X606150D02*
X600900D01*
X574150Y630700D02*
X557450D01*
X591050D02*
X580000D01*
X606200D02*
X600950D01*
X591050Y630650D02*
X580750D01*
X606250D02*
X601000D01*
X572900Y630600D02*
X557450D01*
X591050D02*
X581400D01*
X606350D02*
X601000D01*
X572400Y630550D02*
X557500D01*
X591050D02*
X582000D01*
X606400D02*
X601050D01*
X571950Y630500D02*
X557500D01*
X591000D02*
X582500D01*
X606500D02*
X601050D01*
X571550Y630450D02*
X557500D01*
X591000D02*
X583000D01*
X606550D02*
X601100D01*
X571200Y630400D02*
X557550D01*
X591000D02*
X583450D01*
X606600D02*
X601150D01*
X570850Y630350D02*
X557550D01*
X591000D02*
X583850D01*
X606700D02*
X601150D01*
X570550Y630300D02*
X557600D01*
X590950D02*
X584250D01*
X606750D02*
X601200D01*
X570250Y630250D02*
X557600D01*
X590950D02*
X584650D01*
X606850D02*
X601200D01*
X569950Y630200D02*
X557600D01*
X590950D02*
X585000D01*
X606900D02*
X601250D01*
X569700Y630150D02*
X557650D01*
X590900D02*
X585350D01*
X606950D02*
X601250D01*
X569400Y630100D02*
X557650D01*
X590900D02*
X585700D01*
X607050D02*
X601300D01*
X569200Y630050D02*
X557700D01*
X590900D02*
X586000D01*
X607100D02*
X601300D01*
X569000Y630000D02*
X557700D01*
X590850D02*
X586350D01*
X607150D02*
X601300D01*
X568850Y629950D02*
X557750D01*
X590850D02*
X586650D01*
X607200D02*
X601350D01*
X568650Y629900D02*
X557750D01*
X590800D02*
X586950D01*
X607300D02*
X601350D01*
X568500Y629850D02*
X557800D01*
X590750D02*
X587250D01*
X607350D02*
X601350D01*
X568350Y629800D02*
X557800D01*
X590750D02*
X587500D01*
X607400D02*
X601400D01*
X568150Y629750D02*
X557850D01*
X590700D02*
X587800D01*
X607450D02*
X601400D01*
X568000Y629700D02*
X557850D01*
X590650D02*
X588050D01*
X607550D02*
X601400D01*
X567900Y629650D02*
X557900D01*
X590650D02*
X588350D01*
X607600D02*
X601400D01*
X567750Y629600D02*
X557950D01*
X590600D02*
X588600D01*
X607650D02*
X601400D01*
X567600Y629550D02*
X557950D01*
X590550D02*
X588800D01*
X607700D02*
X601400D01*
X567500Y629500D02*
X558000D01*
X590500D02*
X588750D01*
X607800D02*
X601400D01*
X567350Y629450D02*
X558000D01*
X590500D02*
X588650D01*
X607850D02*
X601400D01*
X567250Y629400D02*
X558050D01*
X590450D02*
X588550D01*
X607900D02*
X601400D01*
X567150Y629350D02*
X558100D01*
X590400D02*
X588400D01*
X607950D02*
X601400D01*
X567050Y629300D02*
X558100D01*
X590300D02*
X588250D01*
X608000D02*
X601400D01*
X566950Y629250D02*
X558150D01*
X590250D02*
X588150D01*
X608050D02*
X601400D01*
X566850Y629200D02*
X558200D01*
X590200D02*
X588000D01*
X608150D02*
X601400D01*
X566750Y629150D02*
X558200D01*
X590150D02*
X587850D01*
X608200D02*
X601400D01*
X566700Y629100D02*
X558250D01*
X590050D02*
X587700D01*
X608250D02*
X601400D01*
X566600Y629050D02*
X558300D01*
X590000D02*
X587550D01*
X608300D02*
X601350D01*
X566500Y629000D02*
X558300D01*
X589900D02*
X587350D01*
X608350D02*
X601350D01*
X566450Y628950D02*
X558350D01*
X589800D02*
X587200D01*
X608400D02*
X601350D01*
X566350Y628900D02*
X558400D01*
X589700D02*
X587000D01*
X608450D02*
X601300D01*
X566300Y628850D02*
X558450D01*
X589600D02*
X586800D01*
X608500D02*
X601300D01*
X566250Y628800D02*
X558450D01*
X589500D02*
X586550D01*
X608550D02*
X601300D01*
X566150Y628750D02*
X558500D01*
X589400D02*
X586300D01*
X608600D02*
X601250D01*
X566100Y628700D02*
X558550D01*
X589300D02*
X586000D01*
X608700D02*
X601250D01*
X566050Y628650D02*
X558600D01*
X589150D02*
X585700D01*
X608750D02*
X601200D01*
X566000Y628600D02*
X558650D01*
X583600D02*
X581350D01*
X589050D02*
X585250D01*
X608800D02*
X601200D01*
X565950Y628550D02*
X558700D01*
X588950D02*
X580800D01*
X608850D02*
X601150D01*
X565850Y628500D02*
X558700D01*
X588800D02*
X580400D01*
X608900D02*
X601150D01*
X565800Y628450D02*
X558750D01*
X588650D02*
X580050D01*
X608950D02*
X601100D01*
X565750Y628400D02*
X558800D01*
X588500D02*
X579800D01*
X609000D02*
X601100D01*
X565700Y628350D02*
X558850D01*
X588400D02*
X579550D01*
X609050D02*
X601050D01*
X565650Y628300D02*
X558900D01*
X588200D02*
X579300D01*
X609100D02*
X601000D01*
X565600Y628250D02*
X558950D01*
X588050D02*
X579100D01*
X609150D02*
X600950D01*
X565600Y628200D02*
X559000D01*
X587850D02*
X578950D01*
X609200D02*
X600950D01*
X565550Y628150D02*
X559050D01*
X587700D02*
X578750D01*
X609250D02*
X600900D01*
X565500Y628100D02*
X559100D01*
X587500D02*
X578600D01*
X609300D02*
X600850D01*
X565450Y628050D02*
X559150D01*
X587250D02*
X578450D01*
X609350D02*
X600800D01*
X565400Y628000D02*
X559200D01*
X587000D02*
X578300D01*
X609400D02*
X600750D01*
X565350Y627950D02*
X559250D01*
X586700D02*
X578150D01*
X609450D02*
X600700D01*
X565350Y627900D02*
X559300D01*
X586400D02*
X578000D01*
X609500D02*
X600600D01*
X565300Y627850D02*
X559350D01*
X585950D02*
X577900D01*
X609500D02*
X600550D01*
X565250Y627800D02*
X559400D01*
X581350D02*
X577750D01*
X585350D02*
X583450D01*
X609550D02*
X600500D01*
X565250Y627750D02*
X559450D01*
X580900D02*
X577650D01*
X609600D02*
X600450D01*
X565200Y627700D02*
X559500D01*
X580600D02*
X577550D01*
X609650D02*
X600400D01*
X565200Y627650D02*
X559550D01*
X580300D02*
X577400D01*
X609650D02*
X600300D01*
X565150Y627600D02*
X559600D01*
X580050D02*
X577300D01*
X609700D02*
X600250D01*
X565150Y627550D02*
X559650D01*
X579850D02*
X577200D01*
X609750D02*
X600150D01*
X565150Y627500D02*
X559700D01*
X579600D02*
X577100D01*
X609750D02*
X600100D01*
X565100Y627450D02*
X559750D01*
X579450D02*
X577050D01*
X609800D02*
X600000D01*
X565100Y627400D02*
X559850D01*
X579250D02*
X576950D01*
X609800D02*
X599950D01*
X565100Y627350D02*
X559900D01*
X579050D02*
X576850D01*
X609850D02*
X599850D01*
X565100Y627300D02*
X559950D01*
X578900D02*
X576750D01*
X609900D02*
X599800D01*
X565050Y627250D02*
X560000D01*
X578750D02*
X576700D01*
X609900D02*
X599700D01*
X565050Y627200D02*
X560050D01*
X578600D02*
X576600D01*
X609950D02*
X599600D01*
X565050Y627150D02*
X560100D01*
X578450D02*
X576500D01*
X609950D02*
X599500D01*
X565050Y627100D02*
X560200D01*
X578350D02*
X576450D01*
X610000D02*
X599400D01*
X565050Y627050D02*
X560250D01*
X578200D02*
X576350D01*
X610050D02*
X599300D01*
X565050Y627000D02*
X560300D01*
X578100D02*
X576300D01*
X610050D02*
X599200D01*
X565050Y626950D02*
X560350D01*
X577950D02*
X576250D01*
X610100D02*
X599100D01*
X565050Y626900D02*
X560450D01*
X577850D02*
X576200D01*
X610100D02*
X599000D01*
X565050Y626850D02*
X560500D01*
X577950D02*
X576100D01*
X610150D02*
X598850D01*
X565050Y626800D02*
X560550D01*
X578150D02*
X576050D01*
X610150D02*
X598750D01*
X565050Y626750D02*
X560650D01*
X578400D02*
X576000D01*
X610150D02*
X598600D01*
X565050Y626700D02*
X560700D01*
X578600D02*
X575950D01*
X610200D02*
X598500D01*
X565050Y626650D02*
X560750D01*
X578850D02*
X575900D01*
X610200D02*
X598350D01*
X565100Y626600D02*
X560850D01*
X579050D02*
X575850D01*
X610250D02*
X598200D01*
X565100Y626550D02*
X560900D01*
X579300D02*
X575850D01*
X610250D02*
X598000D01*
X565100Y626500D02*
X560950D01*
X579550D02*
X575800D01*
X610300D02*
X597850D01*
X565100Y626450D02*
X561050D01*
X579800D02*
X575750D01*
X610300D02*
X597650D01*
X565100Y626400D02*
X561100D01*
X580100D02*
X575700D01*
X610300D02*
X597500D01*
X565150Y626350D02*
X561150D01*
X580350D02*
X575700D01*
X610350D02*
X597300D01*
X565150Y626300D02*
X561250D01*
X580650D02*
X575650D01*
X610350D02*
X597050D01*
X565150Y626250D02*
X561300D01*
X580950D02*
X575650D01*
X610350D02*
X596850D01*
X565200Y626200D02*
X561400D01*
X581250D02*
X575600D01*
X610400D02*
X596600D01*
X565200Y626150D02*
X561450D01*
X581550D02*
X575600D01*
X610400D02*
X596350D01*
X565250Y626100D02*
X561500D01*
X581900D02*
X575550D01*
X610400D02*
X596050D01*
X565250Y626050D02*
X561600D01*
X582250D02*
X575550D01*
X610450D02*
X595750D01*
X565300Y626000D02*
X561650D01*
X582650D02*
X575500D01*
X610450D02*
X595500D01*
X565300Y625950D02*
X561750D01*
X583050D02*
X575500D01*
X610450D02*
X595200D01*
X565350Y625900D02*
X561800D01*
X583450D02*
X575500D01*
X610450D02*
X594900D01*
X565350Y625850D02*
X561900D01*
X583950D02*
X575500D01*
X610500D02*
X594600D01*
X565400Y625800D02*
X561950D01*
X584450D02*
X575450D01*
X610500D02*
X594200D01*
X565400Y625750D02*
X562050D01*
X585050D02*
X575450D01*
X610500D02*
X593600D01*
X565450Y625700D02*
X562100D01*
X585700D02*
X575450D01*
X610500D02*
X592900D01*
X565500Y625650D02*
X562200D01*
X586550D02*
X575450D01*
X610500D02*
X592100D01*
X565500Y625600D02*
X562300D01*
X587800D02*
X575450D01*
X610550D02*
X590850D01*
X565550Y625550D02*
X562350D01*
X610550D02*
X575450D01*
X565600Y625500D02*
X562450D01*
X610550D02*
X575450D01*
X565650Y625450D02*
X562550D01*
X610550D02*
X575500D01*
X565700Y625400D02*
X562650D01*
X610550D02*
X575500D01*
X565750Y625350D02*
X562700D01*
X610550D02*
X575500D01*
X565800Y625300D02*
X562800D01*
X610550D02*
X575500D01*
X565850Y625250D02*
X562900D01*
X610600D02*
X575550D01*
X565900Y625200D02*
X562950D01*
X610600D02*
X575550D01*
X565950Y625150D02*
X563050D01*
X610600D02*
X575550D01*
X566000Y625100D02*
X563150D01*
X610600D02*
X575600D01*
X566050Y625050D02*
X563250D01*
X600050D02*
X575600D01*
X610600D02*
X600200D01*
X566100Y625000D02*
X563350D01*
X599850D02*
X575600D01*
X610600D02*
X600300D01*
X566150Y624950D02*
X563400D01*
X599650D02*
X575650D01*
X610600D02*
X600400D01*
X566200Y624900D02*
X563500D01*
X599400D02*
X575650D01*
X610600D02*
X600550D01*
X566250Y624850D02*
X563600D01*
X599200D02*
X575700D01*
X610600D02*
X600650D01*
X566350Y624800D02*
X563700D01*
X599000D02*
X575750D01*
X610600D02*
X600750D01*
X566400Y624750D02*
X563800D01*
X598800D02*
X575750D01*
X610600D02*
X600850D01*
X566450Y624700D02*
X563900D01*
X598550D02*
X575800D01*
X610600D02*
X600950D01*
X566500Y624650D02*
X563950D01*
X598350D02*
X575850D01*
X610600D02*
X601050D01*
X566600Y624600D02*
X564050D01*
X598150D02*
X575850D01*
X610600D02*
X601100D01*
X566650Y624550D02*
X564150D01*
X597950D02*
X575900D01*
X610600D02*
X601200D01*
X566700Y624500D02*
X564250D01*
X597750D02*
X575950D01*
X610600D02*
X601300D01*
X566750Y624450D02*
X564350D01*
X597500D02*
X575950D01*
X610600D02*
X601400D01*
X566850Y624400D02*
X564450D01*
X597300D02*
X576000D01*
X610550D02*
X601500D01*
X566900Y624350D02*
X564550D01*
X597100D02*
X576050D01*
X610550D02*
X601550D01*
X566950Y624300D02*
X564650D01*
X596900D02*
X576100D01*
X610550D02*
X601650D01*
X567050Y624250D02*
X564750D01*
X596650D02*
X576150D01*
X610550D02*
X601750D01*
X567100Y624200D02*
X564850D01*
X596450D02*
X576200D01*
X610550D02*
X601850D01*
X567150Y624150D02*
X564950D01*
X596250D02*
X576250D01*
X610550D02*
X601900D01*
X567250Y624100D02*
X565050D01*
X596050D02*
X576300D01*
X610550D02*
X602000D01*
X567300Y624050D02*
X565150D01*
X595850D02*
X576350D01*
X610500D02*
X602050D01*
X567350Y624000D02*
X565250D01*
X595800D02*
X576400D01*
X610500D02*
X602150D01*
X567450Y623950D02*
X565350D01*
X595850D02*
X576450D01*
X610500D02*
X602250D01*
X567500Y623900D02*
X565450D01*
X595950D02*
X576500D01*
X610500D02*
X602300D01*
X567600Y623850D02*
X565550D01*
X596000D02*
X576600D01*
X610450D02*
X602400D01*
X567650Y623800D02*
X565650D01*
X596050D02*
X576650D01*
X610450D02*
X602450D01*
X567750Y623750D02*
X565750D01*
X596150D02*
X576700D01*
X610450D02*
X602550D01*
X567800Y623700D02*
X565850D01*
X596200D02*
X576750D01*
X610400D02*
X602600D01*
X567900Y623650D02*
X565950D01*
X596250D02*
X576850D01*
X610400D02*
X602700D01*
X567950Y623600D02*
X566100D01*
X596300D02*
X576900D01*
X610400D02*
X602750D01*
X568050Y623550D02*
X566200D01*
X596400D02*
X576950D01*
X610350D02*
X602800D01*
X568100Y623500D02*
X566300D01*
X596450D02*
X577050D01*
X610350D02*
X602900D01*
X568200Y623450D02*
X566400D01*
X596500D02*
X577100D01*
X610350D02*
X602950D01*
X568250Y623400D02*
X566500D01*
X596600D02*
X577200D01*
X610300D02*
X603050D01*
X568350Y623350D02*
X566650D01*
X596650D02*
X577250D01*
X610300D02*
X603100D01*
X568450Y623300D02*
X566750D01*
X596700D02*
X577300D01*
X610250D02*
X603150D01*
X568500Y623250D02*
X566850D01*
X596750D02*
X577400D01*
X610250D02*
X603250D01*
X568600Y623200D02*
X566950D01*
X596800D02*
X577450D01*
X610200D02*
X603300D01*
X568700Y623150D02*
X567100D01*
X596850D02*
X577550D01*
X610150D02*
X603350D01*
X568750Y623100D02*
X567200D01*
X596850D02*
X577600D01*
X610150D02*
X603450D01*
X568850Y623050D02*
X567300D01*
X596900D02*
X577650D01*
X610100D02*
X603500D01*
X568950Y623000D02*
X567450D01*
X596900D02*
X577750D01*
X610100D02*
X603550D01*
X569050Y622950D02*
X567550D01*
X596950D02*
X577850D01*
X610050D02*
X603650D01*
X569100Y622900D02*
X567700D01*
X596950D02*
X577900D01*
X610000D02*
X603700D01*
X569200Y622850D02*
X567800D01*
X597000D02*
X578000D01*
X610000D02*
X603750D01*
X569300Y622800D02*
X567900D01*
X597000D02*
X578100D01*
X609950D02*
X603800D01*
X569400Y622750D02*
X568050D01*
X597000D02*
X578150D01*
X609900D02*
X603900D01*
X569500Y622700D02*
X568150D01*
X597000D02*
X578250D01*
X609900D02*
X603950D01*
X569600Y622650D02*
X568300D01*
X597000D02*
X578350D01*
X609850D02*
X604000D01*
X569700Y622600D02*
X568400D01*
X597000D02*
X578450D01*
X609800D02*
X604050D01*
X569800Y622550D02*
X568550D01*
X597000D02*
X578500D01*
X609800D02*
X604100D01*
X569900Y622500D02*
X568650D01*
X597000D02*
X578600D01*
X609750D02*
X604150D01*
X570000Y622450D02*
X568800D01*
X597000D02*
X578700D01*
X609700D02*
X604200D01*
X570100Y622400D02*
X568950D01*
X597000D02*
X578800D01*
X609650D02*
X604250D01*
X570200Y622350D02*
X569050D01*
X597000D02*
X578900D01*
X609650D02*
X604300D01*
X570300Y622300D02*
X569200D01*
X596950D02*
X579000D01*
X609600D02*
X604350D01*
X570400Y622250D02*
X569350D01*
X596950D02*
X579100D01*
X609550D02*
X604400D01*
X570500Y622200D02*
X569450D01*
X596900D02*
X579200D01*
X609500D02*
X604450D01*
X570600Y622150D02*
X569600D01*
X596900D02*
X579300D01*
X609450D02*
X604500D01*
X570750Y622100D02*
X569750D01*
X596850D02*
X579400D01*
X609450D02*
X604500D01*
X570850Y622050D02*
X569850D01*
X596800D02*
X579500D01*
X609400D02*
X604550D01*
X570950Y622000D02*
X570000D01*
X596800D02*
X579600D01*
X609350D02*
X604600D01*
X571100Y621950D02*
X570150D01*
X596750D02*
X579700D01*
X609300D02*
X604600D01*
X571200Y621900D02*
X570300D01*
X596700D02*
X579850D01*
X609250D02*
X604650D01*
X571300Y621850D02*
X570450D01*
X596650D02*
X579950D01*
X609200D02*
X604650D01*
X571450Y621800D02*
X570600D01*
X596600D02*
X580050D01*
X609150D02*
X604700D01*
X571550Y621750D02*
X570750D01*
X596500D02*
X580150D01*
X609100D02*
X604700D01*
X571700Y621700D02*
X570850D01*
X596450D02*
X580300D01*
X609050D02*
X604700D01*
X571800Y621650D02*
X571000D01*
X596400D02*
X580400D01*
X609000D02*
X604750D01*
X571950Y621600D02*
X571150D01*
X596300D02*
X580550D01*
X608950D02*
X604750D01*
X572050Y621550D02*
X571300D01*
X596250D02*
X580650D01*
X608900D02*
X604750D01*
X572200Y621500D02*
X571500D01*
X596150D02*
X580800D01*
X608850D02*
X604800D01*
X572350Y621450D02*
X571650D01*
X596050D02*
X580950D01*
X608800D02*
X604800D01*
X572450Y621400D02*
X571800D01*
X595950D02*
X581050D01*
X608750D02*
X604800D01*
X572600Y621350D02*
X571950D01*
X595900D02*
X581200D01*
X608700D02*
X604800D01*
X572750Y621300D02*
X572100D01*
X595800D02*
X581350D01*
X608650D02*
X604800D01*
X572900Y621250D02*
X572250D01*
X595650D02*
X581500D01*
X608550D02*
X604800D01*
X573000Y621200D02*
X572450D01*
X595550D02*
X581650D01*
X608500D02*
X604800D01*
X573150Y621150D02*
X572600D01*
X595450D02*
X581800D01*
X608450D02*
X604800D01*
X573300Y621100D02*
X572750D01*
X595350D02*
X581950D01*
X608400D02*
X604850D01*
X573450Y621050D02*
X572900D01*
X595200D02*
X582150D01*
X608300D02*
X604850D01*
X573600Y621000D02*
X573100D01*
X595050D02*
X582300D01*
X608250D02*
X604800D01*
X573750Y620950D02*
X573250D01*
X594850D02*
X582500D01*
X608200D02*
X604800D01*
X573950Y620900D02*
X573450D01*
X594700D02*
X582650D01*
X608100D02*
X604800D01*
X574100Y620850D02*
X573600D01*
X594500D02*
X582850D01*
X608050D02*
X604800D01*
X574250Y620800D02*
X573800D01*
X594300D02*
X583050D01*
X608000D02*
X604800D01*
X574400Y620750D02*
X573950D01*
X594100D02*
X583250D01*
X607900D02*
X604800D01*
X574550Y620700D02*
X574150D01*
X593900D02*
X583450D01*
X607850D02*
X604800D01*
X574750Y620650D02*
X574300D01*
X593650D02*
X583700D01*
X607750D02*
X604750D01*
X574900Y620600D02*
X574500D01*
X593450D02*
X583900D01*
X607700D02*
X604750D01*
X575050Y620550D02*
X574700D01*
X593200D02*
X584150D01*
X607600D02*
X604750D01*
X575250Y620500D02*
X574900D01*
X592950D02*
X584450D01*
X607500D02*
X604700D01*
X575400Y620450D02*
X575050D01*
X592650D02*
X584700D01*
X607450D02*
X604700D01*
X575600Y620400D02*
X575250D01*
X592350D02*
X585000D01*
X607350D02*
X604650D01*
X575750Y620350D02*
X575450D01*
X592050D02*
X585350D01*
X607250D02*
X604650D01*
X575950Y620300D02*
X575650D01*
X591650D02*
X585700D01*
X607200D02*
X604600D01*
X576150Y620250D02*
X575850D01*
X591250D02*
X586150D01*
X607100D02*
X604550D01*
X576300Y620200D02*
X576050D01*
X590700D02*
X586650D01*
X607000D02*
X604500D01*
X576500Y620150D02*
X576250D01*
X590000D02*
X587400D01*
X606900D02*
X604500D01*
X576700Y620100D02*
X576450D01*
X606800D02*
X604450D01*
X606700Y620050D02*
X604400D01*
X606600Y620000D02*
X604350D01*
X606500Y619950D02*
X604300D01*
X606400Y619900D02*
X604250D01*
X606250Y619850D02*
X604200D01*
X606150Y619800D02*
X604150D01*
X606050Y619750D02*
X604100D01*
X605900Y619700D02*
X604050D01*
X605800Y619650D02*
X604000D01*
X605650Y619600D02*
X603950D01*
X605500Y619550D02*
X603850D01*
X605400Y619500D02*
X603800D01*
X605250Y619450D02*
X603750D01*
X605100Y619400D02*
X603650D01*
X604950Y619350D02*
X603600D01*
X604800Y619300D02*
X603500D01*
X604650Y619250D02*
X603400D01*
X604450Y619200D02*
X603300D01*
X604300Y619150D02*
X603200D01*
X604100Y619100D02*
X603100D01*
X603900Y619050D02*
X603000D01*
X603750Y619000D02*
X602900D01*
X603550Y618950D02*
X602800D01*
X603300Y618900D02*
X602650D01*
X603100Y618850D02*
X602500D01*
X602900Y618800D02*
X602400D01*
X602650Y618750D02*
X602250D01*
X602450Y618700D02*
X602100D01*
X602200Y618650D02*
X601950D01*
Y618600D02*
X601800D01*
G74*
X0Y0D02*
M02*
