*
*
G04 PADS 9.4.1 Build Number: 494907 generated Gerber (RS-274-X) file*
G04 PC Version=2.1*
*
%IN "WES0007-02.pcb"*%
*
%MOIN*%
*
%FSLAX35Y35*%
*
*
*
*
G04 PC Standard Apertures*
*
*
G04 Thermal Relief Aperture macro.*
%AMTER*
1,1,$1,0,0*
1,0,$1-$2,0,0*
21,0,$3,$4,0,0,45*
21,0,$3,$4,0,0,135*
%
*
*
G04 Annular Aperture macro.*
%AMANN*
1,1,$1,0,0*
1,0,$2,0,0*
%
*
*
G04 Odd Aperture macro.*
%AMODD*
1,1,$1,0,0*
1,0,$1-0.005,0,0*
%
*
*
G04 PC Custom Aperture Macros*
*
*
*
*
*
*
G04 PC Aperture Table*
*
%ADD010C,0.001*%
%ADD012C,0.01*%
%ADD015R,0.02X0.02*%
%ADD020C,0.012*%
%ADD021C,0.02*%
%ADD022C,0.032*%
%ADD025C,0.016*%
%ADD031C,0.06*%
%ADD046C,0.09*%
%ADD052C,0.1*%
%ADD056C,0.03*%
%ADD057C,0.008*%
%ADD058C,0.05*%
%ADD061R,0.03X0.03*%
%ADD078R,0.05118X0.05906*%
%ADD082C,0.2*%
%ADD085C,0.055*%
%ADD086C,0.039*%
%ADD090R,0.00984X0.03346*%
%ADD091R,0.08X0.03*%
*
*
*
*
G04 PC Circuitry*
G04 Layer Name WES0007-02.pcb - circuitry*
%LPD*%
*
*
G04 PC Custom Flashes*
G04 Layer Name WES0007-02.pcb - flashes*
%LPD*%
*
*
G04 PC Circuitry*
G04 Layer Name WES0007-02.pcb - circuitry*
%LPD*%
*
G54D10*
G01X500031Y500000D02*
Y675374D01*
X661449*
Y500000*
X500031*
G54D12*
X530487Y506790D02*
X530600Y506903D01*
X530600D02*
Y534614D01*
X528057Y537157*
X525094*
X525037Y537214*
X511037Y532214D02*
X525037D01*
X511037Y537214D02*
Y537474D01*
X518040Y531974D02*
X511037Y532214D01*
X514803Y598852D02*
Y595174D01*
X518240*
X520040Y596974*
Y607974*
X518500Y609514*
X516772*
Y610072*
X513819Y604462D02*
X513131Y603774D01*
X512835Y603478*
Y603774*
X513131*
X513819Y604462D02*
X514803Y605446D01*
Y610072*
X516772D02*
Y614843D01*
X512835Y610072D02*
X512840Y610077D01*
Y613274*
X511600Y614514*
X510866Y610072D02*
Y611181D01*
X510533Y611514*
X508200*
X510866Y598852D02*
Y601774D01*
X511131*
X512835Y603478*
Y598852*
X516772D02*
Y602374D01*
X514684Y604462*
X513819*
X516275Y614347D02*
X516772Y614843D01*
X577736Y553522D02*
Y544200D01*
X588058*
X588186Y544270*
Y553522*
X577736*
X636936Y517101D02*
X638643Y518808D01*
X639529*
X641529Y516808*
X645236*
Y511908*
X636936*
Y517101*
X654787Y506790D02*
G75*
G03X654787I-4300J0D01*
G01X644787D02*
G03X644787I-4300J0D01*
G01X655200Y660600D02*
G03X655200I-11300J0D01*
G01X597009Y665302D02*
G03X597009I-6300J0D01*
G01X577009D02*
G03X577009I-6300J0D01*
G01X528300Y660600D02*
G03X528300I-11300J0D01*
G01X524787Y506790D02*
G03X524787I-4300J0D01*
G01X514787D02*
G03X514787I-4300J0D01*
G01X634787D02*
G03X634787I-4300J0D01*
G01X624787D02*
G03X624787I-4300J0D01*
G01X614787D02*
G03X614787I-4300J0D01*
G01X604787D02*
G03X604787I-4300J0D01*
G01X594787D02*
G03X594787I-4300J0D01*
G01X584787D02*
G03X584787I-4300J0D01*
G01X574787D02*
G03X574787I-4300J0D01*
G01X564787D02*
G03X564787I-4300J0D01*
G01X554787D02*
G03X554787I-4300J0D01*
G01X544787D02*
G03X544787I-4300J0D01*
G01X660149Y501800D02*
Y673574D01*
G03X659649Y674074I-500J-0*
G01X501832*
G03X501332Y673574I-0J-500*
G01Y501800*
G03X501832Y501300I500J0*
G01X659649*
G03X660149Y501800I-0J500*
G01X644899Y524165D02*
G03X645505Y524923I209J454D01*
G01X645237Y525714D02*
G03X645505Y524923I1300J0D01*
G01X645237Y525714D02*
Y528714D01*
X645245Y528858D02*
G03X645237Y528714I1292J-144D01*
G01X645245Y528858D02*
G03X644748Y529414I-497J56D01*
G01X644418*
G03X644298Y529399I0J-500*
G01X642901D02*
G03X644298I699J2815D01*
G01X642901D02*
G03X642781Y529414I-120J-485D01*
G01X642326*
G03X641829Y528858I-0J-500*
G01X641837Y528714D02*
G03X641829Y528858I-1300J0D01*
G01X641837Y528714D02*
Y525714D01*
X641569Y524923D02*
G03X641837Y525714I-1032J791D01*
G01X641569Y524923D02*
G03X642175Y524165I397J-304D01*
G01X644899D02*
G03X642175I-1362J-2951D01*
G01X645456Y569436D02*
G03Y569992I-416J278D01*
G01X645237Y570714D02*
G03X645456Y569992I1300J0D01*
G01X645237Y570714D02*
Y573714D01*
X645239Y573795D02*
G03X645237Y573714I1298J-81D01*
G01X645239Y573795D02*
G03X644608Y574308I-499J31D01*
G01X642466D02*
G03X644608I1071J3906D01*
G01X642466D02*
G03X641835Y573795I-132J-482D01*
G01X641837Y573714D02*
G03X641834Y573795I-1300J0D01*
G01X641837Y573714D02*
Y570714D01*
X641618Y569992D02*
G03X641837Y570714I-1081J722D01*
G01X641618Y569992D02*
G03Y569436I416J-278D01*
G01X641837Y568714D02*
G03X641618Y569436I-1300J0D01*
G01X641837Y568714D02*
Y568671D01*
G03X642543Y568216I500J0*
G01X644593Y568346D02*
G03X642543Y568216I-853J-2772D01*
G01X644593Y568346D02*
G03X645239Y568793I147J478D01*
G01X645456Y569436D02*
G03X645239Y568793I1081J-722D01*
G01X519399Y524165D02*
G03X520005Y524923I209J454D01*
G01X519737Y525714D02*
G03X520005Y524923I1300J0D01*
G01X519737Y525714D02*
Y528714D01*
X519738Y528771D02*
G03X519737Y528714I1299J-57D01*
G01X519738Y528771D02*
G03X519062Y529260I-499J21D01*
G01X517012Y529262D02*
G03X519062Y529260I1028J2712D01*
G01X517012Y529262D02*
G03X516336Y528772I-177J-467D01*
G01X516337Y528714D02*
G03X516336Y528772I-1300J0D01*
G01X516337Y528714D02*
Y525714D01*
X516069Y524923D02*
G03X516337Y525714I-1032J791D01*
G01X516069Y524923D02*
G03X516675Y524165I397J-304D01*
G01X519399D02*
G03X516675I-1362J-2951D01*
G01X519956Y569436D02*
G03Y569992I-416J278D01*
G01X519737Y570714D02*
G03X519956Y569992I1300J0D01*
G01X519737Y570714D02*
Y573714D01*
X519739Y573795D02*
G03X519737Y573714I1298J-81D01*
G01X519739Y573795D02*
G03X519108Y574308I-499J31D01*
G01X516966D02*
G03X519108I1071J3906D01*
G01X516966D02*
G03X516335Y573795I-132J-482D01*
G01X516337Y573714D02*
G03X516334Y573795I-1300J0D01*
G01X516337Y573714D02*
Y570714D01*
X516118Y569992D02*
G03X516337Y570714I-1081J722D01*
G01X516118Y569992D02*
G03Y569436I416J-278D01*
G01X516337Y568714D02*
G03X516118Y569436I-1300J0D01*
G01X516337Y568714D02*
Y565714D01*
X516118Y564992D02*
G03X516337Y565714I-1081J722D01*
G01X516118Y564992D02*
G03Y564436I416J-278D01*
G01X516337Y563714D02*
G03X516118Y564436I-1300J0D01*
G01X516337Y563714D02*
Y560714D01*
X516118Y559992D02*
G03X516337Y560714I-1081J722D01*
G01X516118Y559992D02*
G03Y559436I416J-278D01*
G01X516337Y558714D02*
G03X516118Y559436I-1300J0D01*
G01X516337Y558714D02*
Y555714D01*
X516118Y554992D02*
G03X516337Y555714I-1081J722D01*
G01X516118Y554992D02*
G03Y554436I416J-278D01*
G01X516337Y553714D02*
G03X516118Y554436I-1300J0D01*
G01X516337Y553714D02*
Y550714D01*
X516118Y549992D02*
G03X516337Y550714I-1081J722D01*
G01X516118Y549992D02*
G03Y549436I416J-278D01*
G01X516337Y548714D02*
G03X516118Y549436I-1300J0D01*
G01X516337Y548714D02*
Y545714D01*
X516118Y544992D02*
G03X516337Y545714I-1081J722D01*
G01X516118Y544992D02*
G03Y544436I416J-278D01*
G01X516336Y543769D02*
G03X516118Y544436I-1299J-55D01*
G01X516336Y543769D02*
G03X516998Y543317I499J21D01*
G01X519046Y543255D02*
G03X516998Y543317I-1106J-2681D01*
G01X519046Y543255D02*
G03X519737Y543716I191J462D01*
G01X519956Y544436D02*
G03X519737Y543716I1081J-722D01*
G01X519956Y544436D02*
G03Y544992I-416J278D01*
G01X519737Y545714D02*
G03X519956Y544992I1300J0D01*
G01X519737Y545714D02*
Y548714D01*
X519956Y549436D02*
G03X519737Y548714I1081J-722D01*
G01X519956Y549436D02*
G03Y549992I-416J278D01*
G01X519737Y550714D02*
G03X519956Y549992I1300J0D01*
G01X519737Y550714D02*
Y553714D01*
X519956Y554436D02*
G03X519737Y553714I1081J-722D01*
G01X519956Y554436D02*
G03Y554992I-416J278D01*
G01X519737Y555714D02*
G03X519956Y554992I1300J0D01*
G01X519737Y555714D02*
Y558714D01*
X519956Y559436D02*
G03X519737Y558714I1081J-722D01*
G01X519956Y559436D02*
G03Y559992I-416J278D01*
G01X519737Y560714D02*
G03X519956Y559992I1300J0D01*
G01X519737Y560714D02*
Y563714D01*
X519956Y564436D02*
G03X519737Y563714I1081J-722D01*
G01X519956Y564436D02*
G03Y564992I-416J278D01*
G01X519737Y565714D02*
G03X519956Y564992I1300J0D01*
G01X519737Y565714D02*
Y568714D01*
X519956Y569436D02*
G03X519737Y568714I1081J-722D01*
G01X654787Y506790D02*
G03X654787I-4300J0D01*
G01X644787D02*
G03X644787I-4300J0D01*
G01X655837Y573714D02*
Y570714D01*
X655618Y569992D02*
G03X655837Y570714I-1081J722D01*
G01X655618Y569992D02*
G03Y569436I416J-278D01*
G01X655837Y568714D02*
G03X655618Y569436I-1300J0D01*
G01X655837Y568714D02*
Y565714D01*
X655618Y564992D02*
G03X655837Y565714I-1081J722D01*
G01X655618Y564992D02*
G03Y564436I416J-278D01*
G01X655837Y563714D02*
G03X655618Y564436I-1300J0D01*
G01X655837Y563714D02*
Y560714D01*
X655618Y559992D02*
G03X655837Y560714I-1081J722D01*
G01X655618Y559992D02*
G03Y559436I416J-278D01*
G01X655837Y558714D02*
G03X655618Y559436I-1300J0D01*
G01X655837Y558714D02*
Y555714D01*
X655618Y554992D02*
G03X655837Y555714I-1081J722D01*
G01X655618Y554992D02*
G03Y554436I416J-278D01*
G01X655837Y553714D02*
G03X655618Y554436I-1300J0D01*
G01X655837Y553714D02*
Y550714D01*
X655618Y549992D02*
G03X655837Y550714I-1081J722D01*
G01X655618Y549992D02*
G03Y549436I416J-278D01*
G01X655837Y548714D02*
G03X655618Y549436I-1300J0D01*
G01X655837Y548714D02*
Y545714D01*
X655618Y544992D02*
G03X655837Y545714I-1081J722D01*
G01X655618Y544992D02*
G03Y544436I416J-278D01*
G01X655837Y543714D02*
G03X655618Y544436I-1300J0D01*
G01X655837Y543714D02*
Y540714D01*
X655618Y539992D02*
G03X655837Y540714I-1081J722D01*
G01X655618Y539992D02*
G03Y539436I416J-278D01*
G01X655837Y538714D02*
G03X655618Y539436I-1300J0D01*
G01X655837Y538714D02*
Y535714D01*
X655618Y534992D02*
G03X655837Y535714I-1081J722D01*
G01X655618Y534992D02*
G03Y534436I416J-278D01*
G01X655837Y533714D02*
G03X655618Y534436I-1300J0D01*
G01X655837Y533714D02*
Y530714D01*
X655618Y529992D02*
G03X655837Y530714I-1081J722D01*
G01X655618Y529992D02*
G03Y529436I416J-278D01*
G01X655837Y528714D02*
G03X655618Y529436I-1300J0D01*
G01X655837Y528714D02*
Y525714D01*
X654537Y524414D02*
G03X655837Y525714I-0J1300D01*
G01X654537Y524414D02*
X646537D01*
X646204Y524457D02*
G03X646537Y524414I333J1257D01*
G01X646204Y524457D02*
G03X645737Y523606I-128J-483D01*
G01X641337D02*
G03X645737I2200J-2392D01*
G01X641337D02*
G03X640870Y524457I-339J368D01*
G01X640537Y524414D02*
G03X640870Y524457I-0J1300D01*
G01X640537Y524414D02*
X632640D01*
G03X632140Y523914I0J-500*
G01Y521574*
X631314Y519588D02*
G03X632140Y521574I-1974J1986D01*
G01X631314Y519588D02*
X624673Y512988D01*
X622700Y512174D02*
G03X624673Y512988I-0J2800D01*
G01X622700Y512174D02*
X541240D01*
X539243Y513012D02*
G03X541240Y512174I1997J1962D01*
G01X539243Y513012D02*
X535903Y516412D01*
X535100Y518374D02*
G03X535903Y516412I2800J0D01*
G01X535100Y518374D02*
Y530081D01*
G03X535085Y530202I-500J0*
G01X540715D02*
G03X535085I-2815J698D01*
G01X540715D02*
G03X540700Y530081I485J-121D01*
G01Y519724*
G03X540843Y519373I500J-0*
G01X542267Y517924*
G03X542624Y517774I357J350*
G01X621339*
G03X621691Y517919I-0J500*
G01X626392Y522592*
G03X626540Y522947I-352J355*
G01Y527220*
G03X625828Y527673I-500J-0*
G01X622389Y528424D02*
G03X625828Y527673I2211J1876D01*
G01X622389Y528424D02*
G03X622008Y528600I-381J-324D01*
G01X621017*
G03X620662Y528452I-0J-500*
G01X619461Y527241*
G03X619476Y526523I355J-352*
G01X616103Y521858D02*
G03X619476Y526523I1397J2542D01*
G01X616103Y521858D02*
G03X615510Y521775I-240J-438D01*
G01X614698Y520968*
X613500Y520474D02*
G03X614698Y520968I0J1700D01*
G01X613500Y520474D02*
X576940D01*
X575732Y520977D02*
G03X576940Y520474I1208J1197D01*
G01X575732Y520977D02*
X566657Y530136D01*
G03X566263Y530283I-355J-352*
G01X567789Y535488D02*
G03X566263Y530283I-1749J-2314D01*
G01X567789Y535488D02*
G03X568391I301J398D01*
G01X571889D02*
G03X568391I-1749J-2314D01*
G01X571889D02*
G03X572491I301J398D01*
G01X575989D02*
G03X572491I-1749J-2314D01*
G01X575989D02*
G03X576591I301J398D01*
G01X580216Y530963D02*
G03X576591Y535488I-1876J2211D01*
G01X580216Y530963D02*
G03X580040Y530582I324J-381D01*
G01Y529174*
G03X580540Y528674I500J0*
G01X588915*
G03X589268Y529528I-0J500*
G01X588622Y530174*
G03X588214Y530317I-353J-354*
G01X589691Y535481D02*
G03X588214Y530317I-1791J-2281D01*
G01X589691Y535481D02*
G03X590309I309J393D01*
G01X593891D02*
G03X590309I-1791J-2281D01*
G01X593891D02*
G03X594509I309J393D01*
G01X599072Y534053D02*
G03X594509Y535481I-2772J-853D01*
G01X599072Y534053D02*
G03X599550Y533700I478J147D01*
G01X601778*
G03X602251Y534040I-0J500*
G01X605741Y535918D02*
G03X602251Y534040I-741J-2804D01*
G01X605741Y535918D02*
G03X606350Y536265I128J483D01*
G01X611976Y534866D02*
G03X606350Y536265I-2836J608D01*
G01X611976Y534866D02*
G03X612226Y534322I488J-105D01*
G01X612828Y533885D02*
G03X612226Y534322I-1988J-2111D01*
G01X612828Y533885D02*
G03X613632Y534056I343J365D01*
G01X613998Y534602D02*
G03X613632Y534056I1202J-1202D01*
G01X613998Y534602D02*
X615065Y535669D01*
G03X615210Y536063I-354J354*
G01X617149Y539040D02*
G03X615210Y536063I951J-2740D01*
G01X617149Y539040D02*
G03X617455Y539341I-164J472D01*
X617857Y539190I360J347*
G01X620445Y534594D02*
G03X617857Y539190I-2345J1706D01*
G01X620445Y534594D02*
G03Y534006I405J-294D01*
G01X620995Y532471D02*
G03X620445Y534006I-2895J-171D01*
G01X620995Y532471D02*
G03X621494Y532000I499J29D01*
G01X622008*
G03X622389Y532176I-0J500*
G01X626890Y532079D02*
G03X622389Y532176I-2290J-1779D01*
G01X626890Y532079D02*
G03X627639Y532032I395J307D01*
G01X629800Y534194*
X630925Y534880D02*
G03X629800Y534194I855J-2666D01*
G01X630925Y534880D02*
G03X631263Y535456I-152J477D01*
G01X631237Y535714D02*
G03X631263Y535456I1300J0D01*
G01X631237Y535714D02*
Y538714D01*
X631244Y538848D02*
G03X631237Y538714I1293J-134D01*
G01X631244Y538848D02*
G03X630747Y539400I-497J52D01*
G01X630081*
G03X629613Y538724I0J-500*
G01X624008Y537909D02*
G03X629613Y538724I2892J-209D01*
G01X624008Y537909D02*
G03X623859Y538302I-499J36D01*
G01X621051Y541057*
G03X620701Y541200I-350J-357*
G01X619292*
G03X618911Y541024I0J-500*
G01X617651Y540160D02*
G03X618911Y541024I-951J2740D01*
G01X617651Y540160D02*
G03X617345Y539859I164J-472D01*
X616943Y540010I-360J-347*
G01X614338Y544583D02*
G03X616943Y540010I2362J-1683D01*
G01X614338Y544583D02*
G03X614309Y545200I-407J290D01*
G01X618711Y548976D02*
G03X614309Y545200I-2211J-1876D01*
G01X618711Y548976D02*
G03X619092Y548800I381J324D01*
G01X621100*
X622325Y548279D02*
G03X621100Y548800I-1225J-1179D01*
G01X622325Y548279D02*
X623947Y546593D01*
G03X624718Y546654I360J346*
G01X627839Y547804D02*
G03X624718Y546654I-739J-2804D01*
G01X627839Y547804D02*
G03X628020Y547790I128J484D01*
G01X628200Y547800D02*
G03X628020Y547790I0J-1700D01*
G01X628200Y547800D02*
X630737D01*
G03X631237Y548300I-0J500*
G01Y548714*
X631456Y549436D02*
G03X631237Y548714I1081J-722D01*
G01X631456Y549436D02*
G03Y549992I-416J278D01*
G01X631237Y550714D02*
G03X631456Y549992I1300J0D01*
G01X631237Y550714D02*
Y553714D01*
X631456Y554436D02*
G03X631237Y553714I1081J-722D01*
G01X631456Y554436D02*
G03Y554992I-416J278D01*
G01X631372Y555136D02*
G03X631456Y554992I1165J578D01*
G01X631372Y555136D02*
G03X630925Y555414I-447J-222D01*
G01X629317*
G03X628947Y555250I-0J-500*
G01X624144Y556036D02*
G03X628947Y555250I2656J1164D01*
G01X624144Y556036D02*
G03X623615Y556330I-458J-201D01*
G01X622103Y556515D02*
G03X623615Y556330I1097J2685D01*
G01X622103Y556515D02*
G03X621515Y556354I-189J-463D01*
G01X619795Y555262D02*
G03X621515Y556354I-595J2838D01*
G01X619795Y555262D02*
G03X619398Y554791I103J-490D01*
G01X614289Y553024D02*
G03X619398Y554791I2211J1876D01*
G01X614289Y553024D02*
G03X613908Y553200I-381J-324D01*
G01X610759*
G03X610403Y553051I0J-500*
G01X610183Y552828*
G03X610039Y552491I356J-351*
G01X606308Y555352D02*
G03X610039Y552491I832J-2778D01*
G01X606308Y555352D02*
G03X606302Y556312I-143J479D01*
G01X609903Y559845D02*
G03X606302Y556312I-2803J-745D01*
G01X609903Y559845D02*
G03X610386Y559474I483J129D01*
G01X616363*
G03X616780Y559698I0J500*
G01X620297Y560785D02*
G03X616780Y559698I-1097J-2685D01*
G01X620297Y560785D02*
G03X620885Y560946I189J463D01*
G01X621389Y561465D02*
G03X620885Y560946I1811J-2265D01*
G01X621389Y561465D02*
G03X621536Y562053I-312J391D01*
G01X621337Y562739D02*
G03X621536Y562053I2863J461D01*
G01X621337Y562739D02*
G03X621197Y563013I-494J-80D01*
G01X618971Y565239*
G03X618577Y565384I-354J-354*
G01X620226Y570477D02*
G03X618577Y565384I-1886J-2203D01*
G01X620226Y570477D02*
G03X620970Y570583I326J379D01*
G01X626278Y569353D02*
G03X620970Y570583I-2878J-353D01*
G01X626278Y569353D02*
G03X626775Y568914I497J61D01*
G01X630879*
G03X631339Y569220I-0J500*
G01X631456Y569436D02*
G03X631339Y569220I1081J-722D01*
G01X631456Y569436D02*
G03Y569992I-416J278D01*
G01X631237Y570714D02*
G03X631456Y569992I1300J0D01*
G01X631237Y570714D02*
Y573714D01*
X632537Y575014D02*
G03X631237Y573714I-0J-1300D01*
G01X632537Y575014D02*
X639875D01*
G03X640277Y575811I-0J500*
G01X646797D02*
G03X640277I-3260J2403D01*
G01X646797D02*
G03X647199Y575014I402J-297D01*
G01X654537*
X655837Y573714D02*
G03X654537Y575014I-1300J0D01*
G01X655200Y660600D02*
G03X655200I-11300J0D01*
G01X588487Y552689D02*
Y550189D01*
Y549689*
Y547689*
Y547189*
Y544689*
X587187Y543389D02*
G03X588487Y544689I0J1300D01*
G01X587187Y543389D02*
X584187D01*
X581687*
X579187*
X577887Y544689D02*
G03X579187Y543389I1300J0D01*
G01X577887Y544689D02*
Y547189D01*
Y549689*
Y552689*
X579187Y553989D02*
G03X577887Y552689I0J-1300D01*
G01X579187Y553989D02*
X582187D01*
X584687*
X587187*
X588487Y552689D02*
G03X587187Y553989I-1300J0D01*
G01X585512Y641740D02*
G03Y648864I5197J3562D01*
G01Y641740D02*
G03X584600Y641457I-412J-283D01*
G01Y607700*
X576600D02*
G03X584600I4000J0D01*
G01X576600D02*
Y641158D01*
G03X575704Y641462I-500J-0*
G01Y649141D02*
G03Y641462I-4995J-3839D01*
G01Y649141D02*
G03X576600Y649446I396J305D01*
G01Y650718*
G03X576454Y651071I-500J0*
G01X584762Y650878D02*
G03X576454Y651071I-4053J4424D01*
G01X584762Y650878D02*
G03X584600Y650510I338J-368D01*
G01X584600D02*
Y649147D01*
G03X585512Y648864I500J-0*
G01X597009Y665302D02*
G03X597009I-6300J0D01*
G01X577009D02*
G03X577009I-6300J0D01*
G01X552101Y548599D02*
G03Y554229I699J2815D01*
G01Y548599D02*
G03X551981Y548614I-120J-485D01*
G01X538719*
G03X538598Y548599I-0J-500*
G01Y554229D02*
G03Y548599I-698J-2815D01*
G01Y554229D02*
G03X538719Y554214I121J485D01*
G01X551981*
G03X552101Y554229I-0J500*
G01X528527Y510618D02*
G03X532648Y510507I1960J-3828D01*
G01X528527Y510618D02*
G03X528799Y511063I-228J445D01*
G01Y523914*
G03X528299Y524414I-500J-0*
G01X521037*
X520704Y524457D02*
G03X521037Y524414I333J1257D01*
G01X520704Y524457D02*
G03X520237Y523606I-128J-483D01*
G01X515837D02*
G03X520237I2200J-2392D01*
G01X515837D02*
G03X515370Y524457I-339J368D01*
G01X515037Y524414D02*
G03X515370Y524457I-0J1300D01*
G01X515037Y524414D02*
X507037D01*
X505737Y525714D02*
G03X507037Y524414I1300J0D01*
G01X505737Y525714D02*
Y528714D01*
X505956Y529436D02*
G03X505737Y528714I1081J-722D01*
G01X505956Y529436D02*
G03Y529992I-416J278D01*
G01X505737Y530714D02*
G03X505956Y529992I1300J0D01*
G01X505737Y530714D02*
Y533714D01*
X505956Y534436D02*
G03X505737Y533714I1081J-722D01*
G01X505956Y534436D02*
G03Y534992I-416J278D01*
G01X505737Y535714D02*
G03X505956Y534992I1300J0D01*
G01X505737Y535714D02*
Y538714D01*
X505956Y539436D02*
G03X505737Y538714I1081J-722D01*
G01X505956Y539436D02*
G03Y539992I-416J278D01*
G01X505737Y540714D02*
G03X505956Y539992I1300J0D01*
G01X505737Y540714D02*
Y543714D01*
X505956Y544436D02*
G03X505737Y543714I1081J-722D01*
G01X505956Y544436D02*
G03Y544992I-416J278D01*
G01X505737Y545714D02*
G03X505956Y544992I1300J0D01*
G01X505737Y545714D02*
Y548714D01*
X505956Y549436D02*
G03X505737Y548714I1081J-722D01*
G01X505956Y549436D02*
G03Y549992I-416J278D01*
G01X505737Y550714D02*
G03X505956Y549992I1300J0D01*
G01X505737Y550714D02*
Y553714D01*
X505956Y554436D02*
G03X505737Y553714I1081J-722D01*
G01X505956Y554436D02*
G03Y554992I-416J278D01*
G01X505737Y555714D02*
G03X505956Y554992I1300J0D01*
G01X505737Y555714D02*
Y558714D01*
X505956Y559436D02*
G03X505737Y558714I1081J-722D01*
G01X505956Y559436D02*
G03Y559992I-416J278D01*
G01X505737Y560714D02*
G03X505956Y559992I1300J0D01*
G01X505737Y560714D02*
Y563714D01*
X505956Y564436D02*
G03X505737Y563714I1081J-722D01*
G01X505956Y564436D02*
G03Y564992I-416J278D01*
G01X505737Y565714D02*
G03X505956Y564992I1300J0D01*
G01X505737Y565714D02*
Y568714D01*
X505956Y569436D02*
G03X505737Y568714I1081J-722D01*
G01X505956Y569436D02*
G03Y569992I-416J278D01*
G01X505737Y570714D02*
G03X505956Y569992I1300J0D01*
G01X505737Y570714D02*
Y573714D01*
X507037Y575014D02*
G03X505737Y573714I-0J-1300D01*
G01X507037Y575014D02*
X514375D01*
G03X514777Y575811I-0J500*
G01X521297D02*
G03X514777I-3260J2403D01*
G01X521297D02*
G03X521699Y575014I402J-297D01*
G01X529037*
X530337Y573714D02*
G03X529037Y575014I-1300J0D01*
G01X530337Y573714D02*
Y570714D01*
X530118Y569992D02*
G03X530337Y570714I-1081J722D01*
G01X530118Y569992D02*
G03Y569436I416J-278D01*
G01X530337Y568714D02*
G03X530118Y569436I-1300J0D01*
G01X530337Y568714D02*
Y565714D01*
X530118Y564992D02*
G03X530337Y565714I-1081J722D01*
G01X530118Y564992D02*
G03Y564436I416J-278D01*
G01X530337Y563714D02*
G03X530118Y564436I-1300J0D01*
G01X530337Y563714D02*
Y560714D01*
X530118Y559992D02*
G03X530337Y560714I-1081J722D01*
G01X530118Y559992D02*
G03Y559436I416J-278D01*
G01X530337Y558714D02*
G03X530118Y559436I-1300J0D01*
G01X530337Y558714D02*
Y555714D01*
X530118Y554992D02*
G03X530337Y555714I-1081J722D01*
G01X530118Y554992D02*
G03Y554436I416J-278D01*
G01X530337Y553714D02*
G03X530118Y554436I-1300J0D01*
G01X530337Y553714D02*
Y550714D01*
X530118Y549992D02*
G03X530337Y550714I-1081J722D01*
G01X530118Y549992D02*
G03Y549436I416J-278D01*
G01X530337Y548714D02*
G03X530118Y549436I-1300J0D01*
G01X530337Y548714D02*
Y545714D01*
X530118Y544992D02*
G03X530337Y545714I-1081J722D01*
G01X530118Y544992D02*
G03Y544436I416J-278D01*
G01X530337Y543714D02*
G03X530118Y544436I-1300J0D01*
G01X530337Y543714D02*
Y540714D01*
X530118Y539992D02*
G03X530337Y540714I-1081J722D01*
G01X530118Y539992D02*
G03Y539436I416J-278D01*
G01X530337Y538714D02*
G03X530118Y539436I-1300J0D01*
G01X530337Y538714D02*
Y537629D01*
G03X530483Y537276I500J0*
G01X531872Y535887*
X532400Y534614D02*
G03X531872Y535887I-1800J0D01*
G01X532400Y534614D02*
Y510940D01*
G03X532648Y510507I500J-0*
G01X521840Y607974D02*
Y596974D01*
X521313Y595701D02*
G03X521840Y596974I-1273J1273D01*
G01X521313Y595701D02*
X519513Y593901D01*
X518240Y593374D02*
G03X519513Y593901I0J1800D01*
G01X518240Y593374D02*
X517603D01*
G03X517103Y592874I0J-500*
G01Y592537*
X516430Y590911D02*
G03X517103Y592537I-1627J1626D01*
G01X516430Y590911D02*
X513430Y587911D01*
G03X513292Y587649I354J-353*
G01X509915Y591026D02*
G03X513292Y587649I525J-2852D01*
G01X509915Y591026D02*
G03X510177Y591164I-91J492D01*
G01X512357Y593344*
G03X512503Y593697I-354J353*
G01Y595174*
X512511Y595367D02*
G03X512503Y595174I2292J-193D01*
G01X512511Y595367D02*
G03X512105Y595900I-498J42D01*
G01X511987Y595928D02*
G03X512105Y595900I356J1251D01*
G01X511987Y595928D02*
G03X511714I-137J-481D01*
G01X511358Y595879D02*
G03X511714Y595928I0J1300D01*
G01X511358Y595879D02*
X510374D01*
X509074Y597179D02*
G03X510374Y595879I1300J-0D01*
G01X509074Y597179D02*
Y600525D01*
X509714Y601645D02*
G03X509074Y600525I660J-1120D01*
G01X509714Y601645D02*
G03X509960Y602076I-254J431D01*
G01Y606848*
G03X509714Y607279I-500J0*
G01X509088Y608210D02*
G03X509714Y607279I1286J189D01*
G01X509088Y608210D02*
G03X508535Y608633I-495J-73D01*
G01X508220Y614414D02*
G03X508535Y608633I-20J-2900D01*
G01X508220Y614414D02*
G03X508720Y614855I3J500D01*
G01X513199Y616933D02*
G03X508720Y614855I-1599J-2419D01*
G01X513199Y616933D02*
G03X513975Y617350I276J417D01*
G01Y618947*
X515275Y620247D02*
G03X513975Y618947I0J-1300D01*
G01X515275Y620247D02*
X517275D01*
X518575Y618947D02*
G03X517275Y620247I-1300J-0D01*
G01X518575Y618947D02*
Y616947D01*
X518440Y616369D02*
G03X518575Y616947I-1165J578D01*
G01X518440Y616369D02*
G03Y615924I448J-222D01*
G01X518575Y615347D02*
G03X518440Y615924I-1300J-0D01*
G01X518575Y615347D02*
Y613347D01*
X518573Y613264D02*
G03X518575Y613347I-1298J83D01*
G01X518573Y613264D02*
G03X518572Y613233I499J-31D01*
G01Y611742*
G03X518947Y611258I500J-0*
G01X519773Y610787D02*
G03X518947Y611258I-1273J-1273D01*
G01X519773Y610787D02*
X521313Y609247D01*
X521840Y607974D02*
G03X521313Y609247I-1800J0D01*
G01X528300Y660600D02*
G03X528300I-11300J0D01*
G01X524787Y506790D02*
G03X524787I-4300J0D01*
G01X514787D02*
G03X514787I-4300J0D01*
G01X634787D02*
G03X634787I-4300J0D01*
G01X624787D02*
G03X624787I-4300J0D01*
G01X614787D02*
G03X614787I-4300J0D01*
G01X604787D02*
G03X604787I-4300J0D01*
G01X594787D02*
G03X594787I-4300J0D01*
G01X584787D02*
G03X584787I-4300J0D01*
G01X574787D02*
G03X574787I-4300J0D01*
G01X564787D02*
G03X564787I-4300J0D01*
G01X554787D02*
G03X554787I-4300J0D01*
G01X544787D02*
G03X544787I-4300J0D01*
G01X516041Y569799D02*
X520033D01*
X516047Y544599D02*
X520027D01*
X516069Y559899D02*
X520005D01*
X516082Y554499D02*
X519992D01*
X516123Y549999D02*
X519951D01*
X516142Y564399D02*
X519932D01*
X516269Y565299D02*
X519805D01*
X516279Y549099D02*
X519795D01*
X516298Y555399D02*
X519776D01*
X516305Y558999D02*
X519769D01*
X516319Y545499D02*
X519755D01*
X516324Y568899D02*
X519750D01*
X516337Y570699D02*
X519737D01*
X516337Y573399D02*
X519737D01*
X516337Y572499D02*
X519737D01*
X516337Y571599D02*
X519737D01*
X516337Y567999D02*
X519737D01*
X516337Y567099D02*
X519737D01*
X516337Y566199D02*
X519737D01*
X516337Y563499D02*
X519737D01*
X516337Y562599D02*
X519737D01*
X516337Y561699D02*
X519737D01*
X516337Y560799D02*
X519737D01*
X516337Y558099D02*
X519737D01*
X516337Y557199D02*
X519737D01*
X516337Y556299D02*
X519737D01*
X516337Y553599D02*
X519737D01*
X516337Y552699D02*
X519737D01*
X516337Y551799D02*
X519737D01*
X516337Y550899D02*
X519737D01*
X516337Y548199D02*
X519737D01*
X516337Y547299D02*
X519737D01*
X516337Y546399D02*
X519737D01*
X516344Y543699D02*
X519737D01*
X519073Y574299D02*
X519404D01*
X516670D02*
X517001D01*
X515999Y524799D02*
X520075D01*
X516337Y525699D02*
X519737D01*
X516337Y528399D02*
X519737D01*
X516337Y527499D02*
X519737D01*
X516337Y526599D02*
X519737D01*
X641541Y569799D02*
X645533D01*
X641824Y568899D02*
X645250D01*
X641837Y570699D02*
X645237D01*
X641837Y573399D02*
X645237D01*
X641837Y572499D02*
X645237D01*
X641837Y571599D02*
X645237D01*
X644573Y574299D02*
X644904D01*
X642170D02*
X642501D01*
X641499Y524799D02*
X645575D01*
X641837Y525699D02*
X645237D01*
X641837Y528399D02*
X645237D01*
X641837Y527499D02*
X645237D01*
X641837Y526599D02*
X645237D01*
X642006Y529299D02*
X645068D01*
X501332Y673299D02*
X660149D01*
X501332Y672399D02*
X660149D01*
X646885Y671499D02*
X660149D01*
X649165Y670599D02*
X660149D01*
X650601Y669699D02*
X660149D01*
X651676Y668799D02*
X660149D01*
X652527Y667899D02*
X660149D01*
X653214Y666999D02*
X660149D01*
X653772Y666099D02*
X660149D01*
X654222Y665199D02*
X660149D01*
X654578Y664299D02*
X660149D01*
X654848Y663399D02*
X660149D01*
X655039Y662499D02*
X660149D01*
X655156Y661599D02*
X660149D01*
X655200Y660699D02*
X660149D01*
X655172Y659799D02*
X660149D01*
X655071Y658899D02*
X660149D01*
X654897Y657999D02*
X660149D01*
X654644Y657099D02*
X660149D01*
X654308Y656199D02*
X660149D01*
X653879Y655299D02*
X660149D01*
X653346Y654399D02*
X660149D01*
X652690Y653499D02*
X660149D01*
X651879Y652599D02*
X660149D01*
X650861Y651699D02*
X660149D01*
X649524Y650799D02*
X660149D01*
X647529Y649899D02*
X660149D01*
X595810Y648999D02*
X660149D01*
X596354Y648099D02*
X660149D01*
X596716Y647199D02*
X660149D01*
X596929Y646299D02*
X660149D01*
X597008Y645399D02*
X660149D01*
X596957Y644499D02*
X660149D01*
X596774Y643599D02*
X660149D01*
X596446Y642699D02*
X660149D01*
X595945Y641799D02*
X660149D01*
X595215Y640899D02*
X660149D01*
X594110Y639999D02*
X660149D01*
X591809Y639099D02*
X660149D01*
X584600Y638199D02*
X660149D01*
X584600Y637299D02*
X660149D01*
X584600Y636399D02*
X660149D01*
X584600Y635499D02*
X660149D01*
X584600Y634599D02*
X660149D01*
X584600Y633699D02*
X660149D01*
X584600Y632799D02*
X660149D01*
X584600Y631899D02*
X660149D01*
X584600Y630999D02*
X660149D01*
X584600Y630099D02*
X660149D01*
X584600Y629199D02*
X660149D01*
X584600Y628299D02*
X660149D01*
X584600Y627399D02*
X660149D01*
X584600Y626499D02*
X660149D01*
X584600Y625599D02*
X660149D01*
X584600Y624699D02*
X660149D01*
X584600Y623799D02*
X660149D01*
X584600Y622899D02*
X660149D01*
X584600Y621999D02*
X660149D01*
X584600Y621099D02*
X660149D01*
X584600Y620199D02*
X660149D01*
X584600Y619299D02*
X660149D01*
X584600Y618399D02*
X660149D01*
X584600Y617499D02*
X660149D01*
X584600Y616599D02*
X660149D01*
X584600Y615699D02*
X660149D01*
X584600Y614799D02*
X660149D01*
X584600Y613899D02*
X660149D01*
X584600Y612999D02*
X660149D01*
X584600Y612099D02*
X660149D01*
X584600Y611199D02*
X660149D01*
X584600Y610299D02*
X660149D01*
X584600Y609399D02*
X660149D01*
X584600Y608499D02*
X660149D01*
X584599Y607599D02*
X660149D01*
X584473Y606699D02*
X660149D01*
X584119Y605799D02*
X660149D01*
X583455Y604899D02*
X660149D01*
X582117Y603999D02*
X660149D01*
X521840Y603099D02*
X660149D01*
X521840Y602199D02*
X660149D01*
X521840Y601299D02*
X660149D01*
X521840Y600399D02*
X660149D01*
X521840Y599499D02*
X660149D01*
X521840Y598599D02*
X660149D01*
X521840Y597699D02*
X660149D01*
X521831Y596799D02*
X660149D01*
X521484Y595899D02*
X660149D01*
X520610Y594999D02*
X660149D01*
X519710Y594099D02*
X660149D01*
X517223Y593199D02*
X660149D01*
X517091Y592299D02*
X660149D01*
X516802Y591399D02*
X660149D01*
X516017Y590499D02*
X660149D01*
X515117Y589599D02*
X660149D01*
X514217Y588699D02*
X660149D01*
X513346Y587799D02*
X660149D01*
X513045Y586899D02*
X660149D01*
X512358Y585999D02*
X660149D01*
X501332Y585099D02*
X660149D01*
X501332Y584199D02*
X660149D01*
X501332Y583299D02*
X660149D01*
X501332Y582399D02*
X660149D01*
X645906Y581499D02*
X660149D01*
X646811Y580599D02*
X660149D01*
X647305Y579699D02*
X660149D01*
X647545Y578799D02*
X660149D01*
X647575Y577899D02*
X660149D01*
X647400Y576999D02*
X660149D01*
X646991Y576099D02*
X660149D01*
X646811Y575199D02*
X660149D01*
X655698Y574299D02*
X660149D01*
X655837Y573399D02*
X660149D01*
X655837Y572499D02*
X660149D01*
X655837Y571599D02*
X660149D01*
X655837Y570699D02*
X660149D01*
X655541Y569799D02*
X660149D01*
X655824Y568899D02*
X660149D01*
X655837Y567999D02*
X660149D01*
X655837Y567099D02*
X660149D01*
X655837Y566199D02*
X660149D01*
X655769Y565299D02*
X660149D01*
X655642Y564399D02*
X660149D01*
X655837Y563499D02*
X660149D01*
X655837Y562599D02*
X660149D01*
X655837Y561699D02*
X660149D01*
X655837Y560799D02*
X660149D01*
X655569Y559899D02*
X660149D01*
X655805Y558999D02*
X660149D01*
X655837Y558099D02*
X660149D01*
X655837Y557199D02*
X660149D01*
X655837Y556299D02*
X660149D01*
X655798Y555399D02*
X660149D01*
X655582Y554499D02*
X660149D01*
X655837Y553599D02*
X660149D01*
X655837Y552699D02*
X660149D01*
X655837Y551799D02*
X660149D01*
X655837Y550899D02*
X660149D01*
X655623Y549999D02*
X660149D01*
X655779Y549099D02*
X660149D01*
X655837Y548199D02*
X660149D01*
X655837Y547299D02*
X660149D01*
X655837Y546399D02*
X660149D01*
X655819Y545499D02*
X660149D01*
X655547Y544599D02*
X660149D01*
X655837Y543699D02*
X660149D01*
X655837Y542799D02*
X660149D01*
X655837Y541899D02*
X660149D01*
X655837Y540999D02*
X660149D01*
X655682Y540099D02*
X660149D01*
X655743Y539199D02*
X660149D01*
X655837Y538299D02*
X660149D01*
X655837Y537399D02*
X660149D01*
X655837Y536499D02*
X660149D01*
X655832Y535599D02*
X660149D01*
X655534Y534699D02*
X660149D01*
X655834Y533799D02*
X660149D01*
X655837Y532899D02*
X660149D01*
X655837Y531999D02*
X660149D01*
X655837Y531099D02*
X660149D01*
X655731Y530199D02*
X660149D01*
X655698Y529299D02*
X660149D01*
X655837Y528399D02*
X660149D01*
X655837Y527499D02*
X660149D01*
X655837Y526599D02*
X660149D01*
X655837Y525699D02*
X660149D01*
X655460Y524799D02*
X660149D01*
X645581Y523899D02*
X660149D01*
X646253Y522999D02*
X660149D01*
X646664Y522099D02*
X660149D01*
X646787Y521199D02*
X660149D01*
X646655Y520299D02*
X660149D01*
X646233Y519399D02*
X660149D01*
X645323Y518499D02*
X660149D01*
X629312Y517599D02*
X660149D01*
X628407Y516699D02*
X660149D01*
X627501Y515799D02*
X660149D01*
X626596Y514899D02*
X660149D01*
X625690Y513999D02*
X660149D01*
X624785Y513099D02*
X660149D01*
X623071Y512199D02*
X660149D01*
X532400Y511299D02*
X660149D01*
X652825Y510399D02*
X660149D01*
X653827Y509499D02*
X660149D01*
X654388Y508599D02*
X660149D01*
X654690Y507699D02*
X660149D01*
X654787Y506799D02*
X660149D01*
X654694Y505899D02*
X660149D01*
X654396Y504999D02*
X660149D01*
X653841Y504099D02*
X660149D01*
X652852Y503199D02*
X660149D01*
X501332Y502299D02*
X660149D01*
X501533Y501399D02*
X659947D01*
X642825Y510399D02*
X648149D01*
X642852Y503199D02*
X648122D01*
X643827Y509499D02*
X647147D01*
X643841Y504099D02*
X647133D01*
X644388Y508599D02*
X646586D01*
X644396Y504999D02*
X646578D01*
X644690Y507699D02*
X646284D01*
X644694Y505899D02*
X646280D01*
X644787Y506799D02*
X646187D01*
X630218Y518499D02*
X641751D01*
X632140Y523899D02*
X641493D01*
X520406Y581499D02*
X641168D01*
X591844Y671499D02*
X640915D01*
X631123Y519399D02*
X640841D01*
X632140Y522999D02*
X640821D01*
X631833Y520299D02*
X640419D01*
X632140Y522099D02*
X640410D01*
X632115Y521199D02*
X640287D01*
X595017Y649899D02*
X640271D01*
X521311Y580599D02*
X640263D01*
X521311Y575199D02*
X640263D01*
X521491Y576099D02*
X640083D01*
X521805Y579699D02*
X639769D01*
X521900Y576999D02*
X639674D01*
X522045Y578799D02*
X639529D01*
X522075Y577899D02*
X639499D01*
X594119Y670599D02*
X638635D01*
X593787Y650799D02*
X638276D01*
X632825Y510399D02*
X638149D01*
X632852Y503199D02*
X638122D01*
X595221Y669699D02*
X637199D01*
X633827Y509499D02*
X637147D01*
X633841Y504099D02*
X637133D01*
X585506Y651699D02*
X636939D01*
X634388Y508599D02*
X636586D01*
X634396Y504999D02*
X636578D01*
X634690Y507699D02*
X636284D01*
X634694Y505899D02*
X636280D01*
X634787Y506799D02*
X636187D01*
X595949Y668799D02*
X636124D01*
X586065Y652599D02*
X635921D01*
X596449Y667899D02*
X635273D01*
X586431Y653499D02*
X635110D01*
X596776Y666999D02*
X634586D01*
X586640Y654399D02*
X634454D01*
X596958Y666099D02*
X634028D01*
X586709Y655299D02*
X633921D01*
X597008Y665199D02*
X633578D01*
X586641Y656199D02*
X633492D01*
X596928Y664299D02*
X633222D01*
X586433Y657099D02*
X633156D01*
X596714Y663399D02*
X632952D01*
X586068Y657999D02*
X632903D01*
X596351Y662499D02*
X632761D01*
X585511Y658899D02*
X632729D01*
X595805Y661599D02*
X632644D01*
X593776Y659799D02*
X632628D01*
X595010Y660699D02*
X632600D01*
X626188Y569799D02*
X631533D01*
X627855Y554499D02*
X631492D01*
X616588Y549999D02*
X631451D01*
X530198Y574299D02*
X631376D01*
X618601Y549099D02*
X631295D01*
X628899Y535599D02*
X631242D01*
X625750Y570699D02*
X631237D01*
X530337Y573399D02*
X631237D01*
X530337Y572499D02*
X631237D01*
X624687Y571599D02*
X631237D01*
X619092Y553599D02*
X631237D01*
X618388Y552699D02*
X631237D01*
X609934Y551799D02*
X631237D01*
X609507Y550899D02*
X631237D01*
X629738Y538299D02*
X631237D01*
X629784Y537399D02*
X631237D01*
X629539Y536499D02*
X631237D01*
X622402Y548199D02*
X631227D01*
X629680Y539199D02*
X631148D01*
X629194Y555399D02*
X631047D01*
X620518Y534699D02*
X630489D01*
X620583Y533799D02*
X629405D01*
X625887Y532899D02*
X628505D01*
X622825Y510399D02*
X628149D01*
X622852Y503199D02*
X628122D01*
X626969Y531999D02*
X627601D01*
X623827Y509499D02*
X627147D01*
X623841Y504099D02*
X627133D01*
X624388Y508599D02*
X626586D01*
X624396Y504999D02*
X626578D01*
X619409Y526599D02*
X626540D01*
X620093Y525699D02*
X626540D01*
X620372Y524799D02*
X626540D01*
X620356Y523899D02*
X626540D01*
X620039Y522999D02*
X626540D01*
X625350Y527499D02*
X626455D01*
X624690Y507699D02*
X626284D01*
X624694Y505899D02*
X626280D01*
X624787Y506799D02*
X626187D01*
X619265Y522099D02*
X625896D01*
X619372Y554499D02*
X625745D01*
X623268Y547299D02*
X625332D01*
X614930Y521199D02*
X624990D01*
X620914Y535599D02*
X624901D01*
X620255Y555399D02*
X624527D01*
X620993Y536499D02*
X624261D01*
X540700Y520299D02*
X624085D01*
X620784Y537399D02*
X624016D01*
X621473Y556299D02*
X623873D01*
X620201Y538299D02*
X623862D01*
X619717Y527499D02*
X623850D01*
X620938Y532899D02*
X623313D01*
X540820Y519399D02*
X623179D01*
X618188Y539199D02*
X622945D01*
X620609Y528399D02*
X622410D01*
X541703Y518499D02*
X622274D01*
X530337Y571599D02*
X622113D01*
X617530Y540099D02*
X622028D01*
X608387Y561699D02*
X621552D01*
X530337Y562599D02*
X621363D01*
X618890Y540999D02*
X621110D01*
X619931Y570699D02*
X621050D01*
X530337Y563499D02*
X620711D01*
X620262Y560799D02*
X620706D01*
X530142Y564399D02*
X619811D01*
X530269Y565299D02*
X618899D01*
X612825Y510399D02*
X618149D01*
X609450Y560799D02*
X618138D01*
X612852Y503199D02*
X618122D01*
X617713Y539199D02*
X618012D01*
X530243D02*
X617375D01*
X613827Y509499D02*
X617147D01*
X613841Y504099D02*
X617133D01*
X609888Y559899D02*
X616925D01*
X530337Y570699D02*
X616749D01*
X614388Y508599D02*
X616586D01*
X614396Y504999D02*
X616578D01*
X608473Y549999D02*
X616412D01*
X530337Y566199D02*
X616314D01*
X614690Y507699D02*
X616284D01*
X614694Y505899D02*
X616280D01*
X614787Y506799D02*
X616187D01*
X609797Y538299D02*
X615999D01*
X530182Y540099D02*
X615950D01*
X530041Y569799D02*
X615873D01*
X530337Y567099D02*
X615689D01*
X530324Y568899D02*
X615508D01*
X530337Y567999D02*
X615453D01*
X611309Y537399D02*
X615416D01*
X611853Y536499D02*
X615207D01*
X612037Y535599D02*
X614994D01*
X610091Y552699D02*
X614612D01*
X530337Y540999D02*
X614510D01*
X588487Y549099D02*
X614399D01*
X588484Y544599D02*
X614349D01*
X611968Y534699D02*
X614094D01*
X588487Y545499D02*
X614082D01*
X530337Y541899D02*
X613978D01*
X588029Y543699D02*
X613912D01*
X588487Y548199D02*
X613816D01*
X530337Y542799D02*
X613802D01*
X588487Y546399D02*
X613686D01*
X588487Y547299D02*
X613607D01*
X612954Y533799D02*
X613387D01*
X530337Y538299D02*
X608483D01*
X602825Y510399D02*
X608149D01*
X602852Y503199D02*
X608122D01*
X603827Y509499D02*
X607147D01*
X603841Y504099D02*
X607133D01*
X530393Y537399D02*
X606971D01*
X604388Y508599D02*
X606586D01*
X604396Y504999D02*
X606578D01*
X531260Y536499D02*
X606427D01*
X530298Y555399D02*
X606416D01*
X530337Y556299D02*
X606342D01*
X604690Y507699D02*
X606284D01*
X604694Y505899D02*
X606280D01*
X604787Y506799D02*
X606187D01*
X530337Y561699D02*
X605813D01*
X588487Y549999D02*
X605807D01*
X530082Y554499D02*
X604971D01*
X530337Y557199D02*
X604910D01*
X588487Y550899D02*
X604773D01*
X530337Y560799D02*
X604750D01*
X588116Y553599D02*
X604427D01*
X530337Y558099D02*
X604378D01*
X588487Y551799D02*
X604346D01*
X530069Y559899D02*
X604312D01*
X588487Y552699D02*
X604243D01*
X530305Y558999D02*
X604202D01*
X597930Y535599D02*
X603504D01*
X598783Y534699D02*
X602571D01*
X599251Y533799D02*
X602076D01*
X592825Y510399D02*
X598149D01*
X592852Y503199D02*
X598122D01*
X593827Y509499D02*
X597147D01*
X593841Y504099D02*
X597133D01*
X594388Y508599D02*
X596586D01*
X594396Y504999D02*
X596578D01*
X594690Y507699D02*
X596284D01*
X594694Y505899D02*
X596280D01*
X594787Y506799D02*
X596187D01*
X593730Y535599D02*
X594670D01*
X589530D02*
X590470D01*
X584600Y639099D02*
X589608D01*
X571844Y671499D02*
X589573D01*
X580040Y529299D02*
X589399D01*
X580040Y530199D02*
X588595D01*
X582825Y510399D02*
X588149D01*
X582852Y503199D02*
X588122D01*
X584681Y659799D02*
X587642D01*
X584692Y650799D02*
X587631D01*
X584600Y639999D02*
X587308D01*
X574119Y670599D02*
X587298D01*
X583827Y509499D02*
X587147D01*
X583841Y504099D02*
X587133D01*
X584388Y508599D02*
X586586D01*
X584396Y504999D02*
X586578D01*
X583331Y660699D02*
X586407D01*
X584600Y649899D02*
X586401D01*
X584690Y507699D02*
X586284D01*
X584694Y505899D02*
X586280D01*
X579931Y535599D02*
X586270D01*
X584600Y640899D02*
X586203D01*
X575221Y669699D02*
X586197D01*
X584787Y506799D02*
X586187D01*
X580366Y531099D02*
X585901D01*
X575805Y661599D02*
X585612D01*
X584622Y648999D02*
X585607D01*
X575949Y668799D02*
X585468D01*
X584735Y641799D02*
X585465D01*
X580807Y534699D02*
X585417D01*
X580991Y531999D02*
X585261D01*
X576351Y662499D02*
X585067D01*
X581172Y533799D02*
X585062D01*
X581227Y532899D02*
X585016D01*
X576449Y667899D02*
X584969D01*
X576714Y663399D02*
X584703D01*
X576776Y666999D02*
X584641D01*
X576928Y664299D02*
X584489D01*
X576958Y666099D02*
X584459D01*
X577008Y665199D02*
X584409D01*
X521840Y603999D02*
X579083D01*
X530337Y543699D02*
X578345D01*
X554707Y553599D02*
X578258D01*
X572825Y510399D02*
X578149D01*
X572852Y503199D02*
X578122D01*
X575010Y660699D02*
X578087D01*
X530047Y544599D02*
X577890D01*
X555399Y552699D02*
X577887D01*
X555674Y551799D02*
X577887D01*
X555653Y550899D02*
X577887D01*
X555331Y549999D02*
X577887D01*
X554546Y549099D02*
X577887D01*
X530337Y548199D02*
X577887D01*
X530337Y547299D02*
X577887D01*
X530337Y546399D02*
X577887D01*
X530319Y545499D02*
X577887D01*
X521840Y604899D02*
X577745D01*
X573827Y509499D02*
X577147D01*
X573841Y504099D02*
X577133D01*
X521840Y605799D02*
X577081D01*
X575831Y535599D02*
X576749D01*
X573776Y659799D02*
X576736D01*
X521840Y606699D02*
X576727D01*
X521840Y607599D02*
X576601D01*
X575017Y649899D02*
X576600D01*
X575215Y640899D02*
X576600D01*
X574110Y639999D02*
X576600D01*
X571809Y639099D02*
X576600D01*
X501332Y638199D02*
X576600D01*
X501332Y637299D02*
X576600D01*
X501332Y636399D02*
X576600D01*
X501332Y635499D02*
X576600D01*
X501332Y634599D02*
X576600D01*
X501332Y633699D02*
X576600D01*
X501332Y632799D02*
X576600D01*
X501332Y631899D02*
X576600D01*
X501332Y630999D02*
X576600D01*
X501332Y630099D02*
X576600D01*
X501332Y629199D02*
X576600D01*
X501332Y628299D02*
X576600D01*
X501332Y627399D02*
X576600D01*
X501332Y626499D02*
X576600D01*
X501332Y625599D02*
X576600D01*
X501332Y624699D02*
X576600D01*
X501332Y623799D02*
X576600D01*
X501332Y622899D02*
X576600D01*
X501332Y621999D02*
X576600D01*
X501332Y621099D02*
X576600D01*
X517625Y620199D02*
X576600D01*
X518527Y619299D02*
X576600D01*
X518575Y618399D02*
X576600D01*
X518575Y617499D02*
X576600D01*
X518528Y616599D02*
X576600D01*
X518527Y615699D02*
X576600D01*
X518575Y614799D02*
X576600D01*
X518575Y613899D02*
X576600D01*
X518572Y612999D02*
X576600D01*
X518572Y612099D02*
X576600D01*
X519134Y611199D02*
X576600D01*
X520261Y610299D02*
X576600D01*
X521161Y609399D02*
X576600D01*
X521762Y608499D02*
X576600D01*
X573787Y650799D02*
X576593D01*
X574388Y508599D02*
X576586D01*
X574396Y504999D02*
X576578D01*
X575877Y648999D02*
X576323D01*
X574690Y507699D02*
X576284D01*
X574694Y505899D02*
X576280D01*
X574787Y506799D02*
X576187D01*
X523961Y651699D02*
X575911D01*
X528171Y658899D02*
X575906D01*
X540700Y521199D02*
X575513D01*
X524979Y652599D02*
X575352D01*
X527997Y657999D02*
X575349D01*
X525790Y653499D02*
X574986D01*
X527744Y657099D02*
X574984D01*
X526446Y654399D02*
X574777D01*
X527408Y656199D02*
X574776D01*
X526979Y655299D02*
X574709D01*
X540700Y522099D02*
X574621D01*
X540700Y522999D02*
X573730D01*
X540700Y523899D02*
X572838D01*
X571731Y535599D02*
X572649D01*
X540700Y524799D02*
X571946D01*
X540700Y525699D02*
X571054D01*
X540700Y526599D02*
X570162D01*
X501332Y639099D02*
X569608D01*
X519985Y671499D02*
X569573D01*
X540700Y527499D02*
X569270D01*
X567631Y535599D02*
X568549D01*
X540700Y528399D02*
X568379D01*
X562825Y510399D02*
X568149D01*
X562852Y503199D02*
X568122D01*
X528272Y659799D02*
X567642D01*
X522624Y650799D02*
X567631D01*
X540700Y529299D02*
X567487D01*
X501332Y639999D02*
X567308D01*
X522265Y670599D02*
X567298D01*
X563827Y509499D02*
X567147D01*
X563841Y504099D02*
X567133D01*
X564388Y508599D02*
X566586D01*
X540714Y530199D02*
X566581D01*
X564396Y504999D02*
X566578D01*
X528300Y660699D02*
X566407D01*
X520629Y649899D02*
X566401D01*
X564690Y507699D02*
X566284D01*
X564694Y505899D02*
X566280D01*
X501332Y640899D02*
X566203D01*
X523701Y669699D02*
X566197D01*
X564787Y506799D02*
X566187D01*
X528256Y661599D02*
X565612D01*
X501332Y648999D02*
X565607D01*
X501332Y641799D02*
X565472D01*
X524776Y668799D02*
X565468D01*
X528139Y662499D02*
X565067D01*
X501332Y648099D02*
X565064D01*
X501332Y642699D02*
X564972D01*
X525627Y667899D02*
X564969D01*
X527948Y663399D02*
X564703D01*
X501332Y647199D02*
X564701D01*
X501332Y643599D02*
X564643D01*
X526314Y666999D02*
X564641D01*
X527678Y664299D02*
X564489D01*
X501332Y646299D02*
X564488D01*
X501332Y644499D02*
X564460D01*
X526872Y666099D02*
X564459D01*
X532106Y535599D02*
X564449D01*
X527322Y665199D02*
X564409D01*
X501332Y645399D02*
X564409D01*
X540793Y531099D02*
X564014D01*
X532398Y534699D02*
X563573D01*
X540584Y531999D02*
X563389D01*
X537988Y533799D02*
X563208D01*
X540001Y532899D02*
X563153D01*
X552825Y510399D02*
X558149D01*
X552852Y503199D02*
X558122D01*
X553827Y509499D02*
X557147D01*
X553841Y504099D02*
X557133D01*
X554388Y508599D02*
X556586D01*
X554396Y504999D02*
X556578D01*
X554690Y507699D02*
X556284D01*
X554694Y505899D02*
X556280D01*
X554787Y506799D02*
X556187D01*
X542825Y510399D02*
X548149D01*
X542852Y503199D02*
X548122D01*
X543827Y509499D02*
X547147D01*
X543841Y504099D02*
X547133D01*
X544388Y508599D02*
X546586D01*
X544396Y504999D02*
X546578D01*
X544690Y507699D02*
X546284D01*
X544694Y505899D02*
X546280D01*
X544787Y506799D02*
X546187D01*
X532400Y512199D02*
X540869D01*
X532400Y513099D02*
X539157D01*
X532400Y513999D02*
X538273D01*
X532825Y510399D02*
X538149D01*
X532852Y503199D02*
X538122D01*
X532400Y533799D02*
X537812D01*
X532400Y514899D02*
X537389D01*
X533827Y509499D02*
X537147D01*
X533841Y504099D02*
X537133D01*
X534388Y508599D02*
X536586D01*
X534396Y504999D02*
X536578D01*
X532400Y515799D02*
X536505D01*
X534690Y507699D02*
X536284D01*
X534694Y505899D02*
X536280D01*
X534787Y506799D02*
X536187D01*
X530279Y549099D02*
X536154D01*
X530337Y553599D02*
X535993D01*
X532400Y532899D02*
X535799D01*
X532400Y516699D02*
X535656D01*
X530123Y549999D02*
X535369D01*
X530337Y552699D02*
X535300D01*
X532400Y531999D02*
X535216D01*
X532400Y517599D02*
X535209D01*
X532400Y529299D02*
X535100D01*
X532400Y528399D02*
X535100D01*
X532400Y527499D02*
X535100D01*
X532400Y526599D02*
X535100D01*
X532400Y525699D02*
X535100D01*
X532400Y524799D02*
X535100D01*
X532400Y523899D02*
X535100D01*
X532400Y522999D02*
X535100D01*
X532400Y522099D02*
X535100D01*
X532400Y521199D02*
X535100D01*
X532400Y520299D02*
X535100D01*
X532400Y519399D02*
X535100D01*
X532400Y518499D02*
X535100D01*
X532400Y530199D02*
X535086D01*
X530337Y550899D02*
X535046D01*
X530337Y551799D02*
X535026D01*
X532400Y531099D02*
X535007D01*
X520081Y523899D02*
X528799D01*
X520753Y522999D02*
X528799D01*
X521164Y522099D02*
X528799D01*
X521287Y521199D02*
X528799D01*
X521155Y520299D02*
X528799D01*
X520733Y519399D02*
X528799D01*
X519823Y518499D02*
X528799D01*
X501332Y517599D02*
X528799D01*
X501332Y516699D02*
X528799D01*
X501332Y515799D02*
X528799D01*
X501332Y514899D02*
X528799D01*
X501332Y513999D02*
X528799D01*
X501332Y513099D02*
X528799D01*
X501332Y512199D02*
X528799D01*
X501332Y511299D02*
X528799D01*
X522825Y510399D02*
X528149D01*
X522852Y503199D02*
X528122D01*
X523827Y509499D02*
X527147D01*
X523841Y504099D02*
X527133D01*
X524388Y508599D02*
X526586D01*
X524396Y504999D02*
X526578D01*
X524690Y507699D02*
X526284D01*
X524694Y505899D02*
X526280D01*
X524787Y506799D02*
X526187D01*
X512825Y510399D02*
X518149D01*
X512852Y503199D02*
X518122D01*
X513827Y509499D02*
X517147D01*
X513841Y504099D02*
X517133D01*
X514388Y508599D02*
X516586D01*
X514396Y504999D02*
X516578D01*
X514690Y507699D02*
X516284D01*
X514694Y505899D02*
X516280D01*
X501332Y518499D02*
X516251D01*
X514787Y506799D02*
X516187D01*
X501332Y523899D02*
X515993D01*
X501332Y581499D02*
X515668D01*
X501332Y519399D02*
X515341D01*
X501332Y522999D02*
X515321D01*
X501332Y620199D02*
X514926D01*
X501332Y520299D02*
X514919D01*
X501332Y522099D02*
X514910D01*
X501332Y521199D02*
X514787D01*
X501332Y580599D02*
X514763D01*
X501332Y575199D02*
X514763D01*
X501332Y576099D02*
X514583D01*
X501332Y579699D02*
X514269D01*
X501332Y576999D02*
X514174D01*
X501332Y578799D02*
X514029D01*
X501332Y619299D02*
X514024D01*
X501332Y671499D02*
X514015D01*
X501332Y577899D02*
X513999D01*
X501332Y618399D02*
X513975D01*
X501332Y617499D02*
X513975D01*
X501332Y649899D02*
X513371D01*
X501332Y594999D02*
X512503D01*
X501332Y594099D02*
X512503D01*
X501332Y593199D02*
X512212D01*
X511586Y595899D02*
X512114D01*
X501332Y670599D02*
X511735D01*
X501332Y650799D02*
X511376D01*
X501332Y592299D02*
X511312D01*
X501332Y591399D02*
X510412D01*
X501332Y669699D02*
X510299D01*
X501332Y595899D02*
X510146D01*
X501332Y651699D02*
X510039D01*
X501332Y606699D02*
X509960D01*
X501332Y605799D02*
X509960D01*
X501332Y604899D02*
X509960D01*
X501332Y603999D02*
X509960D01*
X501332Y603099D02*
X509960D01*
X501332Y602199D02*
X509960D01*
X501332Y616599D02*
X509584D01*
X501332Y607599D02*
X509350D01*
X501332Y601299D02*
X509329D01*
X501332Y668799D02*
X509224D01*
X501332Y596799D02*
X509131D01*
X501332Y600399D02*
X509074D01*
X501332Y599499D02*
X509074D01*
X501332Y598599D02*
X509074D01*
X501332Y597699D02*
X509074D01*
X501332Y652599D02*
X509021D01*
X501332Y615699D02*
X508953D01*
X501332Y608499D02*
X508938D01*
X501332Y614799D02*
X508710D01*
X501332Y590499D02*
X508706D01*
X501332Y585999D02*
X508522D01*
X501332Y667899D02*
X508373D01*
X501332Y653499D02*
X508210D01*
X501332Y510399D02*
X508149D01*
X501332Y503199D02*
X508122D01*
X501332Y589599D02*
X507914D01*
X501332Y586899D02*
X507835D01*
X501332Y666999D02*
X507686D01*
X501332Y588699D02*
X507588D01*
X501332Y587799D02*
X507564D01*
X501332Y654399D02*
X507554D01*
X501332Y509499D02*
X507147D01*
X501332Y504099D02*
X507133D01*
X501332Y666099D02*
X507128D01*
X501332Y655299D02*
X507021D01*
X501332Y665199D02*
X506678D01*
X501332Y656199D02*
X506592D01*
X501332Y508599D02*
X506586D01*
X501332Y504999D02*
X506578D01*
X501332Y613899D02*
X506549D01*
X501332Y664299D02*
X506322D01*
X501332Y507699D02*
X506284D01*
X501332Y505899D02*
X506280D01*
X501332Y657099D02*
X506256D01*
X501332Y609399D02*
X506216D01*
X501332Y506799D02*
X506187D01*
X501332Y524799D02*
X506114D01*
X501332Y663399D02*
X506052D01*
X501332Y534699D02*
X506040D01*
X501332Y569799D02*
X506033D01*
X501332Y544599D02*
X506027D01*
X501332Y559899D02*
X506005D01*
X501332Y657999D02*
X506003D01*
X501332Y554499D02*
X505992D01*
X501332Y549999D02*
X505951D01*
X501332Y564399D02*
X505932D01*
X501332Y540099D02*
X505892D01*
X501332Y574299D02*
X505876D01*
X501332Y529299D02*
X505876D01*
X501332Y662499D02*
X505861D01*
X501332Y530199D02*
X505843D01*
X501332Y539199D02*
X505831D01*
X501332Y658899D02*
X505829D01*
X501332Y565299D02*
X505805D01*
X501332Y549099D02*
X505795D01*
X501332Y555399D02*
X505776D01*
X501332Y558999D02*
X505769D01*
X501332Y545499D02*
X505755D01*
X501332Y568899D02*
X505750D01*
X501332Y661599D02*
X505744D01*
X501332Y535599D02*
X505742D01*
X501332Y533799D02*
X505740D01*
X501332Y570699D02*
X505737D01*
X501332Y525699D02*
X505737D01*
X501332Y573399D02*
X505737D01*
X501332Y572499D02*
X505737D01*
X501332Y571599D02*
X505737D01*
X501332Y567999D02*
X505737D01*
X501332Y567099D02*
X505737D01*
X501332Y566199D02*
X505737D01*
X501332Y563499D02*
X505737D01*
X501332Y562599D02*
X505737D01*
X501332Y561699D02*
X505737D01*
X501332Y560799D02*
X505737D01*
X501332Y558099D02*
X505737D01*
X501332Y557199D02*
X505737D01*
X501332Y556299D02*
X505737D01*
X501332Y553599D02*
X505737D01*
X501332Y552699D02*
X505737D01*
X501332Y551799D02*
X505737D01*
X501332Y550899D02*
X505737D01*
X501332Y548199D02*
X505737D01*
X501332Y547299D02*
X505737D01*
X501332Y546399D02*
X505737D01*
X501332Y543699D02*
X505737D01*
X501332Y542799D02*
X505737D01*
X501332Y541899D02*
X505737D01*
X501332Y540999D02*
X505737D01*
X501332Y538299D02*
X505737D01*
X501332Y537399D02*
X505737D01*
X501332Y536499D02*
X505737D01*
X501332Y532899D02*
X505737D01*
X501332Y531999D02*
X505737D01*
X501332Y531099D02*
X505737D01*
X501332Y528399D02*
X505737D01*
X501332Y527499D02*
X505737D01*
X501332Y526599D02*
X505737D01*
X501332Y659799D02*
X505728D01*
X501332Y612999D02*
X505708D01*
X501332Y660699D02*
X505700D01*
X501332Y610299D02*
X505566D01*
X501332Y612099D02*
X505359D01*
X501332Y611199D02*
X505317D01*
X577736Y553522D02*
X588186D01*
X577736Y552522D02*
X588186D01*
X577736Y551522D02*
X588186D01*
X577736Y550522D02*
X588186D01*
X577736Y549522D02*
X588186D01*
X577736Y548522D02*
X588186D01*
X577736Y547522D02*
X588186D01*
X577736Y546522D02*
X588186D01*
X577736Y545522D02*
X588186D01*
X577736Y544522D02*
X588186D01*
X577736Y544200D02*
Y553522D01*
X578736Y544200D02*
Y553522D01*
X579736Y544200D02*
Y553522D01*
X580736Y544200D02*
Y553522D01*
X581736Y544200D02*
Y553522D01*
X582736Y544200D02*
Y553522D01*
X583736Y544200D02*
Y553522D01*
X584736Y544200D02*
Y553522D01*
X585736Y544200D02*
Y553522D01*
X586736Y544200D02*
Y553522D01*
X587736Y544200D02*
Y553522D01*
X637936Y518101D02*
X640236D01*
X636936Y517101D02*
X641236D01*
X636936Y516101D02*
X645236D01*
X636936Y515101D02*
X645236D01*
X636936Y514101D02*
X645236D01*
X636936Y513101D02*
X645236D01*
X636936Y512101D02*
X645236D01*
X636936Y511908D02*
Y517101D01*
X637936Y511908D02*
Y518101D01*
X638936Y511908D02*
Y518808D01*
X639936Y511908D02*
Y518401D01*
X640936Y511908D02*
Y517401D01*
X641936Y511908D02*
Y516808D01*
X642936Y511908D02*
Y516808D01*
X643936Y511908D02*
Y516808D01*
X644936Y511908D02*
Y516808D01*
G54D15*
X516275Y617947D03*
Y614347D03*
G54D20*
X519737Y572214D02*
X521037D01*
X525037Y575014D02*
Y573714D01*
X530337Y572214D02*
X529037D01*
X636537Y524414D02*
Y525714D01*
X641837Y527214D02*
X640537D01*
X525037Y524414D02*
Y525714D01*
X519737Y527214D02*
X521037D01*
X505737Y572214D02*
X507037D01*
X511037Y575014D02*
Y573714D01*
X516337Y572214D02*
X515037D01*
X518575Y617947D02*
X517275D01*
X513975D02*
X515275D01*
X516275Y620247D02*
Y618947D01*
X509074Y598852D02*
X510374D01*
X510866Y595879D02*
Y597179D01*
X650537Y524414D02*
Y525714D01*
X655837Y527214D02*
X654537D01*
X645237D02*
X646537D01*
X645237Y572214D02*
X646537D01*
X650537Y575014D02*
Y573714D01*
X655837Y572214D02*
X654537D01*
X631237D02*
X632537D01*
X636537Y575014D02*
Y573714D01*
X641837Y572214D02*
X640537D01*
X511037Y524414D02*
Y525714D01*
X505737Y527214D02*
X507037D01*
X516337D02*
X515037D01*
G54D21*
X510440Y588174D02*
X514803Y592537D01*
Y595174*
G54D22*
X505000Y503800D03*
X515500D03*
X505700Y513000D03*
X515440Y510374D03*
X505700Y522214D03*
X517640Y526774D03*
X525500Y503800D03*
X535500D03*
X545500D03*
X555500D03*
X543040Y518974D03*
X545540Y510374D03*
X551040Y519074D03*
X556840D03*
X525440Y510374D03*
X563340Y519074D03*
X554000Y528600D03*
X560900D03*
X555440Y510374D03*
X535640D03*
X525500Y521000D03*
X543240Y528574D03*
X537900Y530900D03*
X565500Y503800D03*
X585500D03*
X575500D03*
X595500D03*
X598700Y519000D03*
X595340Y510374D03*
X581740Y518974D03*
X581200Y530200D03*
X574740Y518974D03*
X604440D03*
X575440Y510374D03*
X588840Y518974D03*
X584800Y530200D03*
X635600Y503800D03*
X605500D03*
X615500D03*
X625500D03*
X610100Y519100D03*
X605340Y510374D03*
X633240Y519074D03*
X625440Y510374D03*
X643600Y527114D03*
X624600Y530300D03*
X615340Y510374D03*
X618840Y519074D03*
X617500Y524400D03*
X645500Y503900D03*
X656000Y512500D03*
Y503800D03*
X654800Y518914D03*
X655900Y523914D03*
X504500Y542500D03*
Y552500D03*
X518040Y531974D03*
X517940Y540574D03*
X504500Y562500D03*
Y532500D03*
X518000Y554500D03*
X517840Y571174D03*
X518040Y562374D03*
X518000Y547200D03*
X518040Y536074D03*
X542500Y541714D03*
X533740Y540174D03*
X552800Y551414D03*
X558336Y569508D03*
X561540Y565974D03*
X546140Y558874D03*
X550540Y561474D03*
X561440Y536274D03*
X533740Y533074D03*
X552500Y544514D03*
X554436Y565808D03*
X560400Y558600D03*
X533400Y558114D03*
X543140Y565474D03*
X551600Y557614D03*
X533140Y565474D03*
X557600Y539814D03*
X541940Y547074D03*
X549500Y536900D03*
X565100Y558614D03*
X562340Y570474D03*
X537900Y551414D03*
X541940Y535074D03*
X533400Y550200D03*
X540600Y558314D03*
X562400Y544600D03*
X596800Y561600D03*
X571900Y565800D03*
X598200Y565400D03*
X602700Y549500D03*
X596300Y533200D03*
X582400Y533800D03*
X570140Y533174D03*
X587900Y533200D03*
X569000Y558614D03*
X566236Y569308D03*
X566040Y533174D03*
X578340D03*
X571900Y569600D03*
X592300Y561500D03*
X592100Y533200D03*
X573800Y557614D03*
X594700Y569300D03*
X605000Y533114D03*
X600440Y534874D03*
X568100Y540000D03*
X603300Y565000D03*
X592640Y539774D03*
X574240Y533174D03*
X591100Y555800D03*
X643100Y540000D03*
X626900Y533700D03*
X624200Y563200D03*
X618340Y568274D03*
X606940Y548274D03*
X609140Y535474D03*
X623200Y559200D03*
X610840Y531774D03*
X618100Y532300D03*
X626900Y537700D03*
X616700Y542900D03*
X626800Y557200D03*
X643740Y561374D03*
X623400Y569000D03*
X626300Y553100D03*
X616500Y547100D03*
X619200Y558100D03*
X627100Y545000D03*
X610900Y566300D03*
X616500Y554900D03*
X643600Y532214D03*
X607100Y559100D03*
X618100Y536300D03*
X626300Y549000D03*
X607140Y552574D03*
X644800Y548400D03*
X643800Y557214D03*
X644800Y543900D03*
X643740Y565574D03*
X657000Y532500D03*
Y542500D03*
Y562500D03*
Y552500D03*
X505600Y595500D03*
X505500Y607200D03*
X504500Y572500D03*
X505600Y584000D03*
X510840Y595174D03*
X510440Y588174D03*
X519240Y584174D03*
X533300Y575500D03*
X563500Y605600D03*
X533200Y585500D03*
X533300Y595500D03*
X543140Y585474D03*
Y575474D03*
X528900Y589300D03*
X543140Y605474D03*
X553140Y585474D03*
X533300Y605500D03*
X553140Y575474D03*
X563140Y595508D03*
X543140Y595474D03*
X563140Y585474D03*
Y575474D03*
X553140Y605474D03*
Y595474D03*
X571300Y604500D03*
X593140Y585474D03*
X588600Y580900D03*
X588300Y590300D03*
X581300Y578000D03*
X593140Y595474D03*
X585900Y607500D03*
X593140Y575474D03*
Y605474D03*
X571000Y580300D03*
X568800Y594900D03*
X580600Y607700D03*
X571100Y591300D03*
X603140Y605474D03*
Y595474D03*
Y585474D03*
Y575474D03*
X571000Y598800D03*
X587300Y574100D03*
X581000Y596800D03*
Y591500D03*
X571100Y587300D03*
X568500Y572700D03*
X574400Y609000D03*
X581500Y601200D03*
X568800Y583800D03*
X581200Y586800D03*
X571200Y576400D03*
X581200Y582600D03*
X643540Y572174D03*
X613140Y575474D03*
Y585474D03*
X623140Y595474D03*
Y575474D03*
Y585474D03*
X643140D03*
X638000Y576614D03*
X643140Y605474D03*
X613140Y595474D03*
X643140D03*
X623140Y605474D03*
X613140D03*
X631400Y589300D03*
X657000Y572500D03*
X653140Y585474D03*
Y595474D03*
Y605474D03*
X513140Y645474D03*
X523140D03*
X508200Y611514D03*
X521200Y615814D03*
X508700Y619214D03*
X511600Y614514D03*
X513140Y625474D03*
Y635474D03*
X523140D03*
X522500Y624914D03*
X533140Y645474D03*
X543140D03*
X552756Y645669D03*
X560640Y635474D03*
X528800Y612200D03*
X533300Y615400D03*
X543140Y615474D03*
X563700Y623500D03*
X553900Y623700D03*
X563700Y615200D03*
X544300Y628400D03*
X533140Y635474D03*
X543140D03*
X543300Y623800D03*
X533600Y623400D03*
X552140Y635474D03*
X553140Y615474D03*
X561600Y645700D03*
X575200Y615700D03*
X591500Y628000D03*
X586000Y635500D03*
X593140Y635474D03*
X585900Y615600D03*
X594100Y615400D03*
X594300Y623500D03*
X603140Y615474D03*
Y645474D03*
Y635474D03*
X575500Y635500D03*
X603000Y623600D03*
X585900Y623400D03*
X567800Y628400D03*
X575200Y623200D03*
X633140Y645474D03*
X643140Y625474D03*
X631200Y612400D03*
X615200Y628100D03*
X643140Y615474D03*
X623100Y623600D03*
X643140Y635474D03*
X623140Y615474D03*
X613140Y645474D03*
Y635474D03*
X613100Y623900D03*
X613140Y615474D03*
X633140Y635474D03*
X643140Y645474D03*
X623140D03*
Y635474D03*
X653140Y645474D03*
Y635474D03*
Y615474D03*
Y625474D03*
X553300Y665700D03*
X533140Y665474D03*
X543140D03*
Y655474D03*
X533140D03*
X553140D03*
X563100Y655500D03*
X603140Y665474D03*
Y655474D03*
X593140D03*
X613140D03*
Y665474D03*
X623140D03*
Y655474D03*
G54D25*
X570709Y651602D02*
Y650302D01*
X564409Y645302D02*
X565709D01*
X570709Y639002D02*
Y640302D01*
X597009Y665302D02*
X595709D01*
X590709Y671602D02*
Y670302D01*
X584409Y665302D02*
X585709D01*
X590709Y659002D02*
Y660302D01*
X577009Y665302D02*
X575709D01*
X570709Y671602D02*
Y670302D01*
X564409Y665302D02*
X565709D01*
X570709Y659002D02*
Y660302D01*
X597009Y645302D02*
X595709D01*
X590709Y651602D02*
Y650302D01*
Y639002D02*
Y640302D01*
X588487Y551189D02*
X587187D01*
X585687Y553989D02*
Y552689D01*
X588487Y548689D02*
X587187D01*
X585687Y543389D02*
Y544689D01*
X588487Y546189D02*
X587187D01*
X583187Y553989D02*
Y552689D01*
Y543389D02*
Y544689D01*
X577887Y551189D02*
X579187D01*
X580687Y553989D02*
Y552689D01*
X577887Y548689D02*
X579187D01*
X577887Y546189D02*
X579187D01*
X580687Y543389D02*
Y544689D01*
X636187Y506790D02*
X637487D01*
X640487Y502490D02*
Y503790D01*
X644787Y506790D02*
X643487D01*
X640487Y511090D02*
Y509790D01*
X509960Y604462D02*
X511260D01*
G54D31*
X650487Y506790D03*
X640487D03*
X630487D03*
X620487D03*
X610487D03*
X600487D03*
X590487D03*
X580487D03*
X570487D03*
X560487D03*
X550487D03*
X540487D03*
X530487D03*
X520487D03*
X510487D03*
G54D46*
X580709Y655302D03*
G54D52*
X570709Y665302D03*
X590709D03*
Y645302D03*
X570709D03*
G54D56*
X541240Y514974D02*
X622700D01*
X629340Y521574*
Y529774*
X631780Y532214*
X636537*
X541240Y514974D02*
X537900Y518374D01*
Y530900*
Y551414D02*
X552800D01*
X636537Y532214D02*
X643600D01*
X650537*
G54D57*
X594698Y530300D02*
X606540D01*
X607940Y531700*
Y534074*
X609140Y535234*
Y535474*
X594698Y530300D02*
X591973Y532899D01*
X592100Y533200*
X610174Y526974D02*
X579440D01*
X578340Y528074*
Y533174*
X610174Y526974D02*
X615200Y532000D01*
Y533400*
X618100Y536300*
X613500Y522174D02*
X576940D01*
X566040Y533174*
X613500Y522174D02*
X615740Y524400D01*
X617500*
X636936Y517101D02*
X637940Y516097D01*
X644525*
X645236Y516808*
X612340Y523774D02*
X577740D01*
X570140Y531374*
Y533174*
X612340Y523774D02*
X615840Y527274D01*
X617100*
X620100Y530300*
X624600*
X644840Y516808D02*
X644674Y516974D01*
X636936*
X611500Y525374D02*
X578540D01*
X574340Y529574*
Y532974*
X574240Y533174*
X611500Y525374D02*
X617500Y531374D01*
X617174*
X618100Y532300*
X608240Y528600D02*
X592600D01*
X588000Y533200*
X587900*
X608240Y528600D02*
X610840Y531174D01*
Y531774*
X511037Y537474D02*
X512790D01*
X513640Y538324*
X515690*
X517940Y540574*
X518040Y536074D02*
X524997D01*
X525037Y537214*
X604040Y532000D02*
X597600D01*
X596300Y533300*
X604040Y532000D02*
X605000Y532960D01*
Y533114*
X596300Y533200D02*
Y533300D01*
X636537Y567214D02*
X625200D01*
X623400Y569000*
X619300Y557774D02*
X608240D01*
X607100Y559100*
X619300Y557774D02*
X619900Y558100D01*
X619200*
X642800Y540154D02*
Y539600D01*
X641900Y540500*
Y555314*
X643800Y557214*
X643100Y540000D02*
Y539854D01*
X642800Y540154*
X624400Y559000D02*
X624200Y559200D01*
X623200*
X624400Y559000D02*
X626500Y561100D01*
X635523*
X636537Y562214*
X624200Y563200D02*
X624300Y563315D01*
X623299*
X618340Y568274*
X636437Y557114D02*
X626886D01*
X626800Y557200*
X636437Y557114D02*
X636537Y557214D01*
X626900Y537700D02*
X621600Y542900D01*
X616700*
X627100Y545000D02*
X628200Y546100D01*
X636100*
Y547214*
X636537*
X607140Y552574D02*
X607340D01*
X607491Y552713*
X607735Y552769*
X609840Y554900*
X616500*
X637300Y541100D02*
X626900D01*
X625800Y542214*
X621100Y547100*
X616500*
X637300Y541100D02*
Y541451D01*
X636537Y542214*
X643800Y557214D02*
X650537D01*
X643740Y565574D02*
X644240Y566074D01*
X650537*
Y567214*
Y542214D02*
X649451Y543300D01*
X645700*
X645100Y543900*
X644800*
X650537Y547214D02*
Y548400D01*
X644800*
X650740Y561074D02*
X643440D01*
X643740Y561374*
X650740Y561074D02*
X650440Y561374D01*
X650537*
Y562214*
G54D58*
X580600Y607700D02*
Y655302D01*
X580709*
G54D61*
X585687Y551189D03*
Y548689D03*
Y546189D03*
X583187Y551189D03*
Y546189D03*
X580687Y551189D03*
Y548689D03*
X583187D03*
X580687Y546189D03*
G54D78*
X513819Y604462D03*
G54D82*
X517000Y660600D03*
X643900D03*
G54D85*
X643537Y578214D03*
X518037D03*
G54D86*
X643537Y521214D03*
X518037D03*
G54D90*
X516772Y598852D03*
X514803D03*
X512835D03*
X510866D03*
Y610072D03*
X512835D03*
X514803D03*
X516772D03*
G54D91*
X636537Y572214D03*
X650537D03*
X636537Y567214D03*
X650537D03*
X636537Y562214D03*
X650537D03*
X636537Y557214D03*
X650537D03*
X636537Y552214D03*
X650537D03*
X636537Y547214D03*
X650537D03*
X636537Y542214D03*
X650537D03*
X636537Y537214D03*
X650537D03*
X636537Y532214D03*
X650537D03*
X636537Y527214D03*
X650537D03*
X511037Y572214D03*
X525037D03*
X511037Y567214D03*
X525037D03*
X511037Y562214D03*
X525037D03*
X511037Y557214D03*
X525037D03*
X511037Y552214D03*
X525037D03*
X511037Y547214D03*
X525037D03*
X511037Y542214D03*
X525037D03*
X511037Y537214D03*
X525037D03*
X511037Y532214D03*
X525037D03*
X511037Y527214D03*
X525037D03*
G74*
X0Y0D02*
M02*
